<mxfile host="65bd71144e">
    <diagram id="6qsTEv1h0-Gy5ANKuIiZ" name="Page-1">
        <mxGraphModel dx="866" dy="613" grid="1" gridSize="10" guides="1" tooltips="1" connect="1" arrows="1" fold="1" page="1" pageScale="1" pageWidth="850" pageHeight="1100" background="#ffffff" math="0" shadow="0">
            <root>
                <mxCell id="0"/>
                <mxCell id="1" parent="0"/>
                <mxCell id="2" value="" style="sketch=0;aspect=fixed;html=1;points=[];align=center;image;fontSize=12;image=img/lib/mscae/App_Services.svg;" parent="1" vertex="1">
                    <mxGeometry x="600" y="290" width="100" height="100" as="geometry"/>
                </mxCell>
                <mxCell id="4" value="" style="aspect=fixed;html=1;points=[];align=center;image;fontSize=12;image=img/lib/azure2/app_services/Search_Services.svg;" parent="1" vertex="1">
                    <mxGeometry x="370" y="290" width="138.46" height="100" as="geometry"/>
                </mxCell>
                <mxCell id="8" style="edgeStyle=none;html=1;shape=arrow;fillColor=default;" parent="1" edge="1">
                    <mxGeometry relative="1" as="geometry">
                        <mxPoint x="113" y="340" as="sourcePoint"/>
                        <mxPoint x="183" y="340" as="targetPoint"/>
                    </mxGeometry>
                </mxCell>
                <mxCell id="5" value="" style="dashed=0;outlineConnect=0;html=1;align=center;labelPosition=center;verticalLabelPosition=bottom;verticalAlign=top;shape=mxgraph.weblogos.github" parent="1" vertex="1">
                    <mxGeometry x="10" y="290" width="100" height="100" as="geometry"/>
                </mxCell>
                <mxCell id="7" value="" style="shape=image;verticalLabelPosition=bottom;labelBackgroundColor=default;verticalAlign=top;aspect=fixed;imageAspect=0;image=data:image/png,iVBORw0KGgoAAAANSUhEUgAAARgAAAEYCAYAAACHjumMAAAT2UlEQVR4nOzdT4id13nH8cdCCy0MM6GGahGIDIXYIPAYFSqDIDIYotCUTKlNZdoghS5icI0UWrAXKVIhUGdlmTgkpQVZuCWCuNimBTskizE1WKaBzEAhWgQqQ6GzaMkVZKGFF+W1zxu/M75/3nPfc87zPOd8P2BMm/jOqTv3p/M79znvPTrbPiXAIZdF5KqIbET8M38b/hngt45oLwBmnBGRN0Tk1yLyUmS4dK6Ef7Z7jScyrRHOEDCQsPP4dxHZFpHNCa+zGV7jpyJyLeH64BQB07ZjIvJm2H2kdklEdsPPQKMImHZ1b/zXRORrGX/GI6EyHc/4M2AYAdOmrsrcEpEnC/yscyJyW0S2CvwsGEPAtOeMiPwy7C5K2RCR9wsFGgwhYNrS7Vx+rFRZ+krGTqYhBEw7ujf4jvJ5iIU1oCACpg397qFkLVpkQ3EXhcIImPqVPNAd6wwHv20gYOrWVxILO5fDNqhL9SNg6mWpFi1CXaocAVMni7VoEepSxQiY+liuRYtQlypFwNTFQy1ahLpUIQKmHp5q0SLUpcoQMHXQGP/PhWsFFSFg/NMc/8+FawWVIGB8q3n0vub/25pBwPjl+UB3LA5+nSNgfKrhQHcsDn4dI2D88TjnMhVzMk4RML60UIsWoS45RMD40VItWoS65AwB40OLtWgR6pIjBIx9LdeiRahLThAwtlGLFqMuOUDA2FXT+H8uXCswjoCxqcbx/1y4VmAYAYMacK3AKALGppmIPCUi+9oLcYSDX4MIGLveE5GHRWRPeyGOcPBrDAFjW7eTOctOJgpzMoYQMPZRl+JRl4wgYHygLsWjLhlAwPhBXYpHXVJGwPhCXYpHXVJEwPhDXYpHXVJCwPjU7WROi8jr2gtxhGsFCggYv+6JyNfZyUThWkFhBIxv9zj4jca1goIImPy6X+iLGV+fg994HPwWQsDk1T/P5bqIvJrx53DwG4+D3wIImHwOP+bygohsZ/x5zMnEY04mMwImj0WPufxBgZChLsWhLmVEwKS37DGX3S/xG9Qlc6hLmRAwaY19+j91yR7qUgYETDqxT/+nLtlDXUqMgEljnaf/U5dsoi4lRMBMN/Xp/11deinxmoa4VhCPawWJEDDTpHr6/+XMOxmuFcTjWkECBMz6Uo+cXygQMhz8xuFawUQEzHpyfZ1ribrEwW8cDn4nIGDi5f4619x1iYPfeBz8romAiTN2zmUq5mTsYU5mDQTMeLlq0SLMydhDXYpEwIyTuxbNw5yMTdSlCATMaqVq0SLUJXuoSyMRMMuVrkWLUJfsoS6NQMAsplGLFqEu2dTXJUJmgaPaCzDqjNE/nbq69GsR+Vam1++vFXS7tq+GgL0ddjYfhr/fC//dzfDX74jISRF5KPyzrel3MuwA57hvtn1Kew3WbIa7RdbCZehG5uf8rmszVLm/M/7vL4e74SxrV3shllCRDvIyGp77WsG6ZmFdj4nIu9qLKYyD3zkImE9ZOdAdK/e1ginuhD/NHxSRV7QXUxAHv4cQMJ+wdKAbI/e1gqm6oHlORB4NZzgtYE5mgIDRn3OZKvecTAq74Q3XyiEodSloPWC81aJFcs/JpDATkccbOgSlLjUeMF5r0Twl5mRSuB3qUis7mebrUqsBM/Uxl1ZZPvgd+ob2Agpq+vGbLQZMqsdcWmX94LfzTsZhQYuaffxmawHjZc5lKqtzMkPXGruW0Mrv3gEtBUwtB7pjeahL2+HwtxXNHfy2EjA1HejGsF6X7ojIm9qLKKypg98WAsb7nMtU1udkWrtSIC3NydQeMK3Vonk+CIeqVv1MewFKmqhLNQdMq7XosBcHj1iw6L9F5C3tRSipvi7VGjCt16KhHe0FjOBhjblUXZdqDBhq0aduO/mU5qb2ApRVW5dqCxhq0UFeRvL3G5uJmafKulRTwNQ6/j/FHe0FRLitvQADqrtWUEvA1D7+vy7Lh7uHETCfqOpaQQ0B0+QI9kheKhIOquZ32nvAcKC73APaC8Daqjj49RwwHOiudr/2AiJUUQkSc3/w6zVgmHMZZ1N7ARE8rbUk13MyHgOGWjTe57UXMFIXLn+gvQjD3NYlbwFDLYpzUnsBI50Nf3BgMZd1yVPAUIviHXPyC2n5trcl7uqSl4ChFq3vsvYCRjinvQBHXNUlDwFDLZrmgoNdzLnw3c4Yx01dsh4wjP+ncd34GceuiDwkIu9pL8QRF9cKLAcM4//pbDmoIfsi8hQ7mSjmrxVYDZhqRqUN+bL2AkbYD58oETLjmX6vWAwYDnTzOC8ip7UXMQJ1KZ7Zg19rAcOBbj6bobOb+yWcg7oUz+TBr6WAYc6ljGe0FzBSX5c8PXJCm7k5GSsBQy0q56/CbIzlT5V6XV36OiETxVRdum+2fUp7DZvsXFTshTMZD2/erfA7sqG9EEfuhh3gruYitHcw1CI93b/zq9qLGGmXuhTNRF3SDBhqkb7nReRtEbnooDJRl+Kp1yWtikQtsueWiHzFwdecUJfiqdUljR0M4/82nRaR/xGRXxh/1CZzMvHUrhWUDhjG/23rH++Q4lGbOecxmJOJp3KtoGTAmB5pRnLXwtlOLlwriFf8PVgqYDjQbdN1EbmU8fWpS/GKHvyWCBjG/9tWYidDXYpT7FpB7oBhzgUSdjIl6hIfYY9XZE4mZ8BQizBUoi4xJxMne13KFTDUIsyTuy69LiKPUZeiZK1LOQKGWoRlrmfu/lwriJetLqUOGGoRxvhRgZChLsXJUpdSBgy1CGM9FCaGqUu2JK9LqQKG8X+sgzkZe5JeK0gRMIz/YwrmZOxJdq1gasAw/o8USs3JEDLjJXlvTwkYDnSREnXJnskHv+sGDAe6yIG6ZM+kg991AoY5F+TEtQJ71p6TORr536cWoYTr4Zf65Uyv38/JvHboUaFd+NwJfx8+2e+B8Ff3BjuRaU3W9XXpqfDvZ5SYgOExlyjpWqgyr2Z6/ddF5Ffh59wUkR+O/OdOhK992RaRL2Ram1V9XRr9+M2xz+Q9Fs5cCJc2PBj+JJ+i+8PoSwnW8qj2V28s8YyI/EB7EQruhgPzlTuZMWcw1CJoyn2tYIpu1/M5EfnLBIHsyehPl1YFDJ8WQVuJawVTzETk+2HX942GDo9Hfbq0LGAY/4cluedkUnhVRP6ood3MymsFiwKG8X9YlHtOJoWfhd3MDe2FFLL0WsG8gGH8H5blnpNJ5aLhw+nUFmbGvID5B2oRjPNQlzrPNXQmsxH+/3LgK4gPB8xVEfnzsusC1uKhLr0Xvo63FedE5J3h/2IYMF2HulJ+TcDaPNSlnYwTyRZ9KWxUPtYHTNed3tBbE7A2D3XphYbOYyRsVM7IIGDON3zHAv5Zr0v3GvpUqfesDAKGQ114l/vbCqba0V5AYadlEDBP6K4FSOL3tRewRFeRfqK9iIK6RvTMkXAr9PPaqwES+DftBazwgvYCCnuxDxjAu72Y55Qo2W3oGkFn40h4tgPgXa7nxqTW0qdJH5/BtPbQHNTJyxt3pr2AknJ9+T1Q2i3tBYzUUkUiYFCFmaM7Px9qL6AkAgY1aKp2eHLEUfIDcKYLmA+0FwFMtKm9gAjHtBdQ0hFHp+/AIp4C5ne1F1DSEUfzA8AyD2kvYCRPYThZv4O5rb0QYKLz2gsYyUsQprDXf4pk/Q4HsIqXKy8ntRdQ0OU+YP5ZeSHAVI842B1sNXSxuGtGO0cG/8Oe8oKAqawHzGXtBRT08fNvhoN2247GrYF5/lB7AUt0O5c/1V5EITMR+Xs5FDB3ROQxB1fegUUsf8Xxkw3NwPxx/8HRvKsC3y2/HiCJzeET7Y35svYCCvnW8PGg8wLmH8PXLHxUdl1AEs8bfAD4xUYeS3st/PVb8wLmN+Ew6vvl1gUkc8zYA8C3w3qOai8ksxth93LAstvUL4rI3bxrArKxsIs53sik/O6if9/LAmY/fOxHXYJHfxF24loHq93P/V74zuaadeHy9KL/cNXzYPapS3DqfhF5KYxelA6ZzfBzLX+qlUJXix5ddtVo7AOnvh12Mjw7Bt48IiI/LvjNpV8VkV828GWGo75Nc2zA9Ae/jxEycKh70/9XgY+wu9f/13D2UrO5B7rzxD4yc7ef0AMcuhI+vEjtRHhvXMnw2tbciDlAX+eZvNQlePZ82M1cSfBR9hPhnOc/GqhEMrYWDa0TMNQleHci1JlfhHszVyPOaLbCR8/dP/fT8F54IPN6LRhdi4amDP/0denShNcAtG2E3cyV8JUiO+Fe3iz8jm+FT4XOhhBq8YsKo2rR0NTpwm+Hvz/bwKQi6teFxwXtRRhzbZ2dS2/q9yJxrQCo11q1aCjVF69xrQCoy8Lx/xipAoZrBUA9lo7/x0j51bFcKwD8Wzn+HyPHd1MzJwP4FD3nskqOgGFOBvBn8oHuPDkCpse1AsCHtedcVskZMEJdAsxLXouGcgcMdQmwK0stGsodMD3qEmBLtlo0VCpgZFCXmJMBdGWtRUMlA4ZrBYC+7LVoqGTA9LhWAOhIMv4fQyNguFYAlJds/D+GRsAI1wqAopKO/8fQfoZL/zyZbzb0xeCW9Q9Z+o32QpDMpOe5TKW1g+kxJ2PHT0TkcyLyuIj8b4LX67r+WwleB+sreqA7j3bA9JiT0fVW+A7llO6E13w58etinCJzLqtYCRjhWoGKd0Tk4RAEuf69/7WIfEVE3uRQv5hicy6r3DfbPqW9hsO2ROR9zmSye1dEzhUO9Gs8JD47EzuXnqUdTI+6lN+N8JT80rtFZqDyMhUuYjRghGsFWd1U/CXsZ6B+rvTza2amFg1ZDRiuFeRxV/tThRAyzymvoTbqnxYtYjVgemyp07oY3uDaboUzIExXfPw/hvWA4VpBOm+Gv6zYDrM3WJ/K+H8M6wEjXCtIxto8yix8ijXTXohTauP/MTwETI85mfV1deQ97UUs8E/aC3DI5IHuPJ4ChmsF67touGL+i/YCnDF7oDuPp4DpMScTZy+M7Vu1q70AR8zNuaziMWCEuhTlBe0FrDDjUuQobmrRkNeAoS6NMwv3jay7pr0A41zVoiGvAdOjLi1nYeZljB3tBRjmrhYNeQ8Y4VrBUr/SXkCEPe0FGOSyFg3VEDBcK1gsxYOjSmEXc5DbWjRUQ8D0uFbgGwN3nzI9/h+jpoDhWsFnWf54GvOZH/+PUVPACNcKPuO49gIQxcX4f4zaAqbHnMwnPD0V8IT2ApS5P9Cdp9aAYU7mE57etFvaC1BUxYHuPLUGTK/1OZlN7QVEeER7AUpcz7msUnvASON16fec1KTUX5niRZW1aKiFgGm5Lt0vIue1FzFC1W+yBaqtRUMtBEyv1bp0VnsBK3Q7rK9pL6KwqmvRUEsBI41eK7ggIqe1F7HEE9oLKKz6WjTUWsC0eq3gpvYClvgT7QUU1EQtGmotYHqtHfx+QUSe1F7EHCcaOuBtaufSazVgWjz4fVZ7AXPsOPsofV3N7Vx6rQZMr6WD37PGhtmuhp1V7Zo50J2n9YCRxurS2yJyUnsRoa5d0V5EAU3WoiECpq26dFxEvqe8hk0Dayih2Vo0RMB8qpW6dFbxT9Vj4dyl9lveTdeiIQLmoFbmZK6LyBvh+TmldDuX1xq4c9R8LRoiYA5qaU5mO5zJlPgUZzs8/MriR+UpUYsOIWDma+XxmyfCGz/nLMp22C1tZPwZFlCL5iBg5mvp8ZsbIQDeDmGQYkdzPOwEu9f9UYLXs45atMB9s+1T2muwrvvluaS9iMJeDnMqsQ/iPhHeaJcaGaATdi7LETCr3S8i3xGRbzp5tkpKPxeR/ww16v/CGdVhXwzBslX40NiCa5y5LEfAjNe9gd5vMGQwHzuXETiDGa+VORmsRriMRMDEaelaAebjQDcCAROnpWsF+CzmXCIRMOuhLrWHWrQGAmZ9rVwrALVobQTM+lq6VtAyatEEBMx0rVwraNEuO5dpCJjpWrpW0JIuXJ7WXoR3BEwa+9SlqnS16FERua29EO8ImLSYk/GPA92ECJi0mJPxjQPdxAiYPJiT8Yc5lwwImHyoS35QizIhYPKhLvlALcqIgMmPumQXtSgzAqYMrhXYQy0qgIApg2sFtlCLCiFgyuJagT7G/wsiYMriWoEuxv8LI2DK41qBDsb/FRAwepiTKYcDXSUEjB7mZMrgQFcRAaOPOZl8mHNRRsDYQF1Kj1pkAAFjA3UpLWqREQSMLdSl6ahFhhAw9nCtYH3UImMIGHu4VrAeapFBBIxdXCsYj/F/owgYu7hWMA7j/4YRMLZxrWA5xv+NI2B8YE7mszjQdYCA8YE5mYM40HWCgPGFORnmXFwhYPxpuS5Ri5whYPxptS5RixwiYPxqqS5Ri5wiYHzr6tJ3w66mVtQixwgY37pgeUFE/kZ7IZlQi5wjYOrwQxHZ015EYoz/V4CAqcM9ETkd/rSvoS4x/l+Jo9oLQDL3wnlF5yXltUzBgW5F2MHU55Wwk9nXXsgaONCtDAFTn4/CG/VhZyHDgW6FCJh6zcJH2B5QiypFwNTNQ12iFlWMgKmb9bpELaocAdMGi3WJWtQAAqYdrxiak6EWNYI5mHZ8ZGROhlrUEHYw7dG8VsD4f2MImPZoXStg/L9BVKQ2lb5WwIFuo9jBtK0/+L2T8Wd8h3BpFwHTtv7g90ER2Un82h+KyOMVP6sGIxAw6D0tIu8meq1bIrKVIbTgDGcw6O2LyFkROSEifyYiT4rIyYjfkV0ReUdEPgh/b+mB5Fjgvtn2Ke01wK7jInI+7EZOi8gXB//ZXpgQ7sLkZuZzHDj1/wEAAP//XmhFlrKzseoAAAAASUVORK5CYII=;" parent="1" vertex="1">
                    <mxGeometry x="60" y="340" width="50" height="50" as="geometry"/>
                </mxCell>
                <mxCell id="14" value="" style="group" parent="1" vertex="1" connectable="0">
                    <mxGeometry x="180" y="290" width="100" height="100" as="geometry"/>
                </mxCell>
                <mxCell id="10" value="" style="shape=image;verticalLabelPosition=bottom;labelBackgroundColor=default;verticalAlign=top;aspect=fixed;imageAspect=0;image=data:image/png,iVBORw0KGgoAAAANSUhEUgAAAZAAAAGQCAYAAACAvzbMAABsoElEQVR4nOy9fZAkx3XY+aq752N3ZnZnd7HAEiDABQWJsEjJC0m2iCNNYM8OG7BlCfZZZ9F3DgCk//BFXARIwheUz6Z3GeEQoYsTPs4+m/7DAjbCZ/nClLU4n32gHWcsTFGEQOqwlCkApEBi8LG7A2A/Zr/mezovuqarp/r1ey9fVld1VXe/H2IxXVmZL19mZear/KwGGIZRCR449sY8wOS9ENV+PgL4uAM43HKPwB1O/Lj23ygVzqV+R+gaiHv4LyCZOA7fNacHBsfJxe+Lk8sD6p7z6AlMvlC64zBYPiXDpzclA+uFdeTCcPkn+d2+F5124E6Bcy8ArJ86+eXbl4gsIKHyyjCMArnhQz/fuOHwJ+6AKPr5O+955E6AxschgiMAMF+2boYBDp577YXfeA4geu61U//r9yWvZkAMY4C0exm/BVF0X9m6kHCv4HnKxnFkjTMkXJHp6jfuMnXz4p557fn/5fOvvfAU2SuprNqGMUo8cOzcYYjgGDj3kHc8A5ixKN+Yk4RGHr6nkc3J0Lhz4zLU+FqWNOA4OLkapDEpLk6NPAgcTwTBPcvYGad7lz6bx09++bYv+5JhGEYBPHDsrfsgavwWOM8QVWjjFtp4S/44g1GkTnnJlvxmNRgaHSjDp9W3H0OWZ3pUuFWoub998tgHT1DqGIaRM3fe88g0RI1fuvOezz8AUHsAAKbL1skw+iJq/qvXnn/886+98Phix6lcjQxj9Ljzni8cuvPev/MtaK+iMowRYuG1U7/+J1574anV1kWtbG0MY9S4896/87QZD2NEOQzQ+KXkwgyIYeTIA8fOHAeAaq6wMowcuPPez3fKd71cVQxjNLjzni888MmHvvY0QPTfazajaVaxSpvbNCs/s66WlcJJi3u4e9wiIAhMI7dRT7MxT8qHEHkcvsVkmjySNidKcWqeM+UHPAuz+I2J0eEImv/n+TdfXLI5EMPokzvv+cK9H7n37zyP3bmGNG+k1bBSGEj55+SFLCKiVqJKsnH8mvC++Lj0aOLCYal8kPSn4tQuzNLEJS320qRPu9qZk4NknHr2yzcfNQNiGH3yS8fOPA8Q3Vu2HsbwUMpq3FxxSxGs325zIIbRBw8ce+sBMx5GKMNtPFpE81u1XffYHIhhZOSXjp09BlB7EgDsUFJj/HBu1QyIYWRge7VVdNyMhzGuRADzNoRlGIHcec+j8w6iY+w4BHZ36Dd1jf9JaO7jOLj4JD18cWr1pcI75q9WTy6d1P0s+SXFwaUhBCm9nD9Kp5Cy4gvjy78edzdvb0+GEYgDeDB90YPvjClpyQ+KiJQNyuVdmuVO1JIfHA7Lk+5z4HCUDlgfYPxEhJ9IWPrk042KD+sp6QhID+ovTrP0XDg5XJq45VNS2indtHT8RvO2CsswAmj1Pj5yzxdeBohsp7kx9tgQlmEE8JF7Hu0YD25kA7vlveJGO7oUIiNLHKFxZ9EpJO+08rWjZf3EEyJPKzcrUjnUjvBxYWwIyzCUPPClM8cdwGFuxACPCgAzUgSMXwrOj6aR1oyQ+UbApGtpNC0PI6LZQCeNFEq6SiM4vnzLuglRgzQyKW0O9MXDjVji+2nZVHiMDWEZhoIHjp073HTujbRb0ZvBhn+zWf74dnJnDZ83ofH4DE5WeUVjQ1iG4eHAh+5uGY+XsXvRFdSMRy9Zezah/volNJ5+e279+s+KGRDD8PDJB3/7EQDP1wQNYwwxA2IYHhzAQ2XrYBhVxAyIYQj84pfi73tY78MwCGwVlmEw/NI/OHvMARwrWw/DqCpmQAyD4Be3l+ya8TAMARvCMgzEnfc8Og9R5DUero+lLv2ELZKq6qUlq/7Dnu68oPJByhszIIaBSJ91xVWelnsU7fxO/KV/p/1yFVOSz+rnZH/4PqcP/teilSbKP6c3/kvFQenH6YjzkfLH3Uvrz93n3KKI9yvpwqWdiovTnQqnfYbStZRejWxN2bSNhIaRotX7+PFP2VlXowplII3smAExjBS/+A/OvuEcmPEwDAU2hGUYbeKJczMehqHGeiCG0T7raqvZfdaVYRgy1gMxxp4DH7q7ZTx6zroyDEPGDIgx9nzCzroyjEyYATHGHufsrKsi8Z00O0iqoEMVyZovthPdGGt+AZ11RX1wR/q8tPRRH981lsPFD8L3InzfffB9Gpv7KFPIp9e5eF3qU+X440VZP1jE5QElg3On4pfC4zA+HUL1kcCfRPd9ZAq7actRGiksIH3qAWkxjJHiF+OzrqLjZethGMOKrcIyxpLtnof/uBLDMHhsDsQYO+Kzrsx4GEbfmAExxo5m6qyrGGqQvEg08kN0yOs7qKFQs+NZ4gzNj0HPhBedv1nK36DLLBOXDWEZY0Wr93HHJ7/wMkR9nnUVOqs8KHl569UPg9ClyDiqnJecbqGrLHBYCEuzGRBjrPjLX7KzrgwjL2wIyxgbfuHv4bOupFct32uYS/3DbiFyNOQxLtSPHqHjaXmNN2meQT+EPH/pWtrpUvTYmyPip3TV+OPk89fWAzHGggeOnTu8ueXe6F4FH7J6X4LaSYHDcrsrAGidKPmUXqE7IzhdKSR9Q2RweS6lRZLNyQRCDgi7Tny7fajyIV1zOyy4NPt2nkgyQvKRez6a8S4qr3d0sI2Exshz4La7D29uNV/eKf7bFSBq/0rc6KrW+8bFN2kOVS/XJSFKhXSp+Lv96t5S07K75ezo0R0X1q83nt7mi3/7jAhftDnGee0I/y7VPO34w7FyMqFzDV15AoR8nB4uP6KumLr1TodN5wIOQ8UTIf0ckZ/YnXsWvWlyPbr36t0rszdfu9MFxPNLypMZEGPk+a8e/O1Hms7NUzuiqb8SPj9Shz/kXogeUpp87hG655tzxf41OoXoJT0LKb5QfULdOX2kPgMVXpN3nDtXfqUwkt4aXRJ/nP42B2KMPE3n4rOuQhvpEDQNXhXRNmT4fh5pG/TzGOZ48o5LK8vnzwyIMdL8wt/rPuvKMIz8sCEsY2T5y//g7LFm09mO8yEjigAa9QgmGxFMNCKo1yD+l2Z9E2Cr6aDZbP12sLE5DP290cNWYRkjSbxkNwIzHkPA3O4a3HygAfOzddg3W4c9MzWo18KappYBuXh1Cza2HLy5uAHnLm6aURkAZkCMkePOex6d/7E/84VLZeth0NRqADfsbcAHb2jAjfMN2DdXzKHgl65uwXtLm/CjcxuwdG2rkDjGHRvCMkaOLYfOupLAS2mMwphoRPDhD0zAHbdMwp7dxX9JomWYWv8+cusUvHtpE95YXIf3Lm3B9dVm4XGPNKk6Y1XHGCni3scnv/AyQHvHeRR/cXCnoPd5hlAme6PZy6XRS7MPkJDn2vMK4hrerOc+CfonPY2bb2jAbTdOwMx0NdbsvL+0CW+/vwFXrjfh/OUteqgrZD0z5eZ7npr8zqKD5DfBV4a05TwyA2KMGH/p7519A8AdlgwAEA1qp5GFPtZLYmM1iA5OOs4MDU6XfkSeALM3nNwX3fbY6mn87E9MwwcPTsS/q86LryzDG+c2OtcOmPxs5zVk2Acu7VsH4XeXcEW51JQ31o/vpQkZyFZe2BcJjZEhnjgHeAAUL/1QwAtgxPwOkcV1hHwvvJo4NIS+1OJ0zu6qwb1HZuADByaCJ8LLomXoWnpfutaMV3RhNHnPuVGyQGjkqXIDQseG6pSCpzxJuoXWmeF4wobh4b5j5w7XNptvlKmDZqQqT5masDCgzW6TjQjuvG0KPnb71ABiK44fnVuH/+8Hq6QhCSEPYz4M2CS6MfTsv+3ulvF4uWw9NEdZ5CmzyLBaJhoRfOzwFPzErZNQjyJ5DIW6x3W3qHsc3BgR5Q+E13YA+PChyXgpccuQ/OjcRualwONgPMB6IMYocP+Xzj4RNd3nytZj3PjIrVPw07dPdc9zaCfmuTEgyGni2DcJoZT1h2+swffeWFVEOJ5YD8QYeqLm9llXxmBoGYx7fnp3vIejh34PWfKFD321d0I4hayf/vAUbGw04fvvrAdGPB5UY12dYWTkL9pZVwOn1esgjQcma2OfB3nJcgA/9eFpXXrHEBvCMoaW+7909ljUdMfL1mNc+MD+RjxsdfOB6jemRSyffvfSJrzy5lp8TIqxjRkQYyhp9zzsrKsBUKsBHD0yAze138K1UwrcvLavcdfskwAUp3b5s2/fhWaZ6rdeWYY3FjeEFIwPNoRlDB133PPofB7Go6iVMn0Ou8d+QnQresXPj9882RnCSafNeeajsR/H3MP+qHg4uD0ykn9KNo4nEvQ88mPTnYUDWZ9xHmHKkI/lmAExho6ouXPWFdX4pOEaKPCsNsV/uYZTCutr2LiGlUsD/i35l+LA6aDSmzAzXYOPfXialEH1Qqh7nG7SfW4VLpdebnVw1oZTCjc9VYP7//RsnDeRYHywHOlZaIaCpPC++CidNGXY91xtCMsYKu74xKPzP35v+6wr3EpTSzaBqUHcFl+uJaLGRDR+OR0wWcdUfPpTcXMtSirOeh3gjpsn4wnkySE4jqQM1jcd/JcfrcIP3lnfeUxcN4azKr6yinGB+2WIZxtcZ4TyY0eZGEPFz//N3361c1AiCGeGFHHOB8a3b6HI7cjc4L727AqPbp/6qd3wkdumhuY4kjJo5c3NBybg2koTlq426bNdsjLIYwTScVIGR/BrQ1jG0PAX/+6Z4/FBiRKafn5eSGNZecTpexOlrn3pVjRMHzjQgFsOTmi1HHt+/JbJ7R++8hACNy5WpD3H41+Ksm09EGMouO+L5w5Dzf0O68FelHPj5//ErvhwQUPH7ula/IndC1eG7KNVOdSZ6i/oNsae/bfdfTiqe866GmRXf0SZbETwUx+egpv2WbMQys/+xDTMTEfwvTfW+j6IcWDkoKb1QIzKc8//8NKxKIJ7y9Zj1Dl6ZAY+dNNk2WoMLTfsbcCBvfWub4uMOtZPNSpPVLOzroomPq7Deh590+q9HdgzPu/lZkCMSrM9cW5nXRVJPHQ15N/xqBK33jg+CxDMgBiV5b5fPXvMRXBM2kBGbYbjNt5R/rEsYP5q5GB3yQ8VRpJD6QUKPbEf6vewfwSqatxx82TcCwl5Xr4yAQFlgbvnk5GlzpgBMSrJfa2eR80dx/uduMKMkfbVJUgNLXWP2zqh0cchffB1iBzKv6+RolbvuvYnaD98s8175MnkRARH75qJe3Ya4w6ofEtuIJRbfC3VGUqmZtsSlmUGxKgcd3zi0XmIus+68hVs7Mf3phYiN4tfrQytzKzh0v6p/Pmp26dsp3kBtPL0I7fqDTP3YiLd993LWmdCwpsBMapHbeesK6M44t7HB6z3URQ//eHpkd9PM9qpM4aOVu/jjk9+wf95Wu3rmYbQsaOQez4//coN8Zei9Yb8qZ/aHR7QCKKVx/UsraymTGL/IX5yqjNmQIxKccenHn2566wrUA4gS/4xVHg8YEz51/b38cAzNxDu0407GA+7SRMpzAD4z/7ENOybG5/lpmXRyuMPHGj4G29qAgNPXFFljiuv3ORHQkid4cJHZkCMCnFf+qwrX2OO/VD+qVlE3Jjj35RsjGSYcPzSueacYfGli5rg4QwHEWer92FDV4Nj32zbUEvPGN+n/ONwnBGg0JYtbuadCWcGxKgE8VlXeX9hUNNND+3K+xpp7DdUvjb+PuTesNd6HoMk09EwRZTdvOJNYQbEKJ39t919GGqes66M3Dh0oOHtAGF3bgSGe6H1dZgk+ZIf7iXd9yKvSY/UoaPgOqc47MH5evzxqVFkNFNlDBV/+m/89iPp3eZSg8JdU/d8f7OSJe70fe1IAxefprGV/N/Cjck7ACe0vPGf9G8ugsTZdfvv+UvETRkyKjFcHjrGD6WrS/l3rjd8Og0O/0YyOnkDvfIjiODjP7mrx13zjDVlVipr0rUmPl/8ZkCM0nGRe0hqWH2FmGt0fR/pS//m3l4p+ZpNjfi7VumwIHxDHN+XGhkuPZTOyd+ZXTWYm6l3IiKNQNLAU0pyE/aUongiGMvj3Ci5jsnQLG8F2octPVjfg0FuN+1vdL6jTj1j3xoOKtmcijgZ1D0qmVydkR6TGRCjVO4TzrriKhNX+IGp11I7x7UD3D2pwvrio+Q4oRGRvmNNNSC+RVut6/jARMr6aSZkNdZMUjAkQzk/kgyuhfXpknbjPtwU+kCJ+x/+wITX5lKiQ/yGPLYQOZy7GRCjNP7Cr5495vKeOM8ZxctlX7Kk+6Hx+PzXawA/fZg590obmabBH2Y0hg37Vd6/45bJbHtCcqCoR2MGxCiFuOcRueNl6zFO3HxgIh7CMsph70wdDuwZrSPzrTQZA+eOTzw6X/Wexyhy47wt3y2bWw+aATGMvnCRnXVVBvap2vIZtY92mQExBkp81tWfUZx1ZYThGeTes7tmR5dUgP1zdZiaGJ3Tj82AGAPlxz716Mvg0FlXEpolKyEz3aEriYBZ2iKhWTXkWwKjlZ/gaZNuPjBab77DTNcJvdqVE1nKn3aJYUjcyI+VKmNg3PfFM8cduMM9myQSIrSsNF0RNAfLceHwUlWfEfFt1uDugXAInm8zSkToTsnGunPpQzrY8FV12DUZ8c+RqhPgud9vnZHcuDrTjst6IMZAuO+L5w67CI5BerezQ+XVpf445OwINwK8G7grDA6PNtN13FI7qLtEtCsO1q8nfmkxPhGOSl+PwYn4XeJd+qEd4wkT9tGoyjA9WestBkT5SMpF17NU1Jl0OU4blyydG6rOpOOy1xKjcPbdevfhZtR91pWvE5DXKJV0r6dyMG6AjUhAHFrYBkWI19dh6bQdkR2gWCV2TW0bc005ydp54F6k8qoziZv1QIzCwWddGfmgNVTTExHUa9YDqQqj1Bs0A2IUjovcQ2XrMM7UzHhUilH6Br0ZEKNQ/vwX+bOujMFQ1vEZBo0ZEMNQ8Be+ePYYRLbjvGwm+9x34BsqCxnLL0KPPGTnhUaXUTLoI5QUo0q0eh7OzrqqBEmDhRd6cQvGAPnxuflWRzvhFHTfJLHWODgiPdJCDd89R/zm9NEY2LSfen10eiC2CsvInTs+8eh80vNw/j1uQaRWJeYqUyMv77QMCqoRpE4r57YgQIAhccRv7JdqsLltNcDIpIwWFYaLF3/3ImQlIKUPFQ+XBxqDU+U6k5YXZEDufejl+av1lXvBRb/kAO6NwM0DRDa+bXSxe2Zv/BdXBKrC4v1RXCGnGjZKvnSf8sPFI+mF08E1xtprSgeffynPNA0Q1WhrlopK93xv6nnqk9ewVUgPx6dfVtlUPNR1FeuM14DcfOSzh2dv/pkH5w79zENXYeUQuGh6R1jUm1LqL04Fpx2V474aDMyrBRUf9QSwPE5v6TWJcte84oFHByqtlDzqNcr3+ujTldPNc7/emIDJXbPs25bvrU5T6XyVWFPJs+rle7MNlc+h8S/lWWg+VoFB6pO1cR9E/MNUZ1gDEvc2aitPA0QP7IREW3elbfQ4Rp8ZxQ0stQ1fasQod65xpdy5HPTt1uLcOUPBGUQpvM+wSs8Ax0vppDHcVFh0v1ZvwNzeg1Cr2aa1KrG+WbYGRpr1jaqZ7uyQBuTmI585dDVa/ZZz0c6hd45o81yqHcFb7HEbh8O7Xvdkl2PUlt3TPrpU3F2KdMcJ6fCOaa+dPGYLKb0pOmmLUmmR/Lnu+Kn8SjtESKkeu+p68wlwHKn76efniLT12CPXK7NL1ZShSsLsmt0bGxGgekc4EfjhcoqEGjJg/Ev9feqlhXuggPxy8XH+sLsm/TgeLn2U7tz4hlEaW81UpaYaIU2d4cJRz50rx5oRBqrOpOIiDcihu/7WEw7gsK9M+l7OcTiqC5T2hzsjVFpw+rnOAqULCPURo46PMmpCx4jSh9LDQa9BcZ48xDpq2lXqHqWXL5+mds3A1NRMr0JcweDucX5wIeF6qFyG+OKkHgAVF9djph6AVGmkgppHpUn9HqU33lFgq5m66Kn0gfXC54YrNfYvGRpF495lQA4d+ez8zXd99p8CRL/C6eOTS8WjgdNdkpOHH1895dx86QpNdxZ5/aTXF4fGDiTu9cYEzMzuEyQHEKqgL2zWAgieiqmJr8xKk/q9tt5UCjQGQWzQQ2161ncAbXnNIj/dAzny0LcO1yJ4HiDgWw2G0V51FUW2paiqbG4BrG+6kdoBPcysro9Oj7BT62u1eN2+GQ8jiHq9ARMT02WrMeQU36BcXymhF9JPj7DfeIqOsw/5K2uj0yOMDcgHjnz2TnBgB94Zwexq9T5q6cFVzUAY5Y/65/NL3QePX0km9RuYsSJOX+xfmzatblgPX9jtv5eubhH541GFywJfdiRQY+5U3D75nH6JGy5+ODx1X8pWTkcqbimdTNHYngPRPG8p4b4E+eqMlGB9uYwNyNyhn3lQkGgYPURRDWbn9sPU9O62i0sVNZe63rnq/gupK64N6i2w3H06FhyyO/5uPSGlFXRVHIfkc9UXx9Qtu5te/QDJdj15BSgF2B3nRTqeM+c3dA2oZFCoNkpq7KU4JJmcDDq5tB5cWildOf9cWjVtM6cPACxd2+w40nWm9/k7VJ+g6x6VIGDKIFWOwupM2l88BzL7gZ+5D1Jio8C1f9owWWT3Q17xpeX4ZCb3B51WSD1wX7x56DYzNw+T0zNteWnZ9F9aD70fjbvjVrN5wlD3JJ1C4pJWs6X945dk7cu7Jn9av89esM0gVeHqSjP3OkOVGSpcglS+fHUm7V478tDz8w7cESAayh3PrsvyYCuEw1D+gWjY8H3sLl1z+qXvJQ25Lzx2498bgQyD84LKB0pfKh+o9wwq76kwUfs/+l2lV74vLi6v4t3mhPGAHLcdSC+NvnDU74R+9As1MhDQOOD0Zk0/x/qmMIxlDIyLV7e6l/HmSEiZCXkxk2gATN0L6UYktbOv03CkXqe6GhfXuzuNa/ypRhk3dulrHH/82xMX1Xh2mWYsM+rVyW1H1n0vuWbi1aSP8kPmtc+wtp2iKOrVj4CU5XrXf3PhKd0np3YJ/qpN1fUrksVLm7Bvzk4JKJN3L41WT7ABAH+9q78NAeZJ6sNjiJ1oXY1a1G5QqXuUfPK2o+NzCnm+e5r+JUqjqieTsUVzeIu8lLdcvOk814SPAOr1CZjaNZtJZ6NcfvDOGvzEByft87Yl8sOz62WrkCutovTxzlVoYxbi3+c371fDMl4184xzEHXchcVXrzVgz7yddTWsXFluwvnLNoxVFq0e4KVro5X/Ndv7UVEGbQAV8e2aaZ91lSGs6JfrWeaRB+meY1Z5vomLMsfFQiZiAOCt9zeK1MYQ6PQ+QsuMb/KtxDpj24cNFfFZV+2Jc7KASYUO93Sohpf6za3vp66BuQepOR8ct88wUO6A0kKFofTk5FH/cHxSPlGHlHF5AwA/OjNaQyjDRDz/wT1fyQhQdYYLg5f5SfUGBHdlnTEDYnjpOutKmguSGnKp8GrCU36wPj7Z2kacChNiFCg9NWE18Wr0EtK/vulg8eKmmEwpKimLqGQyaqjspC+JPh05XaUi5MsDn56cft97Y5U+DUAjzFdWuPCcP0pZnzwmrBkQw0vWs66kthT74a619/L2E0peMn3tBY5PsmEcZy9skP6cMBXGtT/42tc4A3MArK+x5tLkCJmUH+zPpy+1nkhrVHCncH3Dwcuvrwoa0nFIfqRr7b08/JDHuUsFyRgvavUGNNpnXeFCJB15rz05mvvkAI4v8nwCwXfsvE821pn7VIDmkwE4jMaNk+f7rAF1Lflv8X5qIt33AponlLHoVxZ3rQ3XrzyfrNbvy8tbnd9SOaI+AcGdtu6rM/jrAfg3vvaVU+6657Uy5C3E564Np3mLyrOwUfezyM/y9ufzn0el7UcH/Ezi3kdtu5hQBZyTxd3j8lp6u5M+oZFHo6RpNPNo9Ljw2nzB4aU3aCm+85c346EsYzCcX9pSlR+uHmYpG9R9KT4fXLmqOUJJ7Oa7J4WR7nPzPVzmSXFkiZ96ACEyNXr77oWmU6NnlrTg31FUg5m5/V07zkMKnBaNTK7yFKlLHvL7kVFE+hK2mgDffm2lwBiMNNTej7yfL9fAZ41T67fUOZAiK0nRZNG97EYphJm5fbZhcIT50bn1kdvUVkVaeTxqez/SDNck+jBbnCGi3pjYWbJrjCzf/aFuYtfIzqjncU3dKFNjHsCMbWA/kkzJH74vnbvP6aKJT+rvceNWUnjteI+kjzTGJektuXNxIv9TU7t9mhsjwPXV5sg3cGXS6n208niU2e6BhAz6g9AISQZGGnzn/HH3KR04XULkcX6xXF94nx4afXBeS/nMydXGmfq93fuwoatx4Y8WVuHy9dEdYimL18+sw7e/P/rzTMM1hGUUSr3egD17D0KtbmddjQtbzZYRWStbjZFifcPBt15Zho0xWOlmBsTowJ51ZYw0b723Yct6c2ScFidU0oCMUlEOmQopGime+KyrXTsT5/i0eJ87d5/y3zlBvqCEp+VKcYWmxXePilf6rdXD518TXvLTelO2uZD8eBsdWNlvnWldF1lnuPg1ZbWRXHM7bKWdt9LO3VC4M+H6Cd+PP+xfu6s4JHwarZyQuHF4Lp56YwJ2z+7rKhxRZEbEdz+LEeHytWwj8uqba3Hh+JM/Ng2TE3YORRbWN7YN8eLF3o9GVb3OZDUinR4Ip5Ov0ePmmyl859Vo49WE1/jTVBMpfSG9i36feZH5Q511VVTDPu5UOV9ffWsNnj99vWw1hpZW3rXycJwY6BBW1epO1fQpg3q9AROT02WrYVSEdy9twpnz9s2QUE6/vjpyn6vVUMk5EGNw7Mp40q4xusTDWf3ALUkfJFmHDDKEeX9pE/7wR+M5h7SzD2SYcMzvfmT1IyfLeFLJs+stozG7Z7/tODd6OHthE158ZRlW1tqb4FAdce3y65yw14g6Nz31jw3LyHPpMFgnSm4ahyYiQ/4RYdK6t/LoxVeXi3sYFYd+9fQNuPsaNvwQuYcq3dM2niHna1Nxp8891oThdJD847CRcgJG+nBCn8RnXdmGQYPhB++sw7PfvArXVprbRS7VkGeqMqi8S1Wmp/o7VGWo+pvITV13DB2lEFYg9AhyALi22oST37wKl66O9m5ziRrb0ElWGBh/+AFxhoBqDDl/WLakL/7N6YCXRlFpxfFjnSj9uLcj6jflj5OF9dLETenbvrazrgwN65sOvv7ta7CxsV2AuCqTpuPukJvrvg+e4it9+dghuV3+nK7KpA1L2kDiOHrCtWkZ1jhvxnz/zE4PxDEZC72lpPPgHJHZrvuBdD1wRxQs9FC5B4kLS0e+65XfKbD47cMhd0cUXofyA8WfTifOHqqidKUvIvInHU+EwjpCL+yOnlPXs0Hhk+tJO+vKUBKfl/WjVfb9BFLu1D1ch6jfnDwgRsK4+6Hx4fT4jFXabWWtCf/2xasjf86VhoYmYzVwcqhrqRBq3X3xgZAGyt3nl7oOrRyU0em6JgJq0+DLu+Rvq/cxTQxdURWW+1IfDsd9FU+Sg+PC4Si9uHBSnIDCc19AlNLJ6YDznMs7Tb5R+uO4pftYD6wnlTYqf/B16+9rb6/BynoT7rxtCg7uHexJBVpDMyjeX9qEl15biXseZdUZqVxRfrGOOE5f3ZTKsJ1bMUbU6w2Ymz8IUb1OFnLqjYsaBuDup2VQn8vkjDwVjhpl9I2KSo2sxihwecKlncoH34HR1MZSyZD40kjBpc13n5tObDqANxY34n9/8sPT8WbDceSl76/A999aI8s7pt86w4WV4uFeHELrjFOUoQQzIGMEPusKF3KqwfTN9XMVRfNmKDVu0j2NLpprnx8pPq5x1+royzdOL6kyU3GFrDHR6PHdH63CZCOCP/GhKYUGo8H6hoPnv3u9Z59H6EsG5Se0/vhexjT+JHmhBqyADQDa4moMEnzWFYWmgS2EESkamZNRYJUpImtP/4g+rmNUOf1DfpNgaUW3InWmwWtCdba1lGVEOF2zpCFPtHnpG2XP4r497zEzu08fdR6EyvMlKVReP+nhxrFCHl8ooVUmr+eVocpsbDj4D9+5Bjfta8CtN07ARz44CfW6r686XFxbacIbi+vw9nsbcP7yFj/p1U8ZC5GnHd8acJ0RhrBCOsv9kGfLVdXeT2iHUvIbnsbdM/MQ1WphYzL9koe80LGBvOLPOi43SANdgSrTeitv/fvh2XU4emQGZneNxokGb723AadOX/dPAORVxjTytHENuM4EPfFimuGyG/fBM8gUx2ddTUyPYzZXixHO/0tXt+I9Ea+fGf7vYJx+fRX+8x+2D5Qc4WeWF3EPxCmWWIKwyoXyh+9DwCAOpQclh9NP6gVSenBL47g0SGEo3fF9XxguzzmosEm4+Kyr2mi8GRrV5fpqE37vj5bj48xbvZH9e4brq5Yt49fS3fZ2hLG9D8QBONSaOaKld6hFJI+mTtyjVPBUa+koSwOp+9Adr2PWPYo9QMaaOYfiQd47G+8iQiZ06+Gov4B0JPyndXLQnfau9ONwnMXEfhM/tRrMztpxJcZgaTXA//6lq3DLgQm4aX8DDu6tw/65euXmSLaaDt5f2oLFS5vw9rsbcOmafRc+C42eMT7pNd43vkaNGWpe5yn/nDzsl5qIotKBw4esb6TuhY6HO2FRttTl8MXH5NHsgM660vbcpLBa936RerWc/6x6hISleqNSD5eTPyh9fTSb21/lS77Mt2+uHu8due3GiZxi6I/Tr6/Gp+dK+VskmufrC6t17xdfnemdRC9yYkgjO8S/FJ/POOQ1vqmNTxtniH6Mn0ZjsmM8JFspDeP53JLfnGzJxqfjx8mImKFGamiTc+fg7vnkUO8onMGk3lO4uCh50uOnGh4pPdxz9A23Yr1AGYaTcenqVvyxpdnpGhza34iNySAn3JPeRsugvX5mPT7jK1KUh7zqDHYHIZ85pOc+6DqTlmEbCUeQyaldbIPv64hRv333QXCTKkpIeK075+YD55FWfsj7g+TGNThp+T4Dg925tGh0kgYLJHfp+tpqE14/ux4vj73lhol4GXDLoOyfK2a+5OLVrXi/yg/eXoPLy01SL27AJc86I7lzboDiDwlP+ZXKju+FhCLxawZkxKi3eh+75jrX2gY7S6PLycp6Pw/6jSNLJcoDX0McGt8g8kGjM8VWc3upbOtfi6mJCPbsrsHMrhrUaxHM7opg1+T273od4p3vrd9p1tun4K5vOFjbaMLqhot/r6w5uLqyBVeXm3E8/aZzVOpMUfGYARkh6vUG7Jk/CLX6cK2AMcabtQ0H71/eiv8Zw4Wt7xwh8FlXhmEYRWIGZESY2jUb/zMMwxgUjZAVByCMlWlXF/jcpElf7F+jE7cCAZSrLbT3NStSQJiclFZMUHqnaSRnXWkU4BJC/cbhJZm+WThqlhg8D5KbWebkA5KpCeuTifXTFgycRknnLHqGFlyqQPnug6LwcTpKz5ty8y17A+I+V2mkMFhX7nlpygUXp6ac4LCa+/3UGU4WEDpr9Us+aUvKdb155IsfO2iMBwQaD0Bp5coLt1LCMZ+8jNBfaqKMW9KG/QGRX9gd36eu8V9H1DVIn3WlUYBLACgaPkmmttJTsrjCpdEfy5MeCMZXQShZvoLRV6UR8pFLT4T8SunH99WVhil8XKWh9PM1Bvj5UXkqVRpJHpVWKi1S+eEMHJdOTg6Oj4sDh6X0k+qMtv5xaZZeUFJ/GzhSR2SOIxLoiAfXsxsbKYB3suNCnd6t7XBCIiI/XI+qHf/cDva0PO6ztDitXTpFKH4q/cCkEzyFWXqAOO/b1/VaAyYmcz7rKg9Z/cjQGql+CTVQIff6cct6P1SWFFbzDHyNpBSHL6xWn37u95N3ofdD9ek3fs2zCZHHyN2ZcVV0V7oEaLpTWC7XeEpKh2ZElooQep9765Hi16YzRB8HsHt2L0SRTWUZhjF46M/TcfjeJnxhIAfLqCVLIx0qN/QtKWs8BBHUYHbPPpicniU7LtphaxxOupbkce8TVAdME59PL24EwJdWKV5fGrRplnQNSQ+nI85X6S+nL+XO3ZPel7Txa/XjnoX2WXNp0dSH0JFTbZ3RPI886wy+l3edSWNrPoeUmbl9MEmsuspqn7UdqTTckDv1O4v8UHdfQ+yLN/T9KEvnOcv7lJSfvr+cHI27715I/KH6afO2X/dQP5J/TdkaRJ3RyvPJ0PixsY8hZHu3eflLdkMr3CDiLEOnccHytn9GLQ/NgAwhU1O7ylbBMAyj/T0QYoyQutaMz2nGe333fG6UXhjNeKYmTt+YrhSvRpZmDD4dHp91ZRiGURZdcyDcmB1kGOOU/PjuhbjlPebJGQncqGcZF9eOfXLXNTvryjCMCtEZwuqnIR5VqAZ9UPlBxbN7SM66GucyMygsj/0MUx4Nk65pbA5kSJhGZ135Vu+EFEhsGDUrkKS4tFuKsuLr2UrpweF8fik/nD6+1S55vqThodysK2xC4y/Kb5bwvvvclrN+n4N2NEYjI2GQdUZTxn11JoH+IiE3IYLv4dg0O7F9cn2TB1qdQpBk+ORLeRKqFxOmXp+A3bP7xOE1KjxbIFP+uPXxLuVA7rAHf1ycXl1uVHnDihEyklMEorYM/E1/EL6Bn/YXRTvH23T8Ms+Bc987OwG7phpw6cpa/G0KwN+nx/nEpF26580zfIpEOl+kOg1C/jA4RgYln8t3bZ3xGhEun6DXPa86A5IRoeqM9Lwp1UPb08A6g+tG1/NSPrtEVoNUSjKpmlcxTVhu5wxliimjks40yehQ11QYbfopeVguCC0zDk+lC7ntnp3f3m2OHy6WK61SSPuJmEaHC0fpmSV+nDc4733lh7ju0R/785QT6ugeMl6sc1vO3OwE3DC/vSpuZtcEvHdpGa5e2/TXGaSf49JI1Zn0PV8jLqWPW8EB3Wns+k39pdLYT53hnqlURhTlLa86o7K2VPuSJX5tnZFeEELqLQ7vqZM1UimOft70qURQmetrEDh3yXjg+6FxaP3iODTp8cip19tnXWG5Wp0oP5oGm3ur88mmGlocXmsofBUByw/Jb21ZFhrIlvG4cV/3kuob9+2GyYnaTrhB1BnKL3YLNc6S8cHxauuNts6EhNfeK7LOJITUGaqHqjWklHxc/qVywYWh7lE677DQOweS9SFViZACneWhD5BdM8xZVyGFq4j72nD9lplB6Rnob26m13gk7N87pavAVUL73ELTU0KdYalSndEY56yyi6LXoCw18EsH5Q+UxldjpDl5/cStjZ80+s4ffyc8cfS9Ji7Kv/d+VIPZuX2V2HFudLNndgIO7tvFlrfduybgphsALl1eg/UNxYe5R5kqNHxGIbgm6oGE9EZ7hKG/Wv+auKmOQpb4cQ9P03v2DSVKQ9DSi4XvJcOMRzWZndme80hePBwzdDAzPQG3HpqFuZnqL7s2jCxEUXRavYy37BeJsuIvagRFCtuoyFlXRjct43Hj/vawlbQaxu38Obi/PSdiGCOGc7VT7ZLN9QekmZnQ/goVlntH9w0QSn2V0D4IpwenAxWGyx9OJ3mAedLOuqocs8mcB/WoOdqPft+eqQFoaBiDpe5W36zpjQJXYyhj4zNAXHgcj6QbF4ekE06LpAenAxWGyx/J8ND6NRoTMJ0668oRuqbdqPvpe8l9/Jv7i//DYbE/So6kh+SfilubNkovKT5tvrb+7iFWW4Uws2sCbjqwK+6JSHnF6cmlr990a8JJz80XHyVfG78vf3zlXnLrt86EPh98j/Mj6cHpnqXO+J6BJm7n4NSpJ29fsAHaClGvN2Bu/iBE9WR1tYMIos6Di1LjJdyDxf6lCpz2i8NgOHeuEQnRA8ug/HPxc6TjxmG5ykv5m5uZ7Ozz6IeWEensE7m+oYofmLyg/HN5RqGJl8ovqrz4jIgvDHWf0zMkHVL8kmyurCZ5mUed4dKhrTNSXJo6k7jj8oHbmXR82C2C6Bmwo0yqxa7UWVfSW4yEppJIsnwNgibeUD2yumn0kwyXL46W8ein50HR2SeiiF963pp04TdJqsHlwmr0CwmT9fmF6BBSbkLlu9R/2J8v77VxacupVu+86gzlt+Y2ngUzIAURXs9ganrWJs4rRBHGI2H/nmmvnyyNdSiDiMPIhyo9K+dg4dSTty9B5yiTNNqNHMAf7+ANQ/kJiTdEp5B4Q9PuPGGUsuqNifgTtQPD5bBDukobxHJm72w+w1YcM7sm4NCB3XDxyqrtExkGrL50cfntb51MfrM70V33Je3NpQ6ig+5zhRz6h+VTTo5xw0FIuambzhGyHC2POguJ1T3t7nbCU3p05QsRPk181lWtj84gVrgnkUoZ2nv4+BDOr6QD97CxXDJzFemTZFEPpP0vrzkPHy0jcutNczC3e4LVhcWXx6GVRsqfkGtvpRH084XPE0pfTZnTuFHueKl32XVGUw4Ev5fPfOtU8ruhKaeUH985bZwsNrzTH7+DZVBL8jWytGe3acsJdtPkUeesK8cE6qdnpskAraGh/Ptk4/shFYJyk46d8eWRr5EseNiK48b9u2Ft4yqsrxM9EVwOsJvmGeZVafAz4OLJq9LgtPkakFB8+nF6cnmkdefiL7LOhDTUvrgAoOmaLyS/M7/2hpQPrT+NMaPcpHz06SD1LEPKZ8iLRZrds+isK18DkCehskMzJEscCdSDkRomzr+SudnJnU2CA0YzJ9KTdk3+hlQaTr5GZsh97DdLpQmNJ09C86UKdSYv//F998w7Lz61lFyO3CR6kW1inrSMxtyeA/HkuUEwwAe5Z7a759HPS5DPHxUm3idyg+1YN/qk4DrjHJx648Xf+HzazUpsSfRz1pXL4WWlbIrQO0uDPjcz2TkYkctXX377XuapkTf8r2VEPnhoLt7xHqJ/FvptZ/JopzSdizzLiNWZ7DK3/biFTdh8ON37ADMg5ZCcdUU1JL6KlR7aBOVID9ewARGvpifuG3Xg0kLpL8UjxU3pTM1VSnk6O7M9bJUOz02zSPOg1FB95Hm2+Pklf29kzs6S4sN54XuW3BoITgae1uCG1TVGFuvgQyqvedUZSX+uHHP+OX++OiP5K6POpGn5aULt+ItP3r6A47Gd6CUwOdV7FLg0X0iBw0t+sEyuQPpkSjI0YSQ37r703R0cxrf+IP0bGw9KrnQvqzu+Tz3zfXunYfH8slemtlHioOa78e+si2W0RoQzLJThwmHyrDOUwaTu4zKoNSKSTOk3519zz1f/pTrTlf/Onf7mk7eeoOItrQcS8uCHGZy+etz7mOu5lyUftJUm5F6oHkU/P22DRd3n7u3VTJiXWDDjfSIDmBPpt/xk8ecL08/zzhpniJ+sxaLf4lRUvJo6c+mdb/4qF74Gyi4U9qOtuJS7E8aFfXFS7lw8Pj+UEZP8cv+o9CWk3wBq9QbsmT8ItXqdiMUYBJ19HlQhoR4qMA/aV2mkv9LvNvE+kUNz8ZcPDaNEPvfK1z79de5mjWwwXfffjnvqN9f91TT6PX7djkwg4uhVUI43fd+3tJrUR2nxqbFkLv0tv7tTZ10Zg6dnn4fvQUtvStqBdE2lAf7tRDo7yzAKxcHx333i1qckLzXAxqLd2jknDKA55N+lvswGyC8oXt1hp9F3aZk4LCUz5eaQrs4hg+LQF+Q4i5KS1/PFORwfpyPyP7XLzroqk9w2CWp6Hly4EP8pVPtEDCNHIuee/N0nb/2yz19ybjiwf0MrjNQ4c36la018UlifHlJ4Kn7KKHI6tu/HZ13NDvCsK6OLvbOD32GeJzO7JmwoyxgYl9/+1mPfePK2z2v8Wt94AMxIZ11lfCtVyepX3iDQ6qwdV0QM6myrIrm+stH5hoiKfp+5Nrzv5TCr3FDZ415npJfj0LQ4OP5fvvbf/l2tdxuQL5ius66oNXNpcG9JWlOL1zNS/qk1sFg+EGGo+5Jsn34gnMGErzV5gK9x2HaYMs62KoKLV1bp/NCsudZuHqDynyoLlBypHIWeEYXX5uZVZ6gyQvnX1BlOL6p8S7J99UlKO6cflwf+OrMUOffwN5687SQEYAakYGb27AOIhE/Pp/7iMqEhDuOriNA+rJKrfJybUPGTwy+peON7DqWHG1LkKgHnpvDTin/PTL5nW2V5NnnIfPficvdBi8zzIWWFGH3hTdW1/8fqKskLLdvYf151JuUxuM5Qee7Ri/LTVWfws6PSk6HsZwy3uOk276Y2CvrwGhCunksPjTLAmodMycWypPucm++aCqvxI13XohrM7T0AE5O7O25aXM8PyRPjre3Y9UJHeNR2crjIuPtcPeP05Dz6NktSxN/z2LfL+zIXKpd6iQuR4XsxTN+/vrIBFy/rvxeieVZZEuyz74HivMJCNwdq5eJ7Up3pcgpMdJQyuAo1SDd1lP0+EIBFADj5va/98mOX33nxzSwCGiD0hiKmRwno2jE9VSp8Gq6H7IQRDqwf58YZAEkX7IfSx6dDcj03f3B76CqQ/stEmDxlfct0Pw9C44jnPIhhq37bUop+DRB3v2U8qJ3oeepSttyqxJc3VagzGhzA8d9TrLLy0aAa/fQ1/u37m8ANaYNHPnctuWv8Un643qkmPF7Sn/7bmJjKZDyM/pjLediqLFo9D8MoiryMB6SHsEK7jT6yyunXcGQaKsr5bXJqavgbsWFjVIzHexeX7TO3RmHkaTyg9El0aaKhygh6t3ofyVlXxmBI5jz6p7wCGTrnYRhaHMDC2y8+/hhA9OzbLz6+mKfsRjqWTLPVEDDbjMOEhJPIu9770sX4rzcasHffjd1fGDQKZXvOAw8XZi0Q3PIJaUZNWnKhqzRZ5jwMQ8npt1984v63X3wiV8ORsG1AqPErbnwoXR/wRAB2B2aGnZKH/UkyqWvpXgjaZSeEfrN7DpjxGCDbw1aU8QBlAcDLOHwzdtI6KmnwVa40NudhFEHew1UUjeCGV1MvNTPiWqMVIlNzz0do2Hae7dq9xybOB0iv8fAtk/AtovU9eK5yaNx52TbnYRTAooPo/t978oOni46oew7EpX9ou+Ta+5phhSxDD9zYG/XG6FvkGyJ/x6kxMQm7Z+d7YpWWPGdNISWLu0/JwM1pv085j/Tge+CRuXd2YmfYinvkUUqaS/3WZliPYtxOOrxjEqWEkb0957EGaxvNStYYanl+TjWG9V9WnQkZoAwZ4OT8FFhnFl17X8eVjPs6Qmn0qkGo1VHfV9SwHMqN8oOLKCWPu8by8G9qPI2qHhJUuJ17LeMRRVHXHZySiEmtppDi+9S7rW+AhfvNPQnO0HA5ScmQniyX674SNjsz0f09D6n4UUK51pFSjks0zkQqXuGBX1vdgMXzK2yNkaKhRGLVpHs+1anyo312VDifva5CnaF+4/zg8ogrdtTz4+oMlS4qPzz17Pg3Cx6uomg4cGwd3HZ3bXeHHlzv4+gtqK7z/6gjLe2HqsHAyHM9UnVvB64rNjkOKv10uOT/9XoDGqmhK0fYN65Nkxr/jltKQbLiUgmg/Eq1OK07dhPS4Ag5moZJaoDS+Zfokzi1jMeN+3Z1R5l0AFyvHLbxIsJ0OhiuO++7ylbU/e0aqWLjoynSbq2eB5cPLq1P5G9oevKVKi+tNBFlhCXxj/Kf01kQw4brqrfKMlxknSENY8Y6w8bL1BlQGCoq/1K/C5/r4KhxDwFQoriGhCrE2C0xHVQTjP3iOJwg06cD9OhA3+PikBrPRObs3hs6vY9O5nGV1dFp7LlOGh+mcPYoASn/XLza2kcpJylM1TxfK0M9BEjJI/SZaxsP3JngxFMNLX6eYgNONNLYeHBqY/3Sft+9hOY8OI9RtwGg9COhXn2l7gfn7isPVDivckQwXwM8oDrDGo904fH1WNlEoOvQOiPna2nGA6id6KB8/pr0+/JVa2F9YblwWeRz9DQY8VlXN8DExLQckU9Ql9DsldErn5OrzTDKrd8MVubV9pzHLjEarbukQmgZDIknnvO4stZ9MCIlVNsYaQmVF1IeqHBZym3V6wy+DikAedWZVDzOwcI7v//4Y1tR9OzZnPd1hGKn8WZkz/yN+a+6ytpIjDCtnkc+mwTLY3ufx0rZaowm41dnTr/50hP3n/39YvZ1hGIGJAN21tVgiIetRuB4kmTOwzD6oeng+Iv/W3nDVRQNALcAEB0uW5FhYmpqd9kqjDyjYjxsn4eRA4sbUXT/t58qfl9HKLWL3/vndwE0nxPH8Bya7KP8cNeasNpxREquNo6QayFeO+uqePbODr/xuL6yAW8vXoOr1zfLVsUYXha3AL76va/98se/PYBNgVmI1yPc8LEH5/d/7LMvgxN6Ir4F4L6FyuBZtcCuh0QrNbKMeVILySk/Hh3rjQbMH7jZjispkFHoedich9EvVRyuoohbwvPfO7FUg62jAG6BfZF3XX96X/gd+ulSfoRehkP+0+FxQ+4cEY5QoafTRKx86HFS9IRm99zQ+TxtyAIVDt8KoiyyfPJCVydpF+twnUFKF/zskt+zI2A8gJjzYOsMui/5wf59MrWys3bktWWUKgv9zHv70hAqi9JHaleyyKPkSvm+BcNhPACvmL7zV54/3HT15117TkTT6QDCT9GdBSlcljDpa2DC75rZAzNz+716hehRlJ8Q/ag0azqJeeVBQqvncdMIGI93Ly6Lw1aaDnAo/daZrHGFyAgtx74BiX7jG3Sd8T3fzpaTIel5JPRsubnhYw/O7/voZ/41QO3PlaNS9WhMTMHe/YfiDYNG/uydnYCDQ75U91r7bCubMDdCcQ4WzlRkX0coZIu4/6c+c+jATz78KgDMD16l6rFn300waV8ZLISk54HfPLkTJPA9QG+t2J2TB/ymd1EWEG+e12zOw8hIBHB64fefuH/YDEcC+0r943/jm0dgq/n8uBuRer0B8zfc0l/vw9cCSv4HjTbu0DQR4bDx0KJZk5H2m2V4J0SXtxav6XsekvWSwuRZHjh5oe5FElK+yqwvIfGjNLkhmuvgYJcT/fG//MRpqNeOAsDSYFWqFvFZV7h0aGctE6SziDQzblSYUB3wfW42khusxTN+XOV2hHxCVrLaKuvkZ+jEps9vhP5KftK8m+zzoNJNKeLLXwlu1hX8+U0mJGSyBMuj4tL8psijznDlWbqv1Q9yqDPQ5W9xsxbdNezGAzR2c3s466H/CBB9bDAqVYPkrKvJUdo0WMQreAb2zqHjSbixJi3S+Bd3X4pTGtNq37u+7DnbyhgN8q0zi80ITr76tV9+7MqZwXyvo2hU1XX/xx4+cuCjn3m5CAV89bcs9u47lNtxJaHp6WckIc/efpaeuc+9s8/DtwyGWnaDf4NQufNYYsTE2TIeyZxHGaM+Va0zeTJqdcY14fiL/3j4exwY1Y64i997+jRE7mHcI8M9WeqfBiwHtw2SXEonSR+qV4vjb0xMxd/40PR6qd48Dke1dZxfTrd0WyqliWoDJRmUPyCegzSCgOPEbXzi1rXPQxpuwBlE+fEVsCxvjdyDQHGm93lwoztS3uVRZ8DzrPqtM9Q1JV8KL+kryQNFncFyuboRCflN6UbpJaVNU2eaI2o8QGtAWvzxv/rUM1HkHk6u8YPtsbpu549U4IggvYWm7cCusnHo2pMWJzRyLfCwlVTBNCuCqIJIpVOjdyKbi9cn01dRgKiQPn00DcMo7fNYa0+Yc88yDWdIQHirlQyA7y8XPwSGlxpKqs5QacBp8elLGUHs1yeXkoXdQGgntPVQW2daPY/fH1HjAVl6vfs/+tDH9//kZ38LIjjckZAuWfiJSdf9QA1xaMMIbq3ex559N0GtZseV5IXt8zDGCgcL77z0+GPNZvTs2W8P5/JcLZmGTff/5MP37P/YZ07lr065bC/ZtbOu8mQUeh62z8PQEgGcfvNbT9w/6oYjoZ4l0Mr7p9/c/9HPtH7em7tGJbJn341Qb0yUrcbIMArGo8XihRXYaubVdTZGliYcf/Ef3frpq2e/da1sVQZFXws37vhr3zgGNTienzrlkT7ryuifUTEevrOtDCM+dn0zuv/b/6SaR64XSd8r/+LhrI9+5pnOnMgQYmdd5Ut6zoObAqN+K6aoevwn4BUwPrmUrPTf6zbnYfhZbDbh5Gu/Mzr7OkLJpcUc9jkRO+sqP7J8zyPr2gqtweHuc37tex6GlxFemhtCLrPFF195+oVWhuYha9DU6w37vnlOZP0YVNbZBW4ZpjYM59e+YW5IjOqmwCzkttzo9a/9mS9H4E7kJa9ftI1SMnTlCpwjLVJ2UVA6Y7f09Sh8SRAU3zDnnmXWZ1ylshGqy1jWmRHf1xFK7oP++z/68AP7PvrwPwWIDoEwTBAy1FAEtagGc/M3qnofydRIkYW6FYck33df4z/tFipPYu/cCO3zEM620uSZ5Cckz33Pr8i48wDXmSLiH2CdWTgzJvs6Qsm0jFdi5f3TrwHAD3fdeNev5C07T3ZN74Hpmbmy1Rh65maHv+cR7/N4fwW2tqr62muURgSn337xiaNnXnrihXFanqulsGVHP/bL33geooL2ibReE9IrpvC1wk+t3ogPTKzXG4WoOA7ES3UPDLfxaPHWuYDveRhjg3Nw/CUbrhIpbMv11sbmX3EOttdFtxrvdN8wucb/uHtYBjemlA6T9EfT1yl/zc0NuHzxHGxt2Rr/LAyt8UBF5t0L8pyHMZYsNreiu8x4+Ml9CCth6bUTq67ZPDF94Mh5qEWfjAAmi4orK841YW3lGtQnJqFhO9DV7J2dgBsPoFN1s66pBc9GD9+aWykuIXxyPMnK6pYg1BgzFl0T/sWrv/PLD73xn77w/bKVGQYGsnPu9r966pFavfbkIOLKQhTV4s/W2nCWn84Oc9/3OELRfA8kJ/l2tpWBseGqbBTWA0nTqLvvT8eT6lFFv6/uYH1tGSanZ+wUXoFROZ7EzrYy0pjxyM5AWsvz3zuxNFFrHoXILeB7IRu/ODft+f2S3+bWps2JCKSNR2jT6/t2g/QNBiqs71nie+nf73r2eRjjhRmP/hjo4U83fOzB+bmPPvxI1Ix+FSCqxPbvnpGTeH/Iwc7RJlEqixy4rmufG3WPCuPaGlB+Q8Gy0nGl7+HflJ/ken52svsb5gVS1P4fzdlW+LlReSTlL3VNuUthKB185SLUD1XeOJ24MsPlm0+uNv0+/bV5Q+aFg4Uz3378MWf7OvqmlNMDb//rp45FzVpljz5pGZF9N9wCtXr3CJ9UiRK4gg6o0WHjJhorHDd1rZEHjBGh4k3+7pmZHPp9HsnZVlR+SflINXxcWC6fsSwpzzmdfA02J5+Ln4uXi7uf8qhp6EPzzZc+Uceoefqdbz01Nt/rKJqBzIH0ELnv7qr4nMja2jJMTc9AlJoTyaOHUBSUblojwzE3MzkScx7vXliGzSGY8/CVL9/zLLp8ZpGfl065yHHR8Zf+0W1j9b2OoimtRTz8K88frjVrz4OLKnsMfLzZcP94bjYcGeMRf89jo2w1jFJxi+tbzftP/5Pbx+57HUVTTg8EAJa+d2LJRe7E9E1HViMXfXJQE/ohdPaJNCahUZ/ItnQ19Jvtkvx+v/+u9Ld3bviHreKluheWYWWF2eehyR/qefiWF+OPlYQ+L06+Zp9NngfM+fboaCn6MDwxn93ilnP/4vu/8ysPvfWf/ifb11EAlRiTuf2XTz0RQe1z8YUTtML3JL9SuEC/8T6RAzd390SKPu2xJOZmh7/nsX221XK2wHnvPxk2imzwi3gBYmiCO/6df/whW11VMKX1QLpx39118Gf+FkQwnfmtqn1yiddOSPIi4rfbXraxvU9k90jvExkF49Fi8fyy7fMYY7Zc8/gf/O+HzXgMgEq0hkuvnFhsRltHwcES1bjjNf2OukkYD3IPiRPkuW5/ybXr7BNZHNl9IiMz52FnW401rZ6HGY/BUYkhrIT5n3zw0L6ffPgJgFrnKPiqjSQk+0SmRugTuHtnJ+HgkBuPa8sbcPHyqhmPMcSBWzj70hOPbTn37OK3n7LluQOkUgYk4fBfO/U7EdQeKFsPjiiqrd5w6LZFcFDZFWRa4p7HMJ6qm6JlPBbPZ5zzMIYcd/qt33/8fjMc5VCJISzM0itPV7oL2nSbz6zXt45CBF1Hs3DHrkhHr/iO8KD8+I4CkY4GSZMYj/RxIVwaJP2pa58OmjygwlB+Wz0Pn0yfLlxYh/z4dJWep6RbSB5QuoXIk56x5vlTeviuQ3XRPMsmuOMv/eMP3WXGozwqakBOnHbR1sNl68Gx9EfPfPX0k7cvtIyIi2ABN/bp64hx9/3GqxOpCu4zTthf+h/V80DrBoIbCWqxW2i6Jf9UXr57YRnWNppk/nGyKGMQeXTj4pd0ptxx3lDxS/8oPbmVrCE6ApLvez5UnNoyQpVp7fPYvnaL682tu2yVVflUZBVWLy0jEkHz61MH77ojgmpsNnTgTi390dMPLL36zHdb14svPrXUrDVPzN1y95EIojvK1k/L3tnUPo88J5mE72/k4j/F9pHsy7Bs3/MYG5rNZqvX8dUfnLR9HVWhknMgmMN/7YXnI4iK+TyuEgfu+MLX7iHfeA59/JH5W//Uoy8Pw5yIuNqqjwadlJGn/9Qrb2I8jPFh5foVWL62BD/6158cijZrXKjkEBZm6ZWnSz14sdXz4IwHtHsiG8ScSNXwLtXF4w1ZCA2n9Z8az0jmPIzxoGU8rl+9GJ8MYVSLITEgz7zQ6gF0HLSD6L5BaCDCkvH7DdjpJ29fqLIRGZl9HvY9j7Fi23hcKlsNg6GycyCYlhEB505NHzxyGFJzItIRQlRflxuhYUZSXrv8ym/+raVXn/m6Rkd2TgQLznJcBLdLkjsjKUXXnMeQ0jnbanWLf+DgOYsq7SYVjhBZwMyy4zCas66A0U8TDsepOcGB0w8j5UHoPBeOk7je2tqElWuX4drlC7C2er1LzNKr1V6hOW4M5Xji4b/6wvMQ9c6JSOfNBZ9959xpaDaPLpw8uhSqXzwn8rOPvtxSVfQYonDI4XypsKNwPAl5tpX2sEHw+NMYc58h0RoJSc/QgsvB6RD60iKVNy4/uLe3gLRtMSc+JF4XfvtTQ9lmjSpDMYSFWXr1mccod6qsa0avAI9gObeU1XhAMicysXW0Vd5FjyEKC0NsnIxRGba6uETMeVD5Q/nx+fMVDOAKiccfvic1yFkKLgengyad2D2o0hC/ORmMTsvXr8Cl82fJ44JCs8EYDENqQJ7+OoA7UVgEzj2Z1XgkxHMiGiNSEKOwwxwqeLZV5oYsIGC/jWXejW0WeSFhms0mLF1ctInyIWRo5kAwS68+cxLAfXf64JE7AaJDuQht9Tyce2zxG4/8+ubyu32fmhjPidR35kQCR5/Ia597i/nZSbixROPBDaWHkBxPErLPI48VxNKoTN7xDwPSc8wyzZK+ds1mPMdx9fJ52NxcV+ljcyDVYiTGEw//Ny+8DBAd6U+KW4Kt5l0LJ4/m3mM49PFH5m/52UdfjnxzIjmwJ9XzkOZiE6RFB755Wc6/FI/mb8t4nBvwPo9RbPwHSeh8erKvI7THYXMg1WIoh7AwS688/dX+JLhVqMVzHoUMN7V6IlsTW0ddwcNZLeNxY/tsqwRuGJoaknfE0DW+jw0S55+aKqCMC+X/Qgn7PMx49Icm/9LGw4arRoORMCDg3Il41VR2AScX/vXRQr+XfPrJ2xeKNCJzM93DVtxcb5a5WW6eNBRN3IsVm/Mw8sX2dYwWI2FAll47sbr0ym/eDc3m55xz3pM50YqrU4svfO5zhSvZNiJn/uA37mpG7rk85e6dHf4J82vLG/DWuatw9fpG2aoYObO1tRkbjYvvvwPXrl7seYXwvZRY77C6jNx44uEHnp939dob4GA+iiJuuXmMc+74W/+GP6KkKPKcExmF1Vb2PY/RBe/r4FYzc3s88WKGN20OpFKMRA8kTbz8tumehLTxiM8m7/5XlvGAHOdERsF4gJ1tNbJ09nVsbrS/Eb1dF1O9f9LdbdfPnXqb1GGjcoycAWlx+Y+ffipybgGSQphm27CcKst4JPQ7JzIqxqNq+zyM/on3dVw4tz1R3mwvw46ijjFIG47ONfUbu5kRqRxDuw9EYvW9765C3Z2Y3n9kFaJ4ee90cs+BO/3uf/7cQ1vLixfK1XK7J+LqzROzgd8T2Zvs86h6fRLWdiZHsq/k/D2PVhsTlTzIIelA3auCzlnAerde1uJ9HUvvqfd1hHL51WdsH0iFGMJiG8bhB54/7Gq1lwFgHhycfvN37rmrbJ0w8ZzIzzz6chR1z4mkX7iSijoKx5O0jMc5fLYVeklNfqfd+iEtD6A3HslPWgZAr17djWivXE168P0sMimdfHnnyxdJn7S/9bVluLr0fuFLc9/8N/eMfJs1TIzkEFaaeG+Hc0+2jEfkmkfL1ocinhOZ3B7OSk/VpGldj4LxaHGBONsKN455jVZQb/s4Htx4UvmvcefkYtkS0n2qTHCysT5UD0czquTTu+W+tnIVrlx61/Z1jCEjb0Ag7vY+/VTkmn+l3/OtiiSeE9ni50T2jMCpuiDs8+Aau34NSboBlIaVML4hJY1eIbr7jEO/SFMLkEqvlG7KgMY9j8uljwYbJWHdwYpx6Ocemf/An/rCb9Wi6L7EbX52Eg4OufG4trwR7zC3CfPhp9ncgpXlK7C+ch22tjbEs9uo0+59/kA46uYtG8KqFGPRAxkmFr/z1NK5bz/+6aQnMjfDG48su8pBcVwJFQd3rYk/OdvKjMfw49z2Cqvla0uw6TEeIJQtTTmjjrwxqoUZkArSMiLN5tbRfXNTS4faZ1tR505Rr2KccUi7R0J4DurNEcfDHZdSxtlWRv6sry3DhffejnsdXNnLEzMa1adRtgIGzV/++YP3rjXd/JmLTdgkVrqG9Aw4v9QbofQWKb1Bcn7tbKvhxzkHV5beiw1Ix61UjYyqYAakgvzNL/77R5qRe3KiDnDrgRosLjVhpZhl9T3k1TBcW96Id5ib8Rhekn0dK9cv7+zrcMw3ArzCPN8OAOGeFMYoFTMgFeNLT197qGU8kut6DeDQfA3evkD3RKqInW01/LR6G1fS+zqc58Aq7pozMNigQOoaz54blcXmQCpE23g8jd1bRuSW/TVoDMm5AdzZVtKEqgvo/YT0knzDbtIcjibOLDprhx99srl8y7KoIs3q8lW4fPHd+IuB4moLKmJthlLuVCZpxk2N0jADUhE445EwUR8OI/LuhWVYaw9b+RpialKfa0O4CXpqgUH6HiUTL0TAL8yUX04O/o3TKrWpvrT2fAKWiCMSdOXil+StrWbc16Fp3M0AjBw2hFUBkjkPn78y5kS0JHMe2Hho3uY54yD95mRrZGaR7XuZ9t3ThAl9IefiDM3zZnMLVq9fgbWV6/HSXIqQb/NrvjXPERKPUT5mQEoGz3lQpN+Qqzgn0vmGuWNe6UMmTEPgZPcLlhsST7qVo8bxqe6FJDs0jYH+XbMJl8+fiw0HFcy34Y8zVpreE6lPoLtRLjaEVSIt47EVuae5YRhuyKNWsTmReJ+H1FByrQg1/gKeMRfshuPj5ITEA8idWxXEjQdFwpgXZZh8cVNyuPyg8pQJv766va8j6XVIPZcshsAa/dHHeiAl8T+3jQd3n/2KYvtvy3jcvL8GZ6l9Irgxw/eyvLUzDenixWVYX2/2xouvqRaIerUNGavhXod9W6IpfaT4fWNCvjCSX208vvTgMz8EfeN9HZe693UYRhbMgJTAf/fFf/8IKIatfEzUAT54oAbvLjVhZY2R4YiOgdMtte+xQymH3M+2yvK6qhnv6HfsJAtlvHorugjkvg7D6AMzIAOm1fPwGY8Q6jWAm+Zr8M757Z4I92JKIY0ocX6j9JyHMTT07OswjBywOZAB0jYe7LBVVlpG5OYDNagTcyJa4wHKcWuHzrbK+rIdqldIXP3qFBqeyzfN6JNmpM4Xt+/+6spVuGzf6zAKwAzIgCjKeCTE+0QOFD+xnuzzkOZyJXfuPnjmhvF8s0Y2FwfVaOMpHo3eGHyfk4dlZMk3Kb/S/+x7HUaR2BDWANDMeeRBvE/khhosXsp/n0jonEfeb9J5yNTOV2tl+mQUMRWi6SXF+zqWt/d1bG1tdI8/UgG1myyoMc7kk7ecf04uI6sDdi9jXsnwYgakYPKe8/AR7xPZV4O3z+e3T8TmPIaH+Hsd5891Hbnu0CKInrbZdV8D0P7S4Tuynd5/V6/M9dqEiDASrv0/OxKrmtgQVoEUPWzFEZ+dleNwln3PYziI93W8u/29DlC8/FNu0vAcNYzGLbzQDClSKwFxOHzPqBZmQAqiLOORkNeciH3Po/o45+LDD6mJcmleCd+nwonx9tmo+8Kawag+NoRVAPGcBwjDVtQMK7fhD7/qSeHR34la9jkR+4Z59WkZjo21Fbh+bQk2N4iNQIZRMGZAcibueSTGg5uwpAwDN26g2ZwB/KtkPQqfE7E5j+qzvrYCVy+fh+bWZtmqGGOMDWHlSNt4yMNWWfr9WZcMtWkZkZDhrM7ZVpwu3DgIMAPfOJy0NhXLwPcoHbjxF58Mjf6+eLj8CFmi5SsT6N7aynW4fHHRjIdROmZAcsU9Eh6kz/vKcBPKAxg7cx7UrKows+mkwXVqGA6IE2mlhliaXUX+HaRWB/lkaGeFuTi5M2GwbCqNXHqF2eSk52EYVaAi57mOBjVonjh85yfPNyH6JABMSn5Dl7YTUxzsCBknt1YD2LMrgrUNBxtoOCv5DO3ySrFnxGdNdz8y0uEA2QpOTr9bD/LcuuCaW7CyfAWuXbkAy9eXPJJ9MUfgwPWxLFaTspCNJbpc2i7zEVx57ZkvqwIYA8GWVxfA33/68iNbUBvY3o9QtprQ9T2ReM7jfZvzqCLONeHyxXPxJDllSDv+hD0caf++zpP0giJ1toDpUHJG23eYJ5eeMyfvtTarQtgQVgF84+Sv/bMI4HTZenB0fWPd2T6PqrKxvgIXz78DG23jIe2b0Hz/Ku1OHQuD/abx7RPBYbgRTGo0kRs95EZOjepgBqQAXnj211cnYPNolY1I8o319y+tLHS+52FUAuccXLt8HpYunIPm5s5Euev5AV33pOkqHFRjBCj5Xf4YPTgBaf3x5wGoOICaWzMqhRmQgvjyw/uWvnnyH95dh+bnAOBa2fr04ODki//2K0dee/4rdwG458pWx9g2HOury7B04Ww857FzQ5j8x/f7/RciL6tfIBY5SOHA0/UxSsPGEwdA5eZEHJz8ymfm/kpyeejnHpk/9HOPvgwAh8tVbHzZXl31vi3N9XDmWZsDqRLWAxkAVZsT+cazXzmevl78zlNLAFtHAWChPK3Gl7XV6/FEuRkPY9iI/sn/fTXuGPpWTXgFMRNvWCbl79/9y6888O/+5a89219Sqs2xpy/Nb0DjeQdwpFRFXPTQVz4ze4K6deRvv3EYoP689UQGR6vnccU+9qTGeiDVotMDoVZNQMCwI+WPkjmuw5ilz4k4OPmNk185whmPFqe/evvC4nd+I8OcSJan6gsTIlMzWK51K55mcwuWry3BpfNn4p5Hy3iE1LlQrfutf/3WXd8Kr3FtE0YBOwtrgLzw7K+vvvDsrz/195++DAOdE0FzHhLbw1nw6e05EZfqiXALRfl1O669+Wtn4xp3OmS3f0pWEmZbVtRzN+rS0yF5VJMVsdszd+RFHc1ovWgdd8L06tx0W/ExJBsba+yeBymnfSMEOIdxblP3Q1/pcRgcB/WEHdIBkM6UfC5dRnWwOZASGPScCJ7z8JHMibj2nEjSHO/8t03yq/N/1+sHuj4+tOPfkRKhyyX9f0C/uny6tF8Xr/BxHcV2rrfvOSaeqDsGl/LvEt2pnNiRmZbbzo6Oui239bUVuPT+mdh4AGPWPIuXgt7mscHhRhc0C6Gov44wRlxPCu87keLVpNOoBmZASmCg+0Rc9NDvPvtr3w0Ndvqrty9E0DzqHCwA/iJc0qC6nXX68WXUu76/5c+lGlMHdCvj0Nfqun6iPQQ9ewOinS/rRcC/Wif3HNEaxnqi+OM+SpROS0p/1yOiu5Frd3ASI3T98gVYungOttBEeb/DQxjfbvGi4HoyZhBGGzMgJVH4nIhizsNHy4i8+wePx3MijnqF7Y2TPsQQ+em57wjDIL2GA2rI0wbKYcOAfnOv1FQcrvuTraJ/4lW6s6/j4jlYTu/rKJAyG2YzCuOHzYGUCDcnwr3NpZHe+KKAOQ8fyZzITT/7BdsnEsD6eobvdThmWobzh39TMjRhKD+SXpy89HgWJ09TuKn4jUpiPZAK8I2Tv/bPAA1nUePCaahzhRL30DkPHy0jEkVN2yeiZHtfR+p7HdpeDAiNNRdWOiGRm4TA9x0jC/ewfIaBCyf1JqVeZ1r3yLY9VxEzIBWg1ROZhM1WA31aagu4uthFxjkPH/GciBkRL3HPY+k83RhyDTj3W+NfaqixOwjh8T3cm6Di595ucDgOLm1YP19cRmn4DYjmwUlvWP3KHhO+/PC+pd87+Q/vbqTmRMSs6W1A+p7z8JGeEykqjmFkZ1/HWbh8YZHeFJi1jmT1nwXOmGTRIw99rW2oPA1vdxSPlaTdKbguL3g+NmB0zYlspveJUPkH3cbjsZzmPHzYnEg329/reDf+XodhjBvbPRCqi8gdzg+pa6l7zvnhZBkd4n0iDk5r8+93c57z8MHNiUiPMeQR51k8srwwazvc62srcPH9M6zx0LzQZ8Gna5a8zqJXP8+0H1lGdegdwgotUfbkcyeeE4l0+0QiKGbOw0cyJ+IAFnAHiRqepz5IxM2fUpvOgPDnG/bHOnFhqCLP6bbt4OBavK9je6KckkP9BmGemgurdZPeNbj4OJk+ub54pHyWdKWuqTJgVAebRK8o8ZzIs91zIl04OPm7Bc95+GgZkff+4PG7muCe83WWpEZD0+PQNCS+xo4Lo712zsHa6jJcurCzr0MyQpRuXH70xCW4SUh5HNIQc4ZbE09IHD6jzfk1qoHtA6kwnTmR3+yZEzn52GcHM+fhY/E7Ty1tAnz65hGfE9n+Xkfgvg7DGHGsBzIEfOPZ7rOzBj3n4eP8d55aWh/hJb49+zoMw4iJDYiv+w3oPtedtC5nMaTnRKJm9NDv/l+Dn/Pw8dpXb19YX2sbEd/4VOi4EnVfMzDvk6vwF/c8ls57FDKM8aShHcMF4r7PiGjkaf2MO19+eN8SANxVth4Srz1z+8INP/fIXYeOfP63arXovs4NTUEJve+T24cRaTa3YHXlajzfEbw81zFHfGTdRZ3ox52VTsnm4qN0o/z7rjk9ubSGpl+TRqMS2BCWkSvnv/PU0uJ3nvh0KcNZObyJJPs6rl+91Gs8fDO+3JIk7IbDUP8SfPutIHVIJDczLzXIlJ547xfl15dWrCeVR5SfdLqzvI0aA8UMiJE7508/tbS+PnxzIj37OtoNHnVKcKctc3y7CN1Bei64dt9B6iTglGDpZOAeWSie9E18H1BacGJcz7dNdtwJ7136kuljjI9L5ye67spzozKYATEK4bVnbl8YFiPi2vs6Lqf2dTgndxiAeLmXXpipDzvhrxBynQUuTiD8U3HjNGA/vs5BxJzryB0CzDX0XCcM66L9cqFRPrXeqpHlX0IeMoxRoWVEzr70+F3r66vvSI0geBrorO6c384/tK+D00uDpmGUZIfGyxkDzg8nX9PY+2o6pYNGf84vlWfWSlSTnPaBcI+Wem8xxonGBx948vLFdz+47+AtUK831I2M1LBp3SX5G2srcCXe17HRduE+aAHIjYud+pAHDu9zl3CCnlgHyh8VRiObusfFTcmT4qJ0twP0homCh7DsvWGcOfQLzz8DETzo3BYsXej9nGtZrK1ej78SuG08uI9uaPpI+D4H1ZBKs9jaHjp1X2qAqXiwPMWsPas3FS+noxQ+pC9jlInNgRiFkBiP5LrVWFfBiGzv63g/5ZK1geIad2pwiBvUomRq4g25x+nDhQkZNAoZlMOyQ3sUml6aMWjsKBMjd/bf/cQTaeOR0DIil95/B+bmb4Sp6d0D0yfe17F8Ne55jP6x68Pyxp5Fz2FJ2/hgBsTIFdzzwDjXhKtL70Hj4AfjOZGi2d7XsTgGhqM88uobWB9j+LAhLCM3WsbDtY2HNJjRdE1YunC28OGs7X0d78CG0nhIK4t8MwdYBnef8uMb7OJ0keT74tO+y2tmfnxLZbjZHRyGk2P9jupiBsTIhcR4UFO21Pc9mlubhRmR7X0d5+OJ8kQ+ZxyoqV8gdE9fc98roWRTbtR6JY1R4r4lgn9T8VP7THCDTjX0FJIRkHQCIe0hRtaoDjaEZfTNvo8/8YSDds+jXdPZyt9uuVpurcb94nvvwJ59N8LUlHJOhFud2jYc6+srO8eQMPO0YmOd0s/nF4hwHFKvhpSN9OBkSPGk0+/wNbOamE0HoQ8ZL+Ovk2Yhn7geDqTDGpXCDIjRF4f+0s6wleo1EbWCDppw5dJ7sL89J4LftHt+u53faVnr8b6O97uPXM/y2pr1VTfvV+Q85Pm6NdQ9lWUKiDOrnLzDGoVgQ1hGZrqMRx8414RL7eEsapiG+538W+3s66jGPhPDGBfMgBiZyMt4JLQa/5YR2Qw0Ar37OgzDGBQ2hGUEE8955Gg8EmIjotgnMl77OgyjupgBMYLIu+eB8e0TsX0dhlEdtj9pm6zMQH+T39K1Buw/NLxRDYo2HgmO2SeS7Osw42EY1aDGGQ+f4Uiuff8o/1FE+zGqS4jxyGMhTnqfSLKv4zKaKPctHOLiHvSCKem+tHSV2xuR50InzeIr3/JabRzG6FH4EBZlIMxoDBf7Pv7EE83UJkEN1AYyvIrKJy/eJ/L+O1Cr1WGrc+w6HY8vPp9+mjCSfy6c5oMGeDsGdsvSgPvyl9ogmdXQ+RC27hhDjs2BGCI3/qWds63yXsKv2jbimrC11cwlvrzD+PxnaSy1GxezyCoqnhA9zHiMFraM12BJG48Ooz6ekXWMi+ppe+733Avp3lGtsnYT4Kg+A2PgmAExSGLjASnj4T1nQhAmNXjUwL7vvhSf1r8j4gHisCZfo+ybxHCpMSJOF/zRPZwG/BvD6czphg/GCslbnC7q2Wnynrt2ngPHjEphQ1hGD3vvfuKzHePhe9MNGZ8IGdjX9HRC4guNU5MunB9SmFBdNHqE9Gp8aQs1Ij73fo2INl6jVKwHYvSw9v7p3wYHC2XrYRhGtTEDYvSw+vqJpfUmHDUjYhiGhBkQg2TpuaMLIUYkZKi639GIMkY4BjmCEhIXN/3gm5bAMqQRrtC0S1MwWbDRq+piBsRgaRmRKz945q6tJjyXuFHzp1SDQ80BS26SXK1biNzQfz7Zmri1+mXNn3QeUO6cXHyPk6nVB3J4Jj59jGpgBsQQWX39xNL1P37m087BQpYK3G+lDwlfZgOjibvsBnAQ8VMGKw85RjUxA2J4aRmRDZsTMQwDYQbEULH03NEFMyKGYaQxA2KoaRmRqz945q5mMiciDaDjv5rBfk4WJ1s7WK4Z0NfoLaVTM+gPTDyUrqF5KPnRTkj47mt0weny5aXveVD+jcpgBsQIIpkT6eqJcA1hmshzDUzjz/nT/E7L851qSDVqEbHLm5ODd3f7dJcaVs6vRu903NQOdUonLEuC8yPtbsfPQNKbC2PGo5KYATGC6ZoT4Ro9fO3rFVBIb7ahaOLThAlp5H1hi4RLb1E6FJV+MxyVxgyIkYl4TsRtGxHNCA03KsG5cXKoa597CL4RFiquLLbRF782vDQyhP3lpavPVvjSENKBBBvBqjTbXyQUKn1Ir5YrnGW+iBnFEc+J/HEyJ+KExtd1uUHquvfOzn+9criRnx3frksG5Y9yx+UUx9+tuevSNB1vdy5I8bguXXFeUOHp9ODahHXrzn8cgxRf9/PDOvb6xU/Nsc8D64DLSHcbRD8HoxrUHDr8EhSGgzMK2o/SUMPFxnCy+vqJpeXXn/m0c9ECVf11JQJQ6QBFiZReW6h4HBpQ5/TUysO1hvMrxSHVGuyXmmSgdKBkROhvt0EBwaDwMql0+T5hRcng8oV6ZtIEjlEGnR6IBPVmAkLz4KsO2ipnDActI7Ll4KjrTKxzDb5kCLjfVInj7mE0pU26r42bu+ZqDUXWWkM1vpIePn9UOC5erbGl5GlbD0lno2w6cyB5PBozDOPL0nNHF7ZclDIiPkIa0qLoN66ya42mAc8Lq9FGLzaJbuRGy4hc/+MTO/tEDMMYacyAGLmyPSdy4tP6nohhGMOKGRAjd7bnREKGswzDGEa2DYhv7lJzjQmZ9zNGjq45Ec1cslQWuHlizXy6ZuWHL25tXSiqzmSZJtHmp28uXdJRk+4seWAMDTWxMnILJ6hradGJJg5j5OjMibjUnIgDcOjZk9epf/GflB8H3WXGpd1S/jvuQJdL55A8TTmm/Kf0cUIdEeMhdHNE2rDMdJ6Jcafvp/IR64Td0uGSZ9CV/yn9qPyk5KflOhwHykOXjtfaicpRjSEsW949snTmRKB7x3r6L7U7g2vDAV1zL7jUMVCUTGB2nGjfnXx6Seng3qU4/Rib1ZWHXBoiIp+lY6YoP1w+SWnBfn17xajdIpEZj8pSDQNihWOkSeZEALrnRKjGJk3ouX+SseH8SoZAI0sKK7lxf7Xxh8qh7uPf2jT0gy+dPj2NalENA2KMPJ05EdBPrA+iQcuTKusGOehX9fQZg8cMiDEwWkZkGc+JGIYxtET/6Nkr5b9YuOhUBJEt+QSA//GB2YfL1qFopu94cH73jz/4cgRwuGxdjOHiwv/zX9uMaYVolK1ATOTuddZBThh5A7L6+oml6TseOlqL3PNmRAxjeLEhLKMUlp47utAMnBMxDKNamAExSiM9JxKyIihkeS+3NJa6xy211axskvyHrPLS6KC9lpYZUzpo/GsWNvjyziffVmIND14Donlw/Sx/zBo+T/qJxwp2f6y+fmJp5fUTnwa0TwTvWejaxNb+wTaaiV8n74/oxIM2yfXExYTFfrrkMY1hIp+V5YRGNLURj/qmTlp3rB+nt+TO+ePiURtjJn9CDbhRPqQBST88auMPfqh4oxOWQVXEiAiP4T48JVVizr8ENSsnFW6fXN8bGVdJx5WWEWm6aPsb62168pyZOk0bDMov3n3dJTwxHHiXHTDWInW/55kRO+ZxGN46onRwBT71XSgy3SBU2JSO1O8enKdcRkT2CFbEF5e60hiVouaYZyS9iaT9UAZB07BS8WI3R9e1GOr7bNQ9SbakB9aZ2w2sSQuVJ1ybNq7EcyKQOjsLlA8PPH6AkAXC1m0M3n6t1Yf7WCFXaTCaNPp0wddSpaF001YaLr+1lYZzQzJtN3r16OmBSM8o6z3N/dBw/egi+csSn5EPLSOy8vqJu5oAz7GWF5N3weL8hcajCUcZGO5+HoRUmjwqglWakccm0Y1Ksfr6iaXV9tlZZetiGIaMGRCjcrSMiANb4msYVccMiFFJlp47umBGxDCqjRkQo7Kk50Q0875pN3yf8ivN//rmiX1uvrl+UMxJc/4kmVw6qXg06aDi4nTCfqW8ksJyuhvVwwyIUWmSOZFkn0hCSIOUJhKWjUuNlLTK0KUWHXFQulH+sRunJ7sPBMlxQny+/MN+sCzKr7TwSrMs32esjGphBsSoPMmcCP6eSBpN4whMA4bvS0j3Q42Sr8GW3LPo2U8D7Itfk38+424MH2ZAjKEgmRPhjEjRDZI1eIbRixkQY2hI5kQcZPieSL8WoErjKFWzllXKG2OgmAExhor0nIg4A4x/A/JD/eXCcP65mWdOB804lCYu7D/rP23aKV2kvPXFwentC28GqnKYATGGjq45EXx6YYJL/cCzu8A1iqiFSvunJlnwTHVaAe6wN2+D6brvRUDrzxGl9Ii4xBDyHQrviDyEgMkPKr80xlDjZlQGMyDGUBLPiUTpAxg9rVPPqYrcKzAlJn3aYeqfcym5rttSpA2SN27grVsStstIEQ18l39KZ+bIUM4gkDr58s/15rdT+BXzAqfLqBI7BkRbv7xvcXI58P7j/HJuIOgg6UqFpe77dJB0l2RQehtBxHMiP/zndzlotudEpIIIxG8KXwHyhYUMcfsK5Y5MR+qpkeGrpNr0avNPg1SRe+87cKeVgo0BsW1AtPVLavi4cOkusuZrxlz549xCyrxkiLg65dNB0l0rw4xIZlZf/z+WVn/4zKelJb4JIc2axp163Fw4nz+qGFL+e0bNPGQpUqH6UX4LKcoOThUh1shOrbBGK8vL3zhRWC0bP1pGxEXrPceecI2exkBQ7xPc+4/vHSESpgTSsiUdtfewbOk0eiqtVNpc96dIvLKwP+27mvRvW2jTDEjFsDkQYyRYeu7+BWgbEalTSjWc/fjH/jQNYxqpR+Fr6EM6zdz7nE8elXYKrVHK+j4Z+11rvBAQxBgAXQYk5C1HuqctZBo5Wv+hL/NSo8HpopXLxRMqywijZURWf/ibd0FnToSnKs+gKnpkYaC6O/jc0qmjS4OM0vBTc0y3k+r6Qura56Z5mwFP9xaE1ZcUnE7U25N09AWVft/H1bh4pTh8b6dGOCFzIsbQsLT0H/7sU2UrYfTS6YFQDTk1Lut7m+auue+Oc3BdbqyHS+lKpSON9O12n06+IQYqTt9nfjVrCoxwWkYEonXx7CxjqAg/ecAYCOIciO+NOHgMs0A08kPSo+nxZImvn2E3Q08yJ2JGZPhZff3EvypbB4PGJtGNkaUzJ9JMzYlQY4bStc8f518zhhvyL2vY0DCh6QkJT+WFLG8VYOv45qWXvx704I2B0ShbAcMokng4C+DT0x/+zMsAcLjHQ9YxTG0X1e38ifLuzhYRLks3Pe3kuk9fCQnb6+b+9tLX//wJj0ZGiVgPxBh5YiOyvjOcJXUkQHjh1+Kb79LES8kLtFmiPtQ9X+dAE4/vo1o+2n5Wt7bcQ0v/4c+Z8ag4ZkCMsWDp1P0LLSOS3myIG3V8zTWmISNNVLh0fJRx4PxjXXz+qRd+n19qoQmVHkzo6Jaou2s+efX/NeMxDJgBMcaGlhFZ+8HOnIjUSGYl69t/FvkBb/SZ/Ev3pSkNDb2jVW6h6eCZ1R+e+JXr3/7clzKINErA5kCMsWJ1YXtOZOonmDkRY9AsNR08efU//rkvl62IEY71QIyxo2VEonVb4lsSSwDuRQfwZDOKHojWr9x+9T/+WTMeQ8r/HwAA//+V3K2mTwOFRAAAAABJRU5ErkJggg==;" parent="14" vertex="1">
                    <mxGeometry x="50" width="50" height="50" as="geometry"/>
                </mxCell>
                <mxCell id="12" value="" style="shape=image;verticalLabelPosition=bottom;labelBackgroundColor=default;verticalAlign=top;aspect=fixed;imageAspect=0;image=data:image/png,iVBORw0KGgoAAAANSUhEUgAAARgAAAEYCAYAAACHjumMAAAydklEQVR4nOydDYgdV3bnT82IpRIEWwKz8wxGLtUYRmaGdos4WGJadDWuME9kBrUYZ2WPO0hiJm2JJFgGx6omztZ9xLNd9jpIZj1Y7jhYYtuxRBzUghn0ZrdCV6c1SCYe1O51kMKa55IwzAsYpnZXJJVFUMvtvs9qtfrj3Vv31sd75wdNHM2rW7f7X+/Uueeee84W6AFMPzUAYDf7+QYA1Og/s5+1SADgKvvvGwDwzwDQjFztao7TRpCeRyt6AjwYjrcTAB7TLXtQt2z634+wH13ibT4HgE8BIEpa4adJK/wEAD6Og0Yk8R4I0heU3sBQo2I45AQA2Bt4JHmwAACnIlc7W+AcEKRSlM7A6NbwVt2yn9Qt26Y/APAtACjTUi6my6qkFQZJK/xZ0go/Slpzd4qeFIKUkVIZGNNPDwPAJIuhVAXq2bwQuVpY9EQQpGwUamB0a3iLbtlDhkMOAcDTkmMpeXM1Dsg5AJiLg8ZC0ZNBkDJQmIFhOz/vA0C9qDko5EzkakeKngSCFM1Xirip4Xi7AeCzHjUulMOmn84ajldkUBpBCic3D4Yth75vOKTeA8uhbvkCAN5pT9k/SVpznxc9GQTJm9wMjOmn7zPD0o+0AWBf5GoYm0H6CuVLpNr47PdNP/2sj40LsF2xa2zZ9O2iJ4MgeaHUgzH99CQAHFd5jw1YeRxgNTsL3Aqn83omcrWZgu6PILmhxMAYjmcaDnlLcRA3BoBP6E8ckPaKM0VRt2n9huMZzNDQn68bDnmEGZ9B1VnDSSt8M2mFfxIHjUTlfRCkSKQbGJYs967scVewAACNPDwA00+fZx6YKmMTxQHZEweNtqLxEaRQpBoYw/G+YzikKXPMFVDDMhG5mqrx18X000MAQBQZmtORqx1TMC6CFI4UA7NiC/qUxNgGXTo0k1b406QV/m0cNGJJ4wpjON6w4ZBRVhbicYlnpGbigDQwAxjpNaQYGLaUOCVjLAZdOhwo8xfO9NM6y0Q2ZI0ZB2RXmX9nBOHlq1kupp7LQyeiPwaAVwDg32WcC/VYgjggL7anRo4lrblSxyXioPEpALxBjeGWbeZ2GZ4bOz3+i7L/7gjSLZk8GMPxDhrO0gG/rNC39kjkaoUvg0Qx/XQSAFwZY6Eng/QKwh4MC+ieBoCtGe7/OQD85/aU/cdf/M2RyhoXWPZo/g4A5nTLTthWt7BHxzyZv01ac7flzhJB8kXIg5G0FR2zLdobGccpHZJ20+jf51HcwkaqDPdRAXZCOKtxoV+aHb1oXGDZm/k5ABxgcSVRDMMhByVOC0FyR8DALGXoZmGmPWXbVY63dEPkajNJK6yzDGNRXjYcz5Y4LQTJFa4lUsazRX17Bsf002vs+IEoI1iSE6kiXXswtfHZ72cxLkkrHOtH40JpT9nfo55bhiEuGY73mMQpIUgudO3BsJILIqny1HPZg7VQMgfHZyJXOyB5SgiilE09GN0a3mL66QVR48I8l743LrAclzmTtELRXJnvmn76nOQpIYhSujAwNl0ajQqO/0x7auRvBa/tSdpTI68CwBmBS7cAwGnW3RJBKsGmSyTTT6lLf1hgbOkuPTv/89yKei0xywKeiwNypkrtXTMsOd3I1V5VMCUEkc6GHgyr/i9S6rLdnrKlpM0bjvckXaKZfvorALjEvKnOF9NgLWU9wyH/y/TT2dr47CEZ91VN0gp/JJgnc5QVykKQ0rOuB8P6Fn0mcFqYehU7ZOS5mH5KqPEQuHSBncYutUeTIeiLfZeQSrCmB6Nbw1sESxF8HgdkjwzjUhufPSloXCiDhkPmTT89UeaYReRqZwBgWuDSw1g8HKkC6xgYe0iwnu6bMtL/TT89qVt21mLhDwGAbzjkepl3X+KA/JnIdYZDfiR/NggilzUNDOsVzctCe8p+O+uEDMf7joJOBG+afnrJcLxhyeNmhi3jRgXiMXWMxSBlZ80YjOmn/8rZeZF+OR6UFHe5kGFbvBsacUD8slXzF4zHYCwGKTX3eTDsQedt6xpKPLyo+nCfZzhkUvE9uGHxGN6g9CgLxiNIKbnHwOjW8FYA4P7yxcFS4anMmH76tMwatxtw3PTT66afero1/FAO9+uKpBW+w3kJ/VtlPd2OIMpYZWDsJwVqy0Zx0LgoaT55BmN3AgCpjYfzpp8qbbLWLUkr/InAZU+zGj0IUjpWGxje5UkSB0Rmtu5uiWN1C/1yflYbn32r6C8qa81yVODSJxVMB0Eyc0+QV6BuidTjAKafprLGysDTkaudL3ICAscIzkWu9ozCKSGIEF96MCwh7Vs8Fyet8KdKZtUdYdIKxzJWjFuLadNP3zcc75BuDfMGu6WQtMIPOC8ZUjQVBMnECgNDTvB2KkxaYaEnpdtTI+9FrvYoAIywIwoy2LIc1yBnauPhBUljcpG0wp9xXvKQ6acqt/YRRIiVMRje+MtCGdq5wvIWbyh44nsz6nTZaDierHa43SJSP6d0SYQIsmRg2PKIN8A5oWZKYkSudjEOyINJKzyVsZr/agYNh/yD6acndGv4AYnjrgsz3Lw1Yw4XtaRDkPXoeDC89V4XIlfL2vdHOnHQaLenRl4AgEclx2aWzjXlvKXd4Py8oVt2aQ92Iv3JkoHRLZu34j3vw58rkatF7Sl7LwAQALgqcWj6Bb7OzjUpPc1MfwcA+ITzsm8qmg6CCNExMDxvvrgK3QGS1twXkas1IlfbQ70PiUPrywcNyWXTT4nheCqXJR9xfv4RRfNAECE6SySeB5P3rVo4katNxAEZAQDZ2+qe4ZBZw/EOsho6UokDwhXsNRzClWaAIKrpCwMDy/GZMHK17wHAEclB4N2GQ87VxsP/JnHMDh9zfr4056oQhPIVdhq3azc/Dkilm7GzU8sqtrSfZrWDZR7W5P1b572djiAb8hWB8z+Vb1gfudr5OCA74oAcFyiRsBGjAHC9Nj4rJQCctELeuaGBQUqFiIH5Z0VzyZU4aERx0HgjDsgeAJDZ97mmW/abMgZKWnMJ59x000+z9MBGEKlQA/MNzmtKXamflzhotCNXG5F8rmnQ9NO3JAV+eeeEXgxSGr7C+0CWvRWIKCvONZ2SNORR3bIflzDOP3F+voiSFwiyJl/hPCJQqjq2KmhP2X8SB6QOAKcB4HaWsXTL/l0JU8K+3khl4TUwMrNiS0nSmrsTB42fR652LA7I72Q5pc3av+TNwwXcE0HWZNPm9/1MHDSoQd2VIe4k49wSrweD5TOR0oAGZhPYuabfZueaPue8PHPAVWK3BgTJHTQwXdA518SWTDxg+QSkr5F+fqYX0a3hrbplf99wyIucl95RNCUEqQRoYDaBpf5fEGwIx7ukWuv+GFNBKssWtvXcrSvfNwWNDMczdMv+QwB4MUMzOBmJe7wGpud3+pDqsIU9kN2+nfsiS9T00+MA4GXtMhkHRMYRBN45/JuEeyKIFLiDvPTNrmYq5cD0U2pYTkpqYSsjSQ7PFiGV5St41mWZ2vjsftNPr7DtaBk0k1Y4J2Ec3sQ5mQc3ESQTWwROR9d6oWRDB+qRGQ4RDeKuRztytX2SxuL1YPBoAVIaqIFpsnhDt3y9F96SrA/1d9jWs8xatknSCkX6S9+Hbg1v5TQwtzExDykTWyJXu2r63beENhzySByUuqnApph+ehAAzikYmnoPR9pTI1K8CN2yeQ3fFzLuiyCy6AR5efI1KrtVbTjeE6af0uXQtOSh20krfDEOyJ7I1WQuUXhr9fTM0hXpDTqJdp9yFIyu5K6G6aeEcynYLU2J8ZZ7MBzC+7fuyVo9SHXpGBieB7NymaWmn54EgOMKhg7jgDyjYNwOXH/rqhdkR3qPpSVS0go/5bnI9NPnlc1IEro1/JDpp57pp9cVGJerSSscjVxthPWRVgVvdTrcQUJKxZIHk7TCT3SLa5eWfmHfUDarjLDC1xcUeFvUQ9gnOc6yJux34J0/bx8lBFFKJ8j7S87rTNNPDymYTyYMx9tp+um7AHBNsnH5AgBIe8r+7TyMC2OS8/NRr9ZLRqrLkgcTB43PDWepTSlPUJEAwFl1U+PD9NPnWB1d2URxQEby/PKyHJ0652Wl9SiR/mXlWSTeavqm4XjDkufDhW4NG4bjPWf66SUAkNKLaAVR0gr/KA7Io3l7BgLFwpM4ICryehAkE9rK/8f0019zHvI7FbnaC7ImY/pp9xl/ywHNREGbDjrmMdZithCYweTxYK5GrrZH4ZQQRIjVBaducH5hi+zBoyof53DkaucVjd0tuHuE9AT3lGtIWmHAef3jpp/yxgo2orBzNEkrPB0HZEfRxoUFqblKRUiqO4Mg0lltYH7GeT31gN43HE9WcesivigRAOxoT40cK3oXxnA86pUdFrj05wqmgyCZWW1gPhJwtw3dsp+VNJ+3JY3TDVdXbD2XYntXt2yRrX9fcbIfggijrf4H009tAJjlHGchcrVdMiZk+ulnORxH8CNXm1B8Dy5YcfFfcbY6iSJX26FwWgiSiftKZkauFgoUjh40/ZQ3MWxNklaocrt1hp14LpVxMRyvxjKPeYzLHQA4onBaCJKZr67z71t1y+YN3g4BwFzSmsu03NiyzfxH3bJ5+w9tBl1CPBO5WiNpzWVuJSKb2ng4L7Bz9Pf091E0JQSRwnpFv4VqyRoOOZhtOktZxW0Fb+bDkavNSB5TCobj2YJb7rhzhJSeNQ1MHDQWAEAk0WzMcLzvZJ1U5GpnklboZxzmRhyQw3FAHoxc7WLWOanAcDzdcIhIjZokDsh7CqaEIFK5L8i7EtNPZwWLYR+Q4TGYfjoKAO8L9HieiQPyTBw0kqxzUAnLeRHZlm5Eriar+wGCKGO9GEyHOd2yxwDgNznHHdUt+/LtX569mWFu1JO6QY2Fbtn/jxmZBzZY1n0BAP89Dsjx9tTIj5PWXKn7QtfGZ3+4ZZv5nwQu/ShyNVlpAQiilA09GFh+y04CgCsw9o3I1R4Vm9baGI5nGg6hb/zHWLYr9VA+BICFOCDNsnssHVi/6esCnhksL/sapTnFjiAbsamB0a3hh2rj4T8INlxbaE/Z3yvjzk1R1MZnv61b9geCf8+wPWXvS1pzlTCkCLKpgYG71dWuCd5jJnK1A4LX9hwZEgnbkas9qGBKCKKMrnpTsypuotuio6afigQyew4W1BXNUi7lNjuCbMRmQd6VfKpb9g/WKPHQDaO6ZSe3f3n2FwLXVh66LHrg9878fYb2tFF7yj5y59c3/4/kqSGIUrpaInVg28YXMtzvTORqfZXezgK6VwRjLsCykHdgS1ikinS1ROoQudpM0gqzlKY8bPrpZ7Xx2SczjFEZauOzP2S7RaLG5dM4ILvQuCBVhcvAwPJhxD/J2EHQ1C37p70clzEcTzf99F3dst8R2YruEAfkxaJr1CBIFnhiMEuwBLbzumVvBYDHBe+7BQBGDYc8AgDXktZcz7yhDcezDYf8Jf39MgxzGwBeak+NYL4LUmm4YjCrYY3ks3yROoyW9bxQtxiOVzMccklSreDS1atBEBG4l0griQMiq1zAuSovmUw/NQyHvC/JuMRxQLDHEdITcC+RVpK05toAcFG3bJudExKls2Q6rFu2vmWb+Y9VyFY1HG/QcMiJLdvMcwDwiIQhL8cBGWYlKxCk8mRaInVgXzTRTN/1OBq5Wp41ernIcBJ6PWLW5A2NC9IzSDEwcNfI0GXCTlljsu6KH7BuBwtFFrc2HM/ULft3dcv+Lqs+x9VaZANuA8CbdFmExgXpNaQZGLgb6Lwu8cu3mjOsFkpuW7fsHNakQK/objkeuRrGXJCeRKqBgbtG5iAAvJwxLrMRnwDAR3Gw1LD/YwBoJ60wyhK30a3hrbplPwIA3zAcMsjODO1W2OHgU5bnUundMwTZCOkGpgPLB+Ftf5KVkLW//acV/Z0WVmbCstR9k3lZ1JA8zP6vqla0axHHAdmFSXRIr6PMwMDdHkuXsmSz9iDUqJQi/Z/pY68o4LV7Ha2osW6z4l4Ra7Z/o4Ap9x1V10ipgYFlT+YxwyEEAL4reBK7V6Diz7Sn7B/nXYCL9V36tuGQx5mntlPC0i9mS9VP4oBcpQ82K3GKCNCrGik3MB1MP30OAE7ndb+SEUauNpL3Tdly8KSkbOtuoA80waB19/S6RrkZGFi20jsNh+wHgKM5tIctAx/FAXkzaYXn80ocNBxvULfsZ3XLfqrAvzF9iD+IA/JB0grnqpA0mSf9pFGuBqaD4XiG4ZCTkhPVygQV69W8W4soSP6TAXXN95Uh5lQG+k2jQgxMB8Px6JrzRyzHRLRmSlm4AwCX6XIoDsh7cdD4NI+bUmOtW/bzumUfV5h/lBVqcK8mrfD19tTIz4qeTN70s0aFGpgOKzya0RILsBERAByJXC3Xdq6mn9IH1qvY36wSTfFk0e8alcLAdDD9lIrwFgA8XfRcOCiktILpp88DwKm87yuJviidihqVzMB0MBzPBIAnDYc4ADAEAA8VPSdGwvINFuKAUG/l53mfj9Kt4a/XxsNXAOCpim/7X40DcjwOGh8WPRHZoEZ3KaWBWQ0rNj7MgmNFuJp0CfRGHJBzRR5IZB7etR7agaMGew9ri9MToEb3UgkD00G3hnXdsncCwDeZdyMzGn+b9be+QQ1KHJA281Y+LkNKf218dr9u2ad7IBi+GvoAN9tT9jFWX6iyoEb3UykDsxKWQs171ulqJ1oOAP/G/i1cfV6pbLAT3VdyOHIRrVHQvSa5BMd6VLoDKGq0Nn1lYOKA1OOg8XN1s5KLbg1vrY2Hf84SE2U9uJ04UsTSx5dOo2+WQs5S2elD/DXdsgfpD4uPbZU0L2BHKSrlyaBGG9NvBsaNg8ar6mYlF9NPTwCAL2k4+tCeiwPSkLXkY+kFxwHgeYmxsUp5MqjRxvSVgQGA05GrHVM0JamwYGGWpm0rocu/ZyJXa0oY6z7YEZC3MrTGXUllAr+o0eYaZeoqUEGcoifQDbo1nLXdbIerSSs8HAfkQVUPLix5ho0bkauNxAHZkbRCnz2AotBlxhXD8Z6QOEXpoEbdadRvHgxlJO+MW14knFdps7MlhXgB7M1+idUuEeVq5Gp7JE5LKqjREptq1G8eDOWkbg2XtgCW6aeHAGBM8PI7AHCmPWUXusSIXC1uT9nfAwDCtv9F2E2/xIbjlU4r1OhLNtWoHw3MoG7Z3yl6EmtB18mssLlo9ufLkasdSVpzheftJK25LyJXa8QBEf0iUg6zThWlATW6jw016kcDA4ZDynZcfgnDIX8qeOkXAHC8PWX/heQpZSYOGhfjgFA3ekZwiNHa+Ox+ydMSBjVak3U16scYTIddZdqpYJXNPhO5Ng7I4TholL5RfoZe5oVUBFwNarQha2rUlx4M42TRE1jFu4LXUSN5XvJclBAHRDQHaTcLShYNarQ+a2rUzwbGptZat4ZlZjkKYfqpJ5CfcAcAfOraVqW2Shw0rsYBGRUIKurUWy0yOI8abcqaGvWzgYHltWP4wyInwEpTiJTW/GnkahNVeXA7sEZzrwtcOqhb9rCCKW0KatQ192nU7waG4hqOlyUXIBO6ZYsEMOM4IC8rmE4utKfsn7ADp1wYDnlKzYw2BjXqntUaoYEBqBkOuWI4Xp6dHb9Et2yRgNqROGj8o4Lp5ELSmvsCAPYJZJMWZWBQo+65R6N+3kVazQ1WhzS3nSV2PuQa5yncZuRq+xROq2tW1Od5mP3T/05a4UdJa66r9XttfHZSt2yX87bH8+y7hBpl06jK5fxk03mQduVlZAyHnOA94h8HpBTN69iOwewaPb0jADjQTQpA0grfFnh4CQDkaGBQoywa4RJpFYZDRLciRRBxvecUzIMLVnfk2hoPLrBSkbPdLDlZSQLec2EGy6bNC9Qog0ZoYO5n0PTTX5l+6unW8AOqbsJOovLmdhzPu8j4auiDazjkbzapOWsYDnmrm3NEcUCOsVIFPORy0ho1WiaLRmhg1oZaf1IbD+cVJnjxBpXbRfd8Nv100HDIdVYlbTN2Gw7ZtP0Mq9LG9XsZDslr1w81yqgRGpiNoW7er2rjs2/J3mUyHMI7XiDz/rzUxme/z+qf8Bhcr5sPxQE5xZnY9S2OzwqDGt1FVCM0MJuj65Z91HDINdNPL0j0aLjiCHFALku6Lzf0rahb9rRAzdmuWnewJQXP75eLgUGN7iKqERoYPkYB4Nemn16vjc/+V8PxDmYIOPJ+SQppULbirSiSpt918e6kFfLs3Bmmn+YR6EWNViCiEW5Ti7FTt2z680ew7EoDO+r+MTvY1k1AjCuAnGd+TgfWikPkrdjhXLcfpA+vbnEd9amzHlYqQY1WIKJRPxmYBgDsFwjcdcuo4JZmN+T+4LJtztmMrTh4AoP/zDn2SdNPy3QiHjW6H6OfDAy0p+yna+PhOYVGRhVd5yEYjrdbt+z9rCeOzrypG3FAprtNXV+xzSkcb0pa4en21AhP1TbV3ohqUKP7eaKfjgo0IlcjkK2oTlEciFxt02pjpp8+DwCn1vmfu2o1wVzu2Yw9dBZEShSYfppmuGfRoEZr3KMvg7ztKfv3WTpz4XVRu2TTmI7pp3UAeGWDjyy1mmABwTUR3OZczQcZ6p9U2YtBje5nsC8NTNKaux25GvVodmSoQ5obm7VZYdmYl7poEarrlj3N3oD3kGGbcyX0rfj7GeqfVKZl7GpQo7XpSwOzkvaU/UwcLBUB/6TouWTg2xyfXXpLmn56slPNL+M2J7AErONVqtxWAH2pUV8Fedciac0lSWvuLACcNxwySUUoek4CPMT5efqQHq+NL710z2bc5gTWiqPQFPkK0Jca9b0H04Fa9cjVXsjYrU8JCs9DHZWwzUld7rclzqmSoEZrgwZmFZGrnY0Dso0VPn5H4BSpCjbbVv9UcFy9wGDhWnSVtl5SUKM1QAOzBnHQiOOgcTFytT+IXG0b82qKNDSbifrLAuaXNVi4FlU2MKjR/YRoYLqAejXU0MQBGYwDQl1WHwB+yra57+QwhQ3rn9AHKA7Ivhx3YWS/FSHnIlIqQI3uJ+77IC8PcdD4GAA+joPGl/9mOJ7Oal8MMlf2sS5dWp5DHfUu5naVrtcNh6jedlfxVgRWg4eHKIc8JtToXng1+hgNTEaW30yNkLesoOmn/7eLnIgvP244Xi0OGhu+/Vg/m1HDWaoJy/swbMZtAHg5DsjbirY5H+P8/JHNck+yghrdB69GIRqY4vics94IdcEvbvYh9gCDgrek0m1O3ip1qo0LAzVagYhGGIMpDt61eNfBNfYAn+Gf0rrksc3JEzzM64gHanQv3BqhgSkIzuI99O3BVYgjcrUjbKs9a1BRerBwNaw1K88J91zOLKFGdxHVCA1MQfA+vN0EEVdD35Js10sUVcHCezAc4nEmkuVSewU1uouoRmhgioO3vKJu+ulbvDdhD7DIW1L5WxHunjDetLL9SuKAfKRuRveAGmXUCA1MQbBWELyxhKPMVeW9F+9b8kzkar+n/q24dML4fYE0+F8omtI9oEbZNUIDUyy8LTlBt+wfityoy7dkm34mcrUjIvfgRbfsgwJp8DObbQVLBjXKoBEamAKJXO08r1vcKTQuAnuAR9Z5K8dxQA50tlDzQLdskdjDCwqmsi6oUTaN0MAUz1XOzxumnxLRm1G3nxXaOgAAp1nBrWPLRyEavHMRhhVU4u3QGEWuVkQVQtSoe+7RCBPtCiZphTO6ZfPWB/Zq47Pz7amRvxO9L6sfW0g1P90aNll1Ny6SVviBmhltel/UqEtWa4QeTMEkrfC8yHW6Zb8ufzb5UBsPPZE0+aQVvqdmRpveFzXqktUaoYEpGLYLcJhVlOdh0PTTC6w3TiXQreEtpp+eAIAxgcvPFNHYDFAjHu7TCA1MCYhc7SwAvCpw6ajhkOtVeYBr4+EfslIXvEvzOK9dk/VAjTZlTY3QwJSEOCC+YOFxw3DI35T5AV4uaeEdEtnyhWW3e70+QrmCGq3PehphkLckMDf8dcMhIgfghuhbEgAezTlHZFNYvZwrGbppxkkrLEVBcdRoXdbVCD2YcnExQ1lF+pbkTlNXDTvDkqVVbyMOGmWoi9wBNbqfdTVCA1MilmsBL5VVFH2AR00/vVYbn31S8tS4MRzvm6xF74uCQ9wBgOORq5ViedQBNbqHTTVCA1MyWCJVli/VoG7ZQZZEr6yYfjpqOOQy6/8tugz/oKy9llCjL9lUIzQwJaQ9Zf+FhAQrz/TTX9fGZ/9c5PAdL4bjGYbj7Tf99BIAXMjYaiNqT9kvS5yedFCj7jTSMtygUEw/tVlDqm5pRK5W2BtDBOpKZ1wbr+R05GrHJI11D6afPp/xjb6SNgA8GrlameIu64IabQwamBKjW8PfqI2HocTi0AkANOOAhOww3YciOxqG49Ev1BOGQ4YAwJE5v6QVPt2eGsntMF9WUKONQQNTclhL0lmJb8nV0Ie4yYor0f9eWPlmMv10N3s4h1kbD1XzoF+sPZGrFZKtmwXUaH3QwFQA9gBfV9DmokycYr3BKwlqtDYY5K0A9G3VnrLtvGrR5gx1/0l7yv6zoieSBdRobdDAVISkNfdPkavtKur4viJusGBhI2nN3S56MllBje4HDUzFaE/Zv0/fJgU348/KHQA4056y91Vlt4gH1OguaGAqBn2L0LdJxmzSovlR5GpHktZcEdXplIMa3QUPO1YUlk26AwD2Gw55EQC+VfScumA6DsiPWbX+ngc1QgNTadgBs7MAcN5wiAsAJwTaS+RByJrV96THshH9rhFuU/cQpp8ektzvWAaELheKnkRZ6DeNMAbTQ0SudjYOyG8krfAw28koou5IAgBXk1b4YhyQHWhc7qXfNEIPpscx/fQgK4Go+jBdvNxwi7zaLzEWWfSyRhiD6XFY47DzhuPtBIAndMsepD8s4/QhANgqMOwXrHTkjTggC8sN2Bu8fZwRRi9rhB5Mn8Oaa+1kP/9+jXMsEQDcZP83ilwtLGiqfUuVNUIPps9hB9d6Mb29Z6iyRhjkRRBEGWhgEARRBhoYBEGUgQYGQRBloIFBEEQZaGAQBFEGGhgEQZSBBgZBEGWggUEQRBloYBAEUQYeFehzqnzOpV+YaPJpNFkvj0ZoYPoEWSd1TT+FspzU7TWGxpY12j5gDz48IK7RRPNejeanlzW6PI2nqbsGT1N3Ry/XGukVJpr5ajQ/TV69PJ2PRv1kYJQ1Fi8ThuPpumUf1C17FAB2F9BpsFMtbSZphRfjoNF3dXg3Y2jM07cP2AcfHihWo5uL4cytxfDi5Wl1GlXZwBgA8GuOS8LI1UYUTqlw+q3eaxWZaJZTo8m6Go0qa2Bg+QuVcnw8jlxtm8LpFAb1WvqxYn2VoF7L3rHyazRZl6vRV2UOljeGQ45yBMCoqD9JWnP/onhauWE4nkGXQ4ZD6BvxP5Y4aG8CwHHDIY8AwPWkNfdF0RPKi6Exz6DLob1j1dBo79iyRrcW5WhUdQ/m2hpbdusSB2QPa4ZVeQzH22045BL9z6LnIsDhyNXOFj0J1QyNebv3jlVXo8l6do2qnmjH6849pmgeuaFbw1tNP/UqbFwo75h++q5uDaveNSmE7QPDWyeaqVdh40J5Z6KZvrt9IJtGVfdgJgHA5bik8jtJpp9eAIDRouchiRsAsKfXGuBPNHtPo8m6mEaV9mDigPDu5e9WNBXl6NbwN9iSsFceXGCZqddNPz1BPbOiJ5OV7QPD35ho9qZGE830BPXMeC+utAdjON6g4ZBrnJftqNpuBtuSv15AvkSenIpc7YWiJyHKRLM/NJqs82lUaQ9GIAYDVXu7MOMyq/DBpX/D0wBwBABGAGBb5Gpa54f92wH6cClunXGUnYuqHMy45KrRZF3TOj95asTORXVNpT0YWP4CXgKAOsclcXvK3pG05kq/7qfLotp4GEp8cBMAaMYBCdlD+2EcNLh7I1PPEQCeMBwyBACOzPklrfDp9tTIRUnjKYcui559Tb5G89N3Nbo8za/R0NiyRnvH5Gt0czF8+q9f6k6jXjAw1CO5wHNNHJDDcdAo/TYp7zb8JigLcJt++jx7e8qAfpkerUrgl8VcpGk0WVej0URTvkbdBH6rvkSCyNVmAIArt8VwSKmXSWwr+oKEBzdOWuErcUB2qNw9i1ztjTgg2+Jg6e/azDgcfdNe063hr0uanhLYVrQUjW4uhq/MT5MdqowLZbKuvTE/TbbNT8vTaPvA5hpV3oOBuzVNeIO9u1hLztJh+qkHAFlPfhd2epx5le9mzAE5F7naMxKnJZWJphyNJuvFaDTRlKPRZH1jjSrvwcDd3r2fcF52wXC80iV6GY63GwCOZxhiIWmFTpGlKahXGQdLa3/qXd4RHOYptvQqHUNj2TW6uRg6RRkXWPZoZuans2vEll7r0hMeDIi/9aM4II/GQSNRNC0uDMczDId8luGtMhO52gHJ08qEQDLkal6IXE1W7CAzQ2OesXcsm0aT9XJpNNHMrtFkfW2NesKDgeXArchyh3owwwqmI8r+DA9uHAekdFnKcUAaGbdOPWp4JU4pK5k0mp8un0bz09k1ooZ3rf+h0qepV3Fz628d/i7vdpxu2Y8AwHtJa07UTZQCK7lwBgD+g8Dll+OADItsOauG/V3PJq3wU92yqUv+m5xD6HSY2788O6doil3DSi4IazQ/TYZFtpxVc2txWaNbi+GnDw+Ia/Q//8f9GvXMEgmW3XHqkXwmcGnhSwvTT+nyzhO4NGbLvNI9uKvJsJ1dilo+E01xjeanyaNlNC6rybCdHU/W79eoZ5ZIsBxcjFjQipfR2vhsYQFFVonuhMClM1UxLpT2lP0Tttbn9RYN00/fVTStrmCV6IQ0qopxobz3krhGE837NeopDwaWlxq24RCeWr0dEnayN9eta7Y0+leBSxciV9ulYErKYcbiMO91cUB2xUEj99QCtjQS0miyXk2NmLHg1mh+muy6PH1Xo57yYGBpzR9eZuc2eKHryCu18dnvK5jW+je17IMi1yWt8EX5s8mH9pTdYNmgXOiW/ayaGW3M9gExjW4uVlej914S02j7wL0a9aCBmbvDslZF2jLoumVP53nojlX/56XRnhr5OwXTyYWkNUeXsvt4r9Mt+yk1M9oYVv2fl8Zfv1RdjW4timn08MC9GvWcgVnBOcHrqCczm6OR4a1RE/dCfye2FOUtX2qyQH7ecGtUZBKdLCbrYhpNNO9q1LMGhgUURdfrBgBcq43P/qnkad0Da4rGta2etMI31c0oX5JWKLKUPalgKuvCmqJxaXRzsXc0urmYTaOeNTCscv1IlgQi3bJfMf10VmGil897QdIK/0rNVPInaYXnWbdBHkYNx8uzqBO3RrcWe0ejW4tiGg2NLWvUswYGlt3wOA7IvoxZiku7UobjHdStYWn9bFivaF53/3QvdUpkRzSeYTt4PHxb0ZTugfWK5tZIZafEvLk8nU2jnjYwsPwQtyWk0A8aDjlXGw+56s5swhOcn0+qXrB8LSJXa/LGywyHPK5uRvfArZHKkgtFMVnn12jv2LJGPW9gYNnIXGW1SrImO9VNP/216acXDMfbn2Ug3bJ5g8hZa3iUFnZeiecNmUsAfvsAatSBnVfi1qgvDAwsG5mLcUBkRPaN5TgAmTH99DNW+4QbXgPDylz2JGzZx7OM3alwOl/yMKeBYWUuexK27OPWqG8MDOOs5KLIdH1+gXo0pp/ybmXyBip7Zl2/Djy/X15b1ajRvXBr1FcGJg4aSRyQPYLboxtBvZgrpp9eN/30Um18dtJwvEOG4z2+QVGrhzjv8aGEeZaWOCBc+Ramn9rqZvMlqNEK5qf5NJpopnZZG3ErY3nnonHM9FNd5KzFJlC3cKdu2XXduvv8G87Syixa9QbgaWIViR5onGimdQB4ji3tYgB4mwXtMjM05g3uHSPPr/Ao5uanyWnBg30fc36e/oGFlyTsfNFuptlqT+Vr7N+5NKrKgcYMcGvUdwamQ+RqRwzHe8NwyF8CQB67EmYG157LIGwfGN6yfcD+4d4xcniNLNTRiWZ6dX6anLm1GP4VqwXCxfaB4a8/+1r4CvPcVm7d29Tg7B0jp997yf7xrcW52xzD8n45hfqMM6NIDe5TAPCAyBjr0LMB3hVwa9RXS6TVxEFjIQ7I7yhuViUDLtd7+4D9LP2Sb5Divpv+76sPpnXLs6+FrwPA06uMSwfqKbnPvhZyZUHHQYP37Bh38iMzLtcA4Khk4wK9vjyC5UAvt0Z9bWBg+cGOI1fblbTC4wIZi3nBFTzcO0a6Kkjd7edWwlLnv9vFR492sjk54Pk9uWMwe8fIf+G9hoNeD/B24NKo7w1Mh/bUyBsAsEPgcFcedO1hsdae3W6vDvK2AmWp890srY29Y+Qo59jKvqTsAJ6javwKeMGy4NIIDcwK2NGCA1mChyrg7HLI+2bn/TxPHKlMBdWVJud10+WwH0EDs4o4aLQjVxuJA7ILAN4ROINRNLyxia4/PzTmSTuLVQCVbKxfddDArEMcNBYiV/sDAHiwYjsEvN5X159nB9943tRlikv0yxKmVKCB2QS6PIlcbR/1aJJW6LMHNVevhiepjCVDfd7lxz/nTZ7iKF+QzE+TNzjHVlaGgaXxK1vGTDRzSfwrA1waoYHpEurRtKdGJlih7QdF6oRkoOtlDPMy3uny4++wz3fNZF17tctypDMriz93Cc8ZI66xL0834gxVDruhTM3hVMKlERoYAZhXMxEH5DfigAzFwdJ27xn20KvI5uQKlr73kv0XrLfNem9s+u+n2Oe4ubkY/mgDI3OHGpf3XrJf5hlToIgU99+ZFbIWaWvTDWUKaCtBIO2g3beZvDJgBZN+QX/ioPHlv9Mvi+EspaE/wZLdjIxBRi73+9bi3O3JuvYCALww0UzfYollHU5nrVny1y+N0N/50YlmeoL10Om8vSP6/0/WtfMCw/KekOZObLu1ONeerGsH2Nb8+5JPZffDEolbIzQwClguctWY2ehtafppyjGksHFixkRJESS2XHpV0nBf4/y8cDxlsq4tDI15u9hZJH2tmNpkXQsnmvloVCG4NUIDUxxf8KSrG443WETTsbzIuwDX5elGcnm6sdkOGpdGQ2PeoEDcqTKIFODCGExxfML5ed7yjZWC08DEkauJ9L3iBTVaAWcBrniyrt1AA1McXF8QwyFD6qZSLKxrA8/vx/vFF4VLo71jvavR0JiYRmhgCiIOCK8rrfIcTaEYztIuHE/tlVwMzPw0atSBHYzl1ggNTHHwPrw100+fVzSXwmDtW7h+L97qdxng1mii2XsasfYtXL9XJ4ETDUxBxEHjQ4GdkFMKm8AVguGQtwSS1HKpvXJ5WkwjtpzoGfaOiWuEBqZYRJK+eiahi9Ur5s0fiQWKU2WhrzUaGhPTqFOcCg1MgcQBeZX3XJPhcNdYKS26ZT8ncFmuTeXnp/k1EqiDU1q2D2TTSJM7HYQX00+vbFDacj0ORK6mKuU9F0w/pS73r9Ypu7keceRq2xROa00mmmIaTdarrdFEU0yjyfpdjdCDKZikFYocwHvXcLxvKphOLujW8AMAcInzwaV8oGhKG3JzUUyjobHqarR9QI5GaGAKJmmFFwUuMwyHvKJgOrlQGw//UMAjoEvKQgzMrUUxjfaOVVejZ18T02h+mqCBKROsbapIXOG7pp9OGk61qsyxnt4vCly6kLTCOQVT2hTWNlVIo4lmOlm1SoBDY+Ia3Vq8VyOMwZQE009nBU/kLsQB2cNOdpcaw/F2Gw65InAp/d0e5KxNLJ2JprhG89NkD2/tnSIYGvN27x0T12h1bWL0YMrDEcHrBgHgoOS5KMFwyAnBS68WbVwYPa/R3jFxjdYqfI4GpiRErkbd8GmRaw2HvG766fO6NVzK0/HUczH99ALrBMlN0gpPyZ8VP5N1cY32jpHXJ5rp89sHyqkR9VwmmuIa3VxcW6OvZp4ZIpPrumX/kcB1vwkA9a2/dfhf4qDxCwXzEsZwvP2GQ4IMxZ1mPn91R0PytLJw/eEBcY0Gfufwv1yeLpdGQ2Pe/r1j2TR669DaGqEHUyJYhuphVnZShFdMP31Xt4ZFe2BLQ7eGHzD91DMcIvTGZ5yJA/KMxGllhmWoZtJoopm+u32geI22Dww/MNFMvb1j2TSan15fIwzylhBqJNhDLEobAPZFrlZI8SOWRHdJZJtzBVcjV9sjcVpSoUZChkaT9WI0Ykl0mTWarG+sEXowJaQ9tVScOst5mxoAXDP99EptfPZQXlvZhuOZtfHZSZb9meXBTVgh9dLCCohn1miimV75wWuzh/Layh4a88wfvCZHo/npzTVCD6akMC/guqReQTEAPBO5mpIGcobj7WSnomUUvk4AYE9R3hcPzAuQqtFkXY1GQ2PeTnYqWppG3Xhf6MGUFLYtK2v3hH4RLtClFzvBLGdQxzNMPyUst0VWVf1mFYwL3O1HLVUjuvRiJ5ilMDTmGRPNlLDcFmkadbu0Qw+mxOjW8NbaePjnrO2ILBc6YYWUIla46WO6KtusBALrW7QTAL6mW/Ygq6E7xFnlbDNm2lP2saQ1p6K3lBK2DwxvffY1dRqxwk1LGnVKIKwH61u0pNH2AXuQ1dCVrtF7L9nHbi12pxEamApg+kt9fK5IfIDXI1qjn3RNcv+g9ZiJXO1ADvdRAuu11PMaTdb5NEIDUxFq47P7dcs+rbJ/c0HQt3Wzap7LWvzgtdn9Dw/0rkY8nksHNDAVggV+r9H/LHoukqhMQLdbWOC35zQS3U7HIG+FiFwtbk/ZDmviLproVRauxgGxe8m4AAv8vvdS72g0P03sLLk66MFUFNZhoBRndAQ4E7ma6MHBysA6DFRWo8l6do3Qg6kokau9AQAvZOnRXBAzcUCU9MouG5P16mo0Py1HIzzsWGHioHEVAN6m6+Qt28zBHHYwRKHr+MtJKzz++as7GklrrupLh665PH1XI+Nr5dfo5mJ4/K1DOxq3FuVohEukHkLCGSYV0PX7SEnquRSOhDNMKljSaK16LllBA9NjGI43qFv2s7plP1XgTgZ9UD+IA/JB0grnktZc6Su55cnQmDe4fcB+9uGB4jWanyYf3FoM524tqtEIDUwPY/opfXhPihYREoA+tITFh5AumGgWoxGLDykHDUwfwNL8v2045HFWvnGnhDdnzBqcf8KOHHyYc8fFnoKl+X9775gajdiRgw83O24gGzQwfYzppzY7APcYO2y33mG4BVa/pNOruRm5GhqTHJhoims0WS9eo/8fAAD//7BDnqfZ2hPbAAAAAElFTkSuQmCC;" parent="14" vertex="1">
                    <mxGeometry width="50" height="50" as="geometry"/>
                </mxCell>
                <mxCell id="13" value="" style="shape=image;verticalLabelPosition=bottom;labelBackgroundColor=default;verticalAlign=top;aspect=fixed;imageAspect=0;image=data:image/png,iVBORw0KGgoAAAANSUhEUgAAAyAAAANtCAYAAABoth/aAAAABGdBTUEAALGPC/xhBQAAACBjSFJNAAB6JgAAgIQAAPoAAACA6AAAdTAAAOpgAAA6mAAAF3CculE8AAAABmJLR0QA/wD/AP+gvaeTAACAAElEQVR42uydeZxlRXm/v3W6e2YYYNhlcUMUBUZAREUEDQiCrK4zCi7RGNkUI+6JmrRR2ZeoMW7RuEZ/kLihomwzwMwgClHRQRBlkX0XZmCW7nve3x8DOEt337NUnVN17vN8PsY49/a995y6p+p9btW3jhMAADTOPqPzZkzTyllDQ70Ne8NDG7vcZsk0K3e2oZNmOtkmJpeZ3EZSPmxyGzqzEUkbyGm6M5tpcjPk3HoyG5I0a403cJoh03qSSbbqn0zaUNLwxJ/IlkpubPUnr/lyetiklSaZk/4iSbm03EnLHn3yg84pz3sac7Kl5rKHneXLzGUPOdlS59yy3LTEmVuSZb1l48qWWt57MBvOlk0fH1py3ujBD/GtAAAYDBynAACgOvuffMFGQ9bbwsxtlinfzMxtbnKbSbaZSZs5aQtz2iyTNjLZRjK30SpZsJEir29r/D9W8tPZZD7R790m/AOr8DcTPd8mfomepAce+4+TPWDKHnCy+016wDl7ILdV/20uuz/L83tWrph2z2UnHXwP30IAAAQEACBpDhs9d+b4zKGtx8eHt8pcvpU5t40zbSnZE03uCU56okxbStpc0vBElbf1qdWLVOvNysdqz7S+euJbPopJ0er/+td/HpfTPTLdI9mdTu5uc3aP5bpLmd3l8uwey3TXiHT7XvrVnaOjoznfcAAABAQAoDHmjJ497ZHpmz6pJ3uKc3qKZNua6cmSnmLSkyV7otZezlRSJKyYUXRHPgq+kZX+m77yUc5mTOOS7pB0i6TbzLnbzOzPTrrdWe/WoaFptzxw++13XPXFo8e4UgAAEBAAgIJ1tLmDTp3/RMvHn2GyZyjTM5zpqZKeImlbSVtJyiauhQtV0cHlY82nW5VzEJ18lJ/98C4fhdrbpNxJd0nuZie70eRukOxGU3aDy/Ibt1g8dss558ztcaEBACAgADBgknHwGRc/Je/1niHLniHZMyT39FX/rWdIj4avaxaj/WtcQz6ikI8+L+hXNscku1lyN8rphjzXjS7TDXlmf1pv6QbXnX/6gQ9zgQIAICAAkDAvO+X8bbIs22nI8tlmbidJsyXtKmkDH7+Gd0o+qobOrcxZDJ37sH5u1aZ8FGnvB0y6xpktNuducJZf0xtxixfotzeJ/AkAAAICAPFw2MkXPGVc2a7O2bNtlWTsuOo/tp63YrRqQdq4fBT/m27JxxTv3Jp8eGvvpZKuk3SdM/1eTtdquPfr+aNz/iQ5owcAAAQEACAQu3/hypHNH3hopyzr7WrmdnVOz5HpOZI2DVqMeitIuyAfUwtIJ+RjwvaOcaZLS+Tsapn7jZl+mWe9yxd+Ys4fkBIAQEAAACpy6Knnb9+z7AVOeoE5PV/SbpJm9K/V4pcPXwVp93a8ilE+yv9Ni7J5n5Mul+xy5TbPTd/il/NH9x2nNwEABAQAYC0OOO1n62f5yAsz2Ystsxc6cy+QtEnHQsjIR1n9SEE+qrZ3MzNdD0m6RC6/KOtlP5t/0muvpbcBAAQEAAaSg068dIuhkbG9c9OLJe2tVbMbw33K0a6HkCsWpOx4lZx8tCebf5S5H9qQnTs8vPkCZkcAAAEBgM5ywGk/W3/IDb/EmdtfZvtL2nnqfoQQcrrysda/Dt52u7HKx9rcb859T859Z+vrevO4RwkAICAAkDZm7rDTLt6tl+lgmfaXtKekaYSQfcqH94I0aflANqvLpkl3SfqfIbNvXXLS3MvpwAAAAQGAJJhz5qL1Humt2Mtkh0l6taQnEUJGPqJub+Rj3XfLdZ3J/isfH/mvRae/+m56NgBAQAAgKg456bJNbGj8Fc7Za03aT4/tUjV5dVeuHCWE3JJ8VBEQttvtmGyulNO5meyzl5z4unn0dgCAgABAa7zyrHkbj4/Z4cpsjpk7QNI0Qsgl5aNkQcp2u2m0d9LyMckfPPoRrlOmz81cufw/zz/9zQ/TCwIAAgIAwdn9C1eObLX0oYOUu7dIdoikaX3Kwsjko88LdlY+lMaOV8x0pSKb9ztnnx1a0fv0/DOOvJeeEQAQEADwzmFnXjw7N3uTeu4tctqyYFnYinxULkjJAbQrH8hmKvKx+r88LOnLWZaffuknj7iFnhIAEBAAqMU+o/NmrL+BXiezd8rpeYSQkY/YZLOL8rGmdyQjmyvl7MvWs08sPPWI2+k9AQABAYBSHH7K+dvk2chRJh0npy0IIcciH1UKUrbbRTaDy8fqrJTsq2NZ/s9XnHjkXfSmAICAAMCUHHTGJbs5yz/opNdKGgpUoCQgH1UK0gEJIXdMNjslH4+2dyQzXQ/JdFpvpTvj8rPmLqN3BQAEBADW4LDT5+1t0gdNOmTNa5oQchX5mPQV2G6Xma7YZDP8TNdtzvRPC0553TckZwIAQEAABptDT5u3jzn3Scle5LUYDVaQEkKOUj4Kn7bu3dslTfmYur1DzHQ5aZGUvWvByXOvoucFAAQEYAA55LR5z5bTP0ua46cYrV+gIB8TPJ3tdqOWj0lfodyBDtJMV26m/+zNHH//FaNvfIieGAAQEIAB4ODTL3qqlJ3ipLmTX7uEkIt/DELIyGa99h7EmS4nd6tc/q4FJx/xPXplAEBAADrKPqPzZszcQO9zzv2jzGYWqrgIIacnH3GFkDskm4FnugZXNv83y7JjLztp7j300gCAgAB0iEPPuPhgM/dpSU8PWqAQQvZYjJYrK1eXj9LvhnykKZvdmem6KzM75rJTj/w+vTUAICAAiXPISZdt4kbGPmVyb4qlQCGEHIt8TN3ezHRFLh+dlE37+vh6+fFkQwAAAQFIlIPPnPfyLNeXTHpSLPJBCDkN+eh7lMnOdJX/G2a6Gm5vp5tt3I5YdPqRl9OLAwACApAIc85ctN7yfOW/mewoQsgtyUfJgpTtdtOQzS7OdEUqmyud6UMLT3v9v3HfEABAQAAi5+AzLntmpvGzZdqVEHIa8rHm09nxKlb5GEjZbH+m64cr3NCbrzpl7oP07gCAgABEyKFnXPI6Kf+STBuWLn2RjwIvSQiZma4Bko/Cpy34TNd1NqRXXn7SkdfSywPA2mScAoCWMHOHnjFvVMq/XU4+KpUJgYvRvrV2uWK06vNTCSFXeb5VfLWGZbNr8lH7uCOUD1/H3efafpbr6Rd7vu/br6KzB4C1YQYEoAUO+vRPpg+NzfyKZEcSQvZUkBJCTrO9memKvL1rz3TlcvrHRacceSo9PwAgIAAtsf/JF2w0Y2TkXMleTAg5VEFKCJl7uyCboeSjUnub+9wTbxo6/pxz5vYYBQAAAQFokENOumwTN633U0kvIITcjHz4Kki7lwNIdKark7I5KDNddr5zy1+78NS3LWE0AEBAAKABXnXawieMDY1dINMuhJCRj7bbu4szXZO+AjNdMcnmL2x8+KDLz5p7P6MCwOBCCB2gCfn49ws3W5mNzZNpF0LIoYrREg8TQvZy3MnMdFU50lRkMy35kKQXaHh8/vPff/ZWjAwACAgABGLOmYvWW7li5AdO2qk7SzPkr0AhhJykbFrVap+ZroZlMyr5eKy9dx7W2KIXvO/rT2OEAEBAAMAz+4zOG16usXOcbK9qBUqN6iKVpRlVnt9KCFn+jyN62WSmy1PztSQfVvJIGpXNpw25oXkveu+3nspIAYCAAIBHNtgg+4yZHcLSjDIFSozyMaghZPlrb2a6ara3Ard3K5mup1qmi/b6wLe3YbQAQEAAwAOHnHnJ38rZMfGGkGOUj0C/VEcfQlb142amy3N7K8x3MGrZbHWm6+mmfB6ZEIDBgl2wAAJw6Fnz91SueZKms92uR/kgByC22w0pHw3NdE3yB53YbnfCj1yora+ePr7yb+b/21v/wggC0H2YAQHwzIFnLtpUprObkY+yT2hCPsp9xu7IhwghN9je6clHlXZL/8aSJdp6lxXD07930PE/mc4oAoCAAEBJRvKVn5XpSSzNCFWMlni40RByIjNdXovRyGSzykfrzHa7SjPTteZf7POX6fd/XaOj1CYACAgAFOXQ0y95g5xeTwg5pHwQQubGkp5ks1MzXZ25seTcPZc+42RGE4BuQwYEwBMHnzpvq2zI/V6yjbkTcpECJdYQ8iDueGXIZjSyGWOmq3nZNOfe+vPT3vBVRhaAbsIMCICvi2lIpzcuHwVfP/2lGR2Tj3JnvQHZlN/27qp8qLszXZU/SKiMj+Wff+H7vr4HIwtAN2EGBMADh5w5/8XOdInMXKPyUaVA6UgI2aoUNa3KR832ZqYrTdlkpqtOe9/per3nXX7W397GKAPQLZgBAajJPqPzhp3pc0nIR/nKoE9xUu7lmgshd3C73Sqtx0xXi+1d+qw3IJvy295h5UOStrKhof+3z+i8YUYaAAQEAFZj/Q2zN8tsdthitEpdQAi52HsRQg4nH6G32y359Ehksx35CL3dbn1DnuQl91q+9LZRRhqAbsESLIAazBldPG3ZhndfK9PTio/JLM3wXKAQQkY2k5EPH+1tHZTNPh8lN9nLrzjjTRcw6gB0A2ZAAGrwyAb3HF1JPsqVCYGL0b61dvkCpavyQQg5KfmofdwpzHRVfH5iM12Zk77+ovd9/QmMOgAICMBAs/sXrhxxsvdXKm1YmtGyfKjah7QKB8VMl7+vEDNdDcx0NS8fBeextsrN/ScjDwACAjDQbLNk6eslPZkQsocCpXH5IITspb29yEe8M11hZbMd+aj8QeKY6Tpsz/d980hGHwAEBGBgMdkJhJDDFyg+aitCyOHb24chxzbTlW6my7NsRjTTlZt9ds8TvvZERiCAtGFrO4AKHHravH1M2i0m+Wh5u92bZLrOOV2by/3RlN/jnC11Zg/nLltp5jYYkjaS2axc2tY5PUvSs2TaQdK0gmeiUhXMdrsRyWbj8jGoM12e27vK8wPJppM2Npd9RtKrGYkAEBCAgcKkt4UpRqvUBa0szbjDST+Vs4ucm3bRTz6w751VzuNho+fOXD59+t6Z5ftJeplWkzpCyGGLxSRmuqoeKTNdgdu7HflYzUJe9YL3feOQX5z+ph8zGgGkCdvwApRk/5Mv2Gj6yMjtMpvpXz6iDiGvcOYuMNnXl68Y+d780X3HfZ/bA0782Q6Z5a/vOfcWJz21rnwQQma73bbkg+12A8nHo+TSn2ZuOP7s+aNvXc6oBJAezIAAlGTG8PAR1lc+KpUJgYvRvrX2ZJ9pqUxfsTw/+acffvkdIc/t+f904LWSRkdHR/914fQ9XuPkPi7Ts+rJh78W8iub7chH5Q8S+Y5XtY6bma7GZNMHJslJT1/20PD7JX2cUQkgPZgBASjJIWfMu1SmFwcrUOJZmrHCSWfk0/Izfvael9/fxrmec/bZQ3+5fsMjnNyJkp4cZw4g1hCyx4KUG0tG3t4DO9O1LNf4s3555t/dwsgEgIAAdJbD/+3CLXvjQ7dJGgoiH4XH+bBLM0x2aZZnx573T/tfE8N5P2z03JkrRoY/IOkf9XhoPQb56Ixslno5i1I+BlU2Y723S0Oy6ey/rjjjb/+O0QkAAQHoLIeePu8Ykz7XpnwE/nV0mVx+/E8/cMBX5JzFdv4P/ORPnyvZt016ZvLyUVAkkt3xqoEcQCvyMckfMNPVgnysoieX7XLFGW+8RgCQDNwHBKBcyfLqDsvHHzTkXvjTDx745RjlQ5J+9uGX/182Zs93Tud0Xz7USfkoaBORyUf5w2G73ZCyuQZDsvxERieAtGAGBKAgB5z2s/VH3PT7JZtWvxhtokApvjTDZOdNdzNf98MP7r0kmfb45Hnvl3TKY/0YO16lIR/seBWpfCQ+05WZ7XH5WX/7C0YqgDRgBgSgINOykb9JRz761tqr/8t37t1k01ekJB+SdP6HDzrNpDdLGo8/hBybfJT7jN2RD0W641X35EMe2rpMe5vLPsQoBYCAAHQOM+3v6ZUakI9iBYpJX3rh8kVvuOro542l2CYXfPigb8rZHElj8W63295MV6W/6fR2u4nMdHmVj8hks8pHKyCbJnvFHu/95k6MVAAICEC3BETZft4LlBblQ86ds+fyhceMjo7mKbfL+f908Pdl7m3lS7AaIeRo5KNvrd2SfAzqdrsK3N6Ds92uSsjH4/WM5R9kpAJIAzIgAAV45VnzNh7rufsky7zJR5vb7ZouWb5i+OXzR/ftzF2EX/bJn3xQppPDyEfN9ma7XY/yUU3k2W53IGRzTMPZdlec+sZbGbUA4oYZEIAio1rP9mhaPsLdCdndNKQVr+qSfEjSBR8++BRJX4tOPgq+fpwhZNX6Dia/3W408iG/8qFOyockjag3/nZGLAAEBKArl8qLqhejVeqCYEszxnO5N/z4Hw99oIut5KYPvUPS72u4hH/5IIRc63yw3W749k5ku91if527o3Y/6gsjjFkACAhAB7A9qstHRCFk5/75/A/tt6irrXT++w98OMuzIyQtn6piI4QcXj6s4nG0Kx+hZ7rETFf49t5qaIP1XsmYBYCAACSPk9utA0sz/m/Dp91/atfb6mf//PLfSDqpefmo0m6EkIu9V1e22w2U6aolHx2c6TI7mlELAAEBSJqDT523lcmeUH5gjWpphil37zxn7tzeILTZ8CydIun66hbHdrtVP4b3X8PZbreEbDYvH5HOdO27x/HffBKjFwACApDwVeJ2Tj+E7L7203/a//JBabLz3nXwCie9d4oCpXLBRAh58n+IYrtddXemq13ZDDzTVVk2J/zLLB/OX8fgBYCAACRM/uxa8tF+CHksG3ajg9Zq53/k4HMl+zkh5PIiEYd8qNqFYxUame1263+F2pDNKWe68iMZuwAQEIBkcabtU16aYdK3f/K+/W4eyLaTO7FcLUsIucpRpLndbqWz3oBsym97e5GPSGVz6mv/ubu/9792YAQDQEAAUi1it6007McRQjbr5acNatud/+GDfmTSbxuRD0LItQrt2Ha8akc+Qs901TfklGRzyLJXMIIBICAASWLKty1YJrQiH33eY975Hz7wd4Nrj84k97lY5IMQchry0d2ZrnqZjORmuswOYQQDQEAAUq1in9K+fEw1xk7+Hs7sW4PeekO97P9JWuGvGK3SboSQax9DteZrTTZ9HHcSM11Vj7QR2XQv2v29/705YxgAAgKQFAedeOkWktYvPGrHtTRj2ZjL/nfQ2/Bnoy+/X6af+pMPQsg+5SNcCLk9+Qh/b5fm5cNHe7cw0zWU9VYeyEgGgIAAJIUb6j214rBcvNwItjTDzr/wQy97kFaULHPn1G6nxmTTo3zIl3zEu91u6ecz09WKfNQ+7oozXZm0Pz0gAAICkNYFMqRtCw/LkYWQTW4eLbiKYZddXL+iIYQcRj5U7UNWubdLVDNdnmWTma4J29ukF9MDAiAgAElh+aoAepoh5Hw+LbiKn3345XdIuq56QUoIOZx8tLvdbmdks8rzO7DdbgHZfPrz3/OVJ9MLAiAgAMngnHtyoksz7t9z+c9/Swuu1pbSfC/yQQjZT2nfmR2vjHu7RNPeEz/ZmWMWBAABAUgHM2025UAd69IMc4tHR0dzWnANfksIubp8JBpCDt7eyc501bq3S1ozXWbuRXR/AAgIQDo4bdK8fHgoUDK7jsZbkzzXH8oVo1WkkRBy7WOo5hKtyEdXZ7q83kk+AtnMpOfQAwIgIADJYNLGycnHqudfT+utdU6G9AdCyLVr3MryEfd2u+3JJjNdYeXj0X/eVaOj1DsACAhAMmxctZJsc2lGZnYzTbcmLxn/5S2S8tKtRwjZo3x4qLSDyEd793ap9DeRy2at4w4w02XSBnvc/9Sn0wsCICAASbBqBiS9pRlmbgmttyaPZmKW9j+ThJDDyUdDIeRyZ70B2ZS/9vYmHxHe2yXgTFcvy3alFwRAQACSwMk2qSIfbS/NMOUIyMQsLSUfhJATko8qQsBMVzjZDNZopeXj0b58e7o/AAQEIHrmjJ49TdJ6bchH5YH68Zug62FacEIe8ikfhJBjkg+2263yHRycmS5tR/cHgIAARM+KjTfdJKx8TPFKNZdmDA1nXNsTM1yjbgwim4SQS7uEf/nw/DtASrKZnnxUaTeTnD2N7g8AAQGInpUrso3Dyke4pRm98XxDWnBCNiCEXOHhRkPIoXe88nRvF6/XdmSyWeWjxT7TZSKEDoCAAMTP8LBmFB0Qo1uaMeQ2oAUnPE0bNi8ffWvtluRjsELI1f2oiZmuxO/tksRMl3sSW/ECICAA0ZOPu5FUQ8gut41pwTV5NNMzs3n5IITs7ThqywczXUHaO4mZLht+wT1P24SeEAABAYj74sh6I8GKpoDyIZnMOQKXa/Gg1ttOkqvTdoSQi8oH2+36ls1OzXSpnZmunsu3oCcEQEAAosZsVWDZX4HS3LpwJ3sWLbgmucue5bWSH4gQcsmns91usPbu1EyXVWhkHzNdQ/nm9IQACAhA5AYylYBEvjTDOQRk3d7umdXlY1BDyKF3vIpxu10x0xWjbNaVD0lDLkNAABAQgLjJnRvxIx9TDKChlmaYdppz5qL1aMU1ztPu1U4zIeRi79WV7XbL/g0zXW3JZhn5WNUmxuYcAAgIQOQXx4QCkszSjBlLVjy4B634+Ml2MtuHELJf+UgrhFyxvb1e21Xch5muSu09AU7ZdDpDAAQEIO6aVWsvwUorhGw2tC+tuIr9P/6TZ0u2ZVj56Ftr1xIWQshKYrvddmUz8ExXZdlsWD4m/TtDQAAQEIDIBSTPR+qNw+0uzTBnB9CKj52r/GXh5YMQcuHisq0QcgPy0e69XRS4vdOe6XKu6L2dAAABAWjr4shWnwFJb2mGk/bY/6QL2Y531Yk/olbrEUKe5OlphZD9yab8tneV53Nvl/KXlWkanSEAAgIQec3qXLUCJZoQshtS/oZBb8cDRs/dQc49r0xBGp98EEIufUCJznRZpXbr0L1dAs50GTUPAAICkIiGJL4u3N4kMzfILdhzenOtgtRrMVrFfQghF/vEXdlut95sCTNdPvtmAEBAAFrRDz9jWGshZNP2Lz/pp4cNavsdcNrP1pfT2wkh1y9Iax13CtvtepfNiGa6qh5pCjNdqnhtAwACAhAjeekxL3QIuZoxmdyHB7YNl688TqbNi5w4QshFCtIOb7frfVll8/Lho72Tm+mqf5kAAAICEClpL814wQEn/eylg9Zke5559nqW6wT/xWjfWrtWCRTvdrtBLpyaxWiVt2OmK0zbqSMzXQCAgAAgH14KFGd2+pyzzx4apGZbf8l6H5S0tX/5iHOmK7x8pB9Cbl02melqXzYBAAEB6KqdRLg0Y7e/XD/rmEFplZd+4sdPNen9Nev4eGWzc/JR82JJZcerKs9npstfewMAAgKQsF/UGKnbW5rhnD6+3ycv3HIQms318s9KmhmkaGpbPgYwhGwe2o57u8TS3mnNdAEAAgKQhrPEuzRjkyE3/u3R0dFOX/f7/esPj5N0iN8ChRBytPJRfxKhW7LJTBfyAYCAAHRWM/wWKFWeX21pxr6Xj7zw/V1tlQNGf/RsmTu9Cfmo3H6R5wBqHTfb7bYvm1WOdKBnugAAAQEYRPlo+E7IJn38ZSf+5G+61ioHjv50056z/5G0XhMFSrszXaGX4nQ4hMxMlwf5iFU2kQ8ABAQA+VCkIeQRZ+6HL/vkj5/TlVbZ88yz1xt3Yz+Q9Cy/8kEIOUylF2MOgJmueGTT071dAAABAUA+QhQolYfcWU7Zj/Y/+YKnpN4qc84+e2jmkvW+JWnvqOWDEHKhz8R2u02296DOdAEAAgLQSfko93ItLc14YtYbv2S/E3/8zGTlY/TsafddM/O/Jb2qRl3XLdlMJYRsFZ7Idrue2ztYo9WQD0LnAAgIAKjjSzO2HTJ36f4n/WS31FrlgNN+tv79br0fOmdzgxRNqcpmlY/GdruBZbPel4aZLuQDAAEBgOoFSpRLM9yWWe7mHfiJn74ilXP/0o//5Om9R1ZeJulAvwVKFflo794udQpSQshNyQczXaWfGEw+cgYuAAQEIAnN8FugVHl+M0szNsqdfe9lJ573qTmjZ0+LuUX2/fiPDs/y3i8l7daEfFRuP0LIDctH2RAyM13h5CP0TJe/ZZUAgIAAREbPr3zEvzTDKde7/jKywaX7ffK8XWJrjb1P+tEm+33sR5/Pcvu+SZv4lY++tXZL8kEIOZ7tdtOc6VIt+VAa93ZBPgAQEIAuMxBLM0x7ZGZXvewTP/7U4af8YMMYzvtLP/ajOdPH7PeSHS3J+ZcPQsjejqO2fLDdbpD2ZqYLACJimFMAUFc+yo1/iSzNGJbcu5aPjcx92Sd+fJqbPvyF899/4MMNn3C33yfOPUS5+6icvaDoERFCrtTexf6a7XYLHFNHZrrU3ZkuAEBAADogH90NIZu0leTOsBW9D+3/yZ98KrfeVy/+yGG3hTzXe5559nrrL13/VfaJH71X5p77+HwHIeRatRUh5PDt3amZLqvQyMnPdAEAAgKQhpoELkZLPBw2hLyFM31iSEMfe9knfnKR8vwb+fDK8y76p1ff5+MsHvTpn0xf8aD2csqP1FLNMeWz1vhYhJBrtR8h5KZks95RpDnTVemsNyCbAICAAKSsGCzNWJ0hmR0g5w5wven5/h//8W9k7iJzusKZXTeysfvDee86eEWfE+pe/rGfPrU3NP5Mye1m5l668i/53k6aWf00E0Iu9l6EkMPJx6DOdJX9g/ZmunJ24QVAQAA6LR9dXprxVzJJu8nZbk6SnDT2oPX2//iPb5N0j+SWmNkSp3yl5DZa9R/bQB//8bbjmdaTuUkKN0LIQdqbEHIJ2WxePpjp8tWVem5vAEBAABqlp0n2W2JpxhR/OSTpKav+k8s9ZiZW9JgIIYdpb0LI8chm4JmuyrLZsHxYiONAPgBSgW14AXwO7CzNqPE5uxBCrnI+CCE3LR/t3ttFgdu7wzNd3pdVAgACAtAxN2FphgYwhFzvF1tCyD5lU37b24t8DOq9XdqRDwBAQAC6Zxhtygch5DTlgxCymOlKWTZjnOmqIpsAgIAAIB/lHiaETAg5EflgpqtL8lHprEcomwCAgACkLh/yJR/xhpBLP58Qsj/5IITspwxOYaar6pGmMNOlENc28gGAgAAMqnwMQAh5sJZmEEKOST5aDSFHLJvJzXTV/00mvGwCAAICkKKbsDQjNvkIXaAQQq70asx0eWxAZrqQDwAEBAD5qFmg+Bg7CSEHKFC81FSEkJnp8tneMc50tSebLLsCQEAAkI8K8kEIuVId35J8MNPVWdms8nxmuhpq7yaybACAgAAMunywNMPLcRNCTkE2E53p6qRsDsBMFwAgIACDIx8lHiaETAi5K/KRQgi5lWWVzHS11t4AgIAAdMJIKlRVhJDDykflDxK5bNY67oGc6YpMNqt8NGa6kA8ABARgsF2DEHKpMiGwfEzxSq2GkCO8t8vAhpDT3PGq3rUdq2wiHwCAgABUlA9CyKWPmxCy5/aW/+OIXjaZ6YpHNj0tq/R6bQMAAgIwyPJBCFmEkFOWTaty1huQTQWTTWa6NFAzXQCAgAAk5CKEkCvJByHkhOSjStGW/r1dmOmKSTbDznQBAAIC0GH5KPEwIWQvx00IOQLZTFA+mOmKST6meCVyHwAICADy0W8MZGkGIeR67U0IuSn5YKar9BOTnekCAAQEICEFiUs+Ah1HbfkghOyzvWsdNyHk9mWzykfrzEyXkA8AQEAAmijZm5MPlmZ4KVC8yEeEM11ipqt1+agim52a6TIvXyK/M105gxoAAgLQEQVhaYYIIYeUTVVu73DywUxXkPZmpquEbMp/ewMAAgKQnp+wNKPo6xNCjqW9memKRzaZ6WpVNgEAAQHotHwM/NKMGOUj9ExXrLJZ9nMOSAiZma6G2tv8yibyAYCAAAyOfJR4mKUZAxpC7uC9XerX8fHKZuPy0aBsRiMffbuuWjaJfAAgIAAdlw+WZgxODoCZrjLtnaR8dHKmq+wfsN0uACAgAAMsHxU/JEszAhSjJR5mpouZrkTkg5kuAEBAABK2EULIvuSjb61dqfCrLx/xznSFlU0Fbu8BnOmqLJsNy4cF/A4iHwAICACUHTcJIRNC9i2bCtzezHTJ91eoSdlMZabL+71dkA8ABAQA+RBLM7zV8Y3LByHkmOSjb63twSY7dG+XKs9npgsAEBCAAZMPlmakKR+EkNWFma5qq4c6tKwyqpkuz7JZ9drmRugACAhAevJR4mGWZhBCTkQ+mOnqknzUvFhSkc0qz2dyBAABAeiCjRBC9lWgEEL21HytyaaP405ipqvqkXZGNhOd6QIABAQA+fBQu1YqUFiaUbWGZqYrrGwmM9NVor2Tk4/6cZlEZBMAEBAA5GPAQ8gxLs0ghDw4M13hZLPWcTPThXwAICAAyIfvQY4QclMFSozyQQi5dnt7K0YjXFYZfKarPdmMbaYLABAQgAjpVRirCSHHIx+EkDsrm1Wez0xXQ+2dxkwXACAgAEnA0oywxSIh5BRksysh5A7NdJU76w3IpoLJpq+ZLgBAQAAGSj4IIRNCjlY+BiaEXHZZZeQzXQO0rBL5AEBAAJAPQsiEkIO0nQZ0pisy2azy0ZjpCiyb9b403IcQAAEBGGD5IIRcu0AhhJykbFpVQe3sTFesshmjfBA6B0BAAAaAXpLyUVOzCCF7bm/5P47oZZOZrnhk09OySq/XdrmXi2mmCwAQEIAkYGlGAPkghFzoMxFCbrK9q0sXM13IBwACAgBlKsxuyQch5ITko0p1RQg5nGyqcnuHkw9mupAPAAQEYKDko/YQSAi5MfkghJyGfDDTFZN8TPFKKcx0AQACAtBF+SCEPDghZNUqRkUIucH29uHVzHSFb+9q5wP5AEiJYU4BwCR2nrs7zelCSZIrN6Q56dE9H6sPg43sePX4h52afO0n5VM/2+vR5hWL0YlbpYR8FDuOvE7Jk/vdGLSGfLxQ0gaTFqRei9FyL9fcTFcHl1XWr+PjlU3kAwABAegiP/vwy+dJmseZgK6z94f+39WSdu5GDoCZruJvVPZvEp/pclzrALHAEiwAAJBP+Wj33i5h5MPqSBfb7bYvmwCAgAAAQMry0bfWLm8KXuQj3u12Sz8/gUxX5Q/S2kwX90IHQEAAACBWH6n0hCRCyC1tt9tIpqth+ejiTBcAICAAADBg8hE0hJzKvV2ikQ/5lY+qz29INgEAAQEAAOSjwN91Zbvdsn+Q/na71W4/hHwAICAAADDQdsJ2u+Hlg+12kQ8ABAQAAAbFL2oUcolvt1v1uFPYbte7bEY00wUACAgAAHRXPjq93a51eLvdCu2dzEwXsx8ACAgAAHTUWToYQq6941WV57PdbmuyCQAICAAAxKcZfuUj4hBys7mPGLfb9Syb3uSD3AcAAgIAAMiHN/lgu93Sx53KjldVno98ACAgAACAfLQqHw2EkLu341Wi2+02JJsAgIAAAEDy8lHu5WIKIScnH/UnEbolm8gHAAICAADdlI/Kf5NMCJntdmOWD2vpmw0ACAgAALSlJR0MIce93W6V6pntdvs+NedaBkBAAAAgJs3wJx9Vn892u+v+K9vt+m5AAEBAAAAgWiXpYAi5le12yylfYPkI0N5e5CPCmS4AQEAAACBV+YgjhNzadrtW4YmpbLdbxX6SmOkCAAQEAAAikI9yhWWUIWS22w0sm/W+NHHMdAEAAgIAAJHIR+gcQIzb7SrSHa9ilI/QM11NyCYAICAAABCLmgQuRks83Oh2u6F3vKq23a55OO70ZroakE0AQEAAAKBBxSCEXPVoKspHldPcxHa7ac50CfkASIZhTkE3OfyUBRuODy/fWuNDs1zW29jMNpJls+Rslpmb8df2tw2LvmZe9dGqe6/nU7+I1y3d83qvaGUPKvdz1gv9lYV5j6Ivl4d4j3XeywKezdX+OuypWvNf8oqvkZd/V5NtRQh5gr+2Cr0A2+3W/wrVbe8W5MPuPuEZMvf3VB+TnSC3VObGHv0fS5TZUuXZfcp0v7L8Pi23e92Tz7qfE4WAQMTMOfvsoSV/2uLJyuzpLrPtJD3dmbaTtI2krSRtPa4VM9VzkuspN0lykrMCnfPkj7mmb0bmKjxcdcByDS/NcEXO4lpPDLY0w012aB7b25WoQAghF339dc5s31NNCDlMe7Pdbjyy2dLMR+6eKrkPUqFMwerjrD1ak5iknpNGnOzO9z4s6SZJN8npZsn+JLnfSuNXuy0/dRcnEAGBBjnwrEu3Hhrr7WqyXZyzZ0t69sM3a6dsKJ/ev29uecDiTsg1itEq7cbSjDDFqAghN9jeNevilmSz7Ofswna7Vc4H2+3ClKwvabak2Xrsh9NHS1W78333SHa15H4us4WaPrzIbXrKg5wyBAQ8MGf07GmPbLjZ88zcHpL2kGlPjY8/RU5yKQ5YVZ7PnZAbKlAG9U7IhJCLy2bz8tF+CDnGmS5Fut1uvWuP7Xah5PdnC0n7SbafnKSV47nd+d7fSXaxnPuJHlp5qdv+Mys4TwgIFGB0dDT75QYv2c3J7W3SXo+YHahcs3wUvOwPH0uBwtKMeGSTEHI8shlpCDnKmS7z8iVipgs6RiZpF8ntItO7teG0pXbney6Q6YeaPvI9ZkcQEFiL/U++YKMZI8MvV26H/1I6SKZNbMroHEszSoxAkclHlXbjTsjhZFOV2zucfLQ309XuskqFbW9mugq2dRX3YbtdiJINJPcqOb1KK8c/b3e+9wI5O0e9Wf/jthl9hNODgAwkB5z2sycMZ9PmOLNXSvoby22EAcv3gBWjfHAn5CpfGma6fLa3/La3F/mId6YrrGwqcHsP4EyXt9EBOsZ0SYfKdKiyhz5td77na1L2b26r02/k1CAgnWfVTMfQK2RujkkHyh6VDkLI7Q5YhJADywch5NJPJITsWTYVuL2Z6ZLvr1BqO15BAjz+3dhI0ruk/J1253t+JGWfcludfjHnBwHp2Pfd3KGnz/8bc3aU5F5lphkpDljtyUcDAxZLM0rIZvPyQQi5Uh0fr2w2Lh8NymY0fXnfrstD/9+VZZUwYPKxOpmkw2X54XbHCZfL6SRtedaPnOObhIAkzGGnz9s8l/5WZ1xylDk9c82N+FmaEc+ARQg5HtlkpqtMeycpH52c6Sr7B+nPdFmldmPHK4hGPCa6KPaU6Ye684Qr7fb8I26bT/2Mc4eAJMXhZ857Rm7u+Fz6e5nNLFO0dXnAIoQck2wSQi5r38x0tSibVZ7BTFf7sol8QMzyMfl35nly2U/t9hMu1FD+Xrflp67mPCIgUXPoGRfvZ3n2nl5uB626nScDVq06n6UZzHR5bW9CyP4G7Qblo9F7uzQsHxbwO9i2fFjd7yDyAYHEo+h3xtn+yt1Vdsc//KdWrvwn99TPPcB5DU/GKSjOYafP2/uQ0+fNM3MXytnBWnOtVfsDFkszWpSPwVua4cOQCSFHKptdDiFbd5dVJjPTVaK9kQ+o/AOKWZ/vzBqPD0vuGE2b/nu74x/ezLkNDzMgBcVD0r/m0r5hBiyWZlQYjpKRD5ZmNCkfgzrT5bm9qzw/Fdms8nw2EGlNNmsbOAymfPT9vkz6+JaS+5rd8a7XanzoWPfks27jXCMgjXPwmfOel0mnWa59CCG3KB8szUhTPpjpEiHklGWTma542hv5gKL9l9X7+8ef4w7TcP4Su/Ndx7itPv0dzjsC0ggHnTLvScMj7qNm+nuZZaUvDELIdWuedgYsQsjty2aVZzDT1b5sdk4+al4szHR5bm+AIrVJXflY5/GNZO7bdvu7D9bwyuPcE/5jKW2AgAThsC9cOdOWLv2IpBPMbAYh5CLHRAi50qsx0+Wx4iCE3Kp8RB9CjlE2jQ1EgrU3DJR4hJOP1V/7TRof3t1ufcer3JM++wfaww+E0B+TjzPmHZovXbpY0j9KVeSDEHIc8lGxc2NpRoBitMTDzHQRQu6KfNT/TaZbsol8QCj5KB80L/64rfNl3EnZ0JV2+7tfSZsgIF54xRmXPPnQM+Z/1+TOddK2LM3wPGA1Lh+EkL20d5XnE0Ku+HaEkMO0nQZ0pisy2azy0ZAPKNRvhZz1mFBONpTy/7Xb3/Vhs6l2QQUEpA+HnDF/Tk/2G0mvGuwBi6UZjcx0FXw+IeRY2puZrnjam+12i8tHmssqkQ9Y89tgfa7tOrMek3zHrNB3NpP0Cd3xzv8yO2qEtqrOQGZADj513lbZkPuCpMObHbBYmhHPgMXSDK/t3Tn5qHmxMNPlub3l/ziil01mumBQ5WOqh5qY9SjyGd3f6o4Z29g9H3iN2+LUJbRbeQZuBuTQ0y95Qzbkfr+OfLA0Iyn5qH3czHQ11t5ehyRCyIHbu17/kfRMV7mz3oBsKphsst0uxCkescvH2p/RXqaxZRfaLSdsSvuVZ2BmQOacuWi9ZbbyZMne5W3AYmlG3ZqnnQGLOyEnJZvMdCUum6nMdA3UBiJstwuxyUeb4lHrPV6gofGL7faj9nfbfPFe2rI4AzEDcshZl+y43FZeIcmDfNS8uFia0fKAxdKM1GSz1nETQm5fNqt8NO7tElg26x0F2+1Cd+TDS55kV2napXb3cVvRngjI4xx65vy3utyuMmnnNAYsQsjxFCjMdMXT3sx0FZePxJdVVi1GU5DNgZjpakI2oRviEW3QvMTjjz9nR63MLrBb37EZbVuMzi7B2md03vCGG+oTZvqgn2K0mQGriyHkgiNQZPJR85ccZro8t7fCfAejls3BmumyOsedygYiXq/tKu7TxEwXO15B3X4qlqB5yQvM6dmy7Dy7+7iXctf0/nRyBuRV/37hZhtsmP3U5D5YcfxpbcDycRHH9msZSzMilQ9CyIU+EyHkJtu7unQx09ViX97kTBckLh6pBc37PL720509X2PuB3b98dNp7wETkIPPvGTnlSuGr5Rsv34jOCHkNAas2r+WMdPVWHunJx9V6ndCyOFkU5XbO1xfzkxXkPZGPgZQPqaq6Ru7o7k/ubFJ3+ylmpl/nZsVDpCAHHLG/H2HzC5bdUdzX509A1bbA1at4450aYaP4yaE7EM+mOmq8qVhpstne8tve3vpy9luFxqUjzSC5qWuGUlzdcc7/pW2HwABOeyMi1/jpJ+YtJH3AYsQcpoDFiHk9uVj4EPIMcpHF0LIzHT5+o2G7XYhrHh0Kmg+wUeyqQaRD9vtx76R70GHBeSwM+a9z5SdI2lGkAGrSk9OCLnlAYuZrnCyqbDtTQi5hGw2Lx/th5DZbtdrezfel2MggyMfU9X0nsVgwi9bE0uupvx7J3NfsluPfSHfhw4KyCFnXPJBkztNmmqtHUszKl1byQ5YLM0odsSEkCudxYGRzcAzXZVls+G+fIA3EPFxqMjHIIpHx4Pm5T7jDDn3PbvpqK35bnRIQA45Y94nnOzkNAesGOWDEHLpJxJC9tzeqtze4eSjvZmudpdVKnB7d3imq8sbiFR5BvIxQPIxVU3fqaB5mc+4laYNf8tszhDfkdQFxMwdeua8f3NyH+7MgOW1GI11wIpRPrgTcpWjSHOmq9JZb0A25be9vchHvDNdYWWzHfmoVdQ12Zc3OdMF3ZKPbgbNy5yDfXXH5qN8TxIXkEPOuOTfZe4f2peP9gYsQsilm6812YxPPgY1hFz2Dwghh5NNBW5vZrrk+yvEjldQpbDvetC8zDGY/sluO3Z/vjOJCsihZ15yknM6zv8vLoSQoxmwCCGXkM3m5YMQcqU6Pl7ZbFw+mOny0t5Vns+OV+BdPqaqyQciaF78GEyZTF+1W9+xGd+dxATk0DPm/6PMPuR/wCKEHM+ARQg5HtkkhFymvZOUD2a61IWZrmo5eXa8gjriQdC88ONrvvYT5exLfIcSEpBDz7jkHZJODDNglR1YCSGHG7AqNBoh5ADFaImHCSEz05WIfDDThXyAD/mYqqYf2KD5xI/bhBf/q+zWo9+MgCTAYWfMO1SyTzFg+Ryw6h0FSzN8yqb8trcX+SCEzEyXz18L2G63Vfmwut9B5AOK9EUDHjRfux+yqT6j+7TdcswTEZCIOfjMec8zue9IGip6bbA0o6UBi6UZhJALt7cCt3eMM12eZZOZrsb78oHabrdEeyMfgyAeU1xcBM0L1hhrPLCRnPscAhIph512ydMycz+StH5nBiyvxWhkA1aVZ7A0o33ZbFw+BnWmy3N7V3l+KrJZ5fnMdLUmm7UNHCKXj6keImjed8nVpMdgh9ktR78aAYmMV541b2PL7CeStix6gRBCblE+WJrhpwxmaUZw2eyEfHQ2hMxMVzj5iHFZJcQtHgTN/Sy5mgKnf7f7jp+FgETC6KhlPcu+KWmHMgNWOPkghBzNgMXSjKRkk5muiGSzc/JR82Jhpstze0O35GOqmp6gef9Zj8KfcWstW/kvCEgkXLnh/H82s0OaHrDYH77JAYsQsrfBIFL5qH3czHQ11t5eS5bOyKaxgUiw9oZk5YOguYoHzQsfw7vslqN2RkBaZtWOV+6jbQxY7cjHoC7NqNApsjQjQDFa4uFOzXS1J5vMdEUgH0F+/+jCBiLIx2CLB0Fzz0Hzoo8PS+6zZnIISEscdOpFTze5b/T/XCzN8DpgNS4fLM3w0t5Vnk8IuaH2JoQc7HchNhDxL5tVPhry0TH5mOohgubVg+YF38Ppxbr17QMVSI9GQPYZnTc8NDT0TUkbpzpg+bjgWZqRgmwy0xVPezPTFU97M9NVXD7SXFaJfHRRPAiaBw+aFzkGM0nuVFs8ZxoC0jAbbqhPSHph+wMWIeR4Bqw4l2Z0caZLHtq6nfaucbEw0+W5vRXmOxi1bDLTBSnLx1T1MkFzj0HzQuOepO00a5OjEJAGOezMi//G5N4Xx4DVjnwwYJVuvtZk08dxxzbT1f7SDGa6Ko2vFb6DSc90lTvrDcimgskm2+1Ca/JB0FwBguYTdxTrPuVf7E9HbYSANMCr/v3Czcyy/1bfO52zNCOcfLA0g5mueu1NCDkd2UxPPqq0W/obiLDdLoQRD4LmLQXN1+oDJ33O5pqmExCQBli5YvgzkrYJNmBVGdlYmtHygMXSjHCyqSDtXeu4CSG3L5tVPhr3dgksm/WOgu12odz4QtA8eNB8rT5wis/wbrvxLRsjIAE57Ix5hzrpiPQGLJZmxFOgDMDSDGa6asqmArf34ISQVevaVhrLKgdipqsJ2YR4xIOgeTRB82LjwkYaGTkWAQnE/idfsJE597no5KPLIWSWZoiZrpCyGazRasgHM11B2lsxyiYzXcUPnR2vBkc+pqqXCZq3EDQv9hnN3mt3H7cBAhKAGcMjZ8n0pBrjT2sDlo8OgBByBLKZgnww01XoMxFCbrK9q0tXF2e62pXNwDNd3kYHiE4+CJqrxaB5gc/oNtPysU7viNWKgBx62rx95PSWIiM4IeQ0Bqzav5YRQm6svdOTjyrtRgg5nGyqcnuH68vbm+lqd1mlArc38pGmeBA0jzxoXuwYnL3fbjlhPQTEE/uMzhvWkPuUNNUt51makdqAVeu4WZrRvmxW+WiEkAPLZr2jYKbLp2zKb3t76cvZbhfK1hAEzeMJmhd6fCvZkr9DQDyx/qzsH2TahQGLAasZ+ahymgkhF3svQsjh5KMLIWRmunz9RsN2u1BJDLzLR50vDUHzSnLj9MGu3h29UQE5+NR5W2VmH2XAqjtgEUKORzYJIccjm8x0FT/0Dt7bpX4dH69sNt6XYyBpycdU9S5B83iC5pXk5smatdGbEJC6bzbkzjBpo3QGLELI8RQozHTFI5uEkOORzUhDyGwg0lh7+zhU5KOj8kHQXHEHzQtL5PEISA0OPnPe8zTVPT8IIQ/QgMVMVxWRiEM+Kg6ShJADXNslHu7UskpPM11d3kCkyjOQj8TEg6B5J4LmxSRyV7v5bXshIFXfyLKTNVnwnKUZAzRgsTSj0o9AFY4izZmuSme9AdmU3/b2Ih/xznSFlc125KPyB2G7XfAuH30LVn9iMOH3iqC5x6B5MYl0Og4BqcDBZ857uWT71Rx+kxuwCCFX+EGiJdmMTz4Gdaar7B8QQg4nmwrc3jHOdHmWTbbbBa/iQdC8k0HzYu34Wrvh77dEQEowOmpZZu6T1QwyhQGLEHLZEZyZrhZls8ozmOlqXzYbl49Bneny3N5Vns+OV1C2ZiBorsSD5qt1NJM+Pk3D+nsEpAS/nDV/rqTn1h+wCCHHM2ARQo5HNgkhl2lvL2UwM13BZbMT8uHlK8qOV0DQfECC5gX+Pj/abHQYASlWhbvM3D/5GbDKDqyEkMMNWBUajRBygGK0xMOEkAkhJyIfzHQhH9CnKCZoXuLHjGSC5kU+45N1yy2HIiAFOOzMea82aWcGrKoDVr2jYGmGT9mU3/b2Ih+Dem+XduSj8gdhpqtx2fTSq6Qw01X1SJGPBOTDS8FarigmaD5p/eJdbipLZN6ZMHoW9hIa+sckByxCyC3KByHkeOSjoXu7EEL29xXq1ExXe7KZzExXifZGPlIRj64HzT3KTfeC5gX+3u1vf/7bpyMgU3DIGZccLtnuzQ5YhJArDEfJyAdLM7okH5XOenqyWeX5zHQ11N6DtYFIbQOHBuRjqnq3K0FzT3LTzaB5kfdwctkbEJApz5B9sF6pxdIM7/LB0gw/ZTBLM4LLZifko7MhZGa6wslHjBuIQOvyQdBcgxM0L3AMpjeZTXJfvUEXkEfvev6i4kaZwoBFCLnsCE4IOQ3ZZKYrItnsnHzUvFiY6fLc3hCfeBA0J2he+vFn6Na3PR8BmQBn7j2hBqwuhpDjHbC4E7KX42amq3HZ9NKrMNOVgGwaG4gEa28ILx+hC1aC5mkGzQu8R54nvwzLu4AcfsqCbTLptaEGrHbkY1CXZlToUFmaEaAYLfEwIWRmuroiH0F+/+jCBiLIR/riwR3NCZrXlEjTEanfE8S7gNjI+DtMGmFphucBq3H5YGmGl/au8nxCyA21NyHkYL8LsYGIf9ms8tGQjwjlY6pakzuaEzSf4vHVX9bZFrr5hpchII8yZ3TxNDO9PeYBy0dnwdIMH/LB0ozBkU1muuKRTWa6istHmssqkY9E5YOguQia95HItf9H4rtheRWQ5bPufaWkLQghD9KAFefSjGRnuqJfmsFMV+1iozX58Fw0JSObzHRB2+JB0JygeRCJfJXdfdwGCIik3OzvCSEP2IDFTFf7slnlSJnpCtze9fqPpGe6yp31BmRTwWST7XahXl1A0JygeS2JnKlly1458ALyyrPmbeuk/ViaEUo+WJrBTFe99q69NIMQcmPtnZ58VGm39DcQYbtdqFRwhsoIlPoicEfz6IPmhT5jjoD0cvs7mWVh+z+WZsQzYLE0I5xsKkh71zruVJZVer22I5PNKh+Ne7sEls16R8F2u12Vj6lqzYAZAe5oPmE/5lUMQktk+XY80G58y4yBFZDR0dHMzL0lrgGLpRnxFCgDsDSDma6asqnA7T04IWTVLUZTWFY5EDNdTcgmNCofBM1F0LyPRJb/jBvI2X4DKyC/2ODFe0t6MiHktgcslma01t5Vns9MV0PtPVgzXVbnuJnpal82qzwD+YjbSQiaF/x1g6B5pc/o7BUDKyBOQ68jhBzDgBWjfDDTVeU7yEyXz/ZWMNnsVgi5uzNd7cpm4Jkub6MDBJEPguYiaB5aIt3hZqNZapdH7Q885+yzhyR7TdcGLELIFX68aEU2Y5QPZrpKP5EQsuf2VuX2DteXtzfT1e6ySgVub+QjTvkgaL5OX0HQvKJE9j2GLXXTTS8YOAFZftNm+0nasmsDVvUvarwDVq3jZmlG+7JZ5aMRQg4sm/WOgpkun7Ipv+3tpS9nu93BEw8RNF/7cYLmgdvRpCxPbhlWbQHJs6HXMWB1fMAihNy+fBBCjlA+uhBCZqbL1280bLcbP86UB3xxR9B8gjGBoHmNMaHM4+7wgRKQR5dfFT9olmYkOGARQg5TjJZ4mBAyIeRo5GNQZ7rqzTKz3W4c5M5Whntxm07QvH8fQdDcx3me4HGznexPb37mwAjI8j9vsaekzdsdsAghx1OgMNMVj2wSQo5HNiMNIacw0+VdNtlud5BxciuCvbhpujcxKF2wViiKCZpP8PFS2a1sktfO7OCBEZCe3GHtD1gxygdLM0o/kZkuz7Kpyu0dTj4IIUcjm6nMdHV5A5Eqz0A+6hJOQLLJBISgOUHzCu1URSKd239gBMSZHRbdgOW1GB3UAYulGVWu/SpHkeZMV6Wz3oBsym97e5GPQV1W2Y581CtAGuzL2W63FVzIJViWTa8lBhP+M0FzguZlJNL2scVzpnVeQA469aKny2nH1AcsQsilm6812YxPPgZ1pqvsHxBCTlc2Y5zp8iybbLc7SDwSTkBsWu2im6D5uhc0QfMy7bi+Npy+R+cFJMuGDk5nwCKEXHYEJ4TcomxWeQYzXe3LZufko9JZT082qzyfHa+SJJe7L9yru5kEzT0eA0HzahKZ62WdFxA5269sg7E0o8kBixByPLJJCLlMe3spg5npCi6bnZAPL19RdrxKRkAy3RuumsoLbMhD0JygecV2LCyRbr9OC8ics88ekukl9QdWlmaEG7AqfEhCyAGK0RIPE0ImhJyIfDDThXykyLBWBpwBmWpHUILmBM0rHkN5iXyB/WnORp0VkOV/fsJzJW3CgNWVAYsQcrFj6tZMV1jZbEc+6g1ODcoHM11+epUUZrqqHiny4Z2Nlm5wf7AXN21RqmAlaD5hDeJVDNboKLoSNO/7HsPK1tunswKSm7209QGLEHKL8kEIOQ75qFjeEEIOcG2XeLhTM13tyWYyM10l2hv5CMr987/61uUBX3/zQt8IgubrXsgEzf1KpMuT2I53uNJfOe3btHwQQk5DPpjpalI+2p3p6oxsVnk+2+021N6DtYFIbQOHycsW002B32Hzv7ZbCgVrvf4g6qxH4TGyiXu0lHzcS1umcT+Q0jMg+4zOG5a0V/UBy4N8sDTDz3GzNKOx9vZa2ndGNo17u0TT3sx0xSObyEeQ/jPTzYHfYUuC5hHIx0AEzfs9bjvYn1+/TecEZOYsPUfSBoSQa4p52wMWIeSkZDM5+ahf1yUpm8x0RSybVZ7PdrudwZluDHY13Hf8LMk2q9e4BM0JmnuUG8v26pyAZLn6HlQXQ8jdGrAIIacmm7WOm5muxmTTa2nPTFfg9q7Xf7DjVWKYCzcDslxPn7oOJWhO0LxpiXQvjv2SLJ0BMWlv9oePST5YmlG7vbu8NIMQcmPyEUUIOUrZjLEvD72BCPIRHc5dE+61s+2qfQ+s/AUTMmgeRDxUMAhe8fFGsh6xSGSpOjt6AamwC5a9qNaAVb+Oj3fA6px81KzuWJrhub3l/ziil01muuKRTTYQqfn7CPLRImNj7rfhBMSe9nhbckfztWoO7mje0m5lu8R+P5BSAnLIWRduJ2kblmbUNeU2BiyWZlT6USIa+WCmq3Z7M9NVs70VuL2ryEeaG4ggH41z7+/+8+13hXt59zSC5pOPQd7lhqB5kb48UzZ9z84IiPXcXoSQUxywCCF7be8qFTQzXcx0+ft6+DluZrrqdhkeGhD5aIjfBn79Z5Uu/Is8TtB8kocImheSSMujXoZVLgOSZy+Sq/C7NwNWuwMWIeT2ZbPKkTLTFbi96/UfSc90lTvrDcimgskm2+2CpN8EfXXTrglmBOp/xin6oyCvbxUyM0UejyrrUVIip3rcae+YL8pSMyAusxd3csBiaUaNYrQ92WSmKxXZjFE+uhBCrjHTNUAbiLDdLkhuUTD3uPX4J0m2+dStzh3NuaN50b/3ulvZHnbjW2YkLyCHnHTZJjLt2MkBq8rzWZrRUHsz0xWPbBJC9lk/dm+mS8x0hfxxASqTD2eXB3vxIe1ar2AlaE7QPJhETlc2tnvyAqLhsRet/XyWZsQ8YLE0I5x8MNNFCNmTbHZqpsu8fInSmulqQjahHu7mqz/z9luDvbxlu3opigmaT/DxCJrXlsg83hxI8QyI6UVyfgesLt4JueAIFJl8VBlYmekKJ5vBGq2GfDDTFaS9mekqIZvN9+Xm4dpDPtrFpMuDvoHLd5G5BsWjxHtEm/Uo0n83Mevh+Rgaz+0UaqdocyDFZ0DcX++qSAi5zoAVo3wQQq7yHWSmy2d7K5hsdiuE3N2ZrnZlM/BMl7fRAUr7gcsvDms4bs/m5IM7mlc+hmTvaF5DPiTJaW+zOUPJCsg+o/OGJds9tgGLEHKFHz58ywch5Frng5mu8O3dqZku89cZxDbT1e6ySgVub+SjPQHpnR/MPW7/h6dIegpBcw/HQNC8oESW/q5tpBuHZycrIOttmO0saSZLM8IPWLWOm6UZ7ctmlWcQQg4sm/WOgpkun7Ipv+3tpS9nu92uYk7X/uqz77w53DvkLyZo7uEYCJqXkMgKcuMU5Q0JCwmIy/MXMGBFPmARQm5fPgghRygfzHSVfmKyM131DZntdruFy/WzwG/x4np9IkFzguaNSOQeMV6fhULoTvZ86+SARQi5xFlvRT5qdWxeZFNh25uZrhKy2bx8MNPlqyuNRDYb78sxkDYx2XntCAhB82JjNEFzL0Hz/sfwghivz0IzIGZrf3hCyPEMWCzNKHbEhJArnUVCyB5/LejoTJd32YxopqvqkSIfMfCX8fs2mxdMbu44fgtponujETQnaF5BIi1UO5pk2tGuf8Os5ATkgNN+tr6c29FrJc/SjJbko8rnZKYrnGyqcnuHkw9CyNHIZiozXWwggnzEyfcWnzN3ZbBXNztQWv3mBL7ko27BStB8AIPm/eqFTC5/XnICMmQjz9PjS7VYmlFhOIpIPgghVzmKNGe6Kp31BmRTftvbi3wM6rLKduSjVvESqXx4uQjAK07ZOYHf4JBJC0aC5pO8PUHzYEHztdvR1vm+RpcDyfo/wZ7PgBXhgEUIubH29tFksclmO/IxqCHkhpZVRjXT5Vk22W4XyvHAyns3vijUi5vNGZK5lxUb9wiaEzRvUiIneyyPLgfSN4RuWfaCdb48LM1od8AihNy+bFZ5BjNd7ctm5+Sj0llPTzarPJ8drwYY+07Q5Vd3bLOn1NusZqcoguY1HidoXq54cpbeDIjMXsDSjIjkg6UZ7csHM11+ymBCyMFl00fbJbmsMomZLgiFy91Xwr5D75D6BStBc4LmvtqxyHfJbW3Xv+FJyQjIAaf97AmSPTW8fLA/fJgChRCyfH+FmOkihJyIfPhob2a6kI8E+d2vvnDMlYHf4xX15KNuwVoz55B80DyA3KQfNO//99lYVLMgUwrIkIZLf1gGrJgKlNJnPXAx2rfWrmWThJDFTFdL8lH7uJnpaqy9fYB8xIz7cshXt1uPe46kHbuXEfBwDNEsuRrQoHnf93BR5UCmzoCYe55cmZGREHI88kEIOR75IIRcu72Z6UpSNpnpgoZ5ZGzl0NeDvsNQdoTyQAWrqhasvuSj4uNexGOS50S3vW7d2qvFpXPOpTMD4jJ7bq0By2sxGtmAVeUZhJDbl83OyUfNi4UQsuf2lv/jiF42Y5zpCiebtQ0cwmH66uIv//39wV7e5JTb3DW/A6n/Wl7zGLzNetRZclXhGKLbrayJe7Tkz7N5+wzHcrlOHUI3tytLM1oesFia0Vh7ey3tOyObxr1domlvZrrikU3kI0b9GMrdZ4K+w+3v2lNy23oTA4LmImhetB29CNj6evKWO0QvIK868cLNZPbkJuWDpRkTnxBCyGnIJiHkNGSTma6IZbPK89luFyRJ7tyrvnj0tYEd50h/RbEImhM0b14iM3tO9AKyfMTtGmbA8igfnR6wCCGnJpu1jpuZrsZk02tpz0xX4Pau13+w49XgkKt3elD1uOWE9aT8SILmHgWs8nVJ0LzGMUQjIJOvBcttNznXvQGLEPK6/8rSDI/tTQi5WFurwrXdkRBylLIZY18eegMR5KMrOOniqz933GVh32TlXEmbeCkGCZrXuI4Jmtd8/V1juW4nFRCXTZ3/IIQci3zUrO5YmuG5veX/OKKXTWa64pFNT8sqvV7bkclmlY+GfERO9q8NWM5RtQtC7mheo//ljuZeJNLZbtFctVN80Od4L5ralg+WZoilGSnLplU56w3Ipvy1NzNdNWVTgdu7inwkvoEI8hE1Trr4V5876pKQ72G3H7ejpBdN/OUgaE7Q3Fc7et7pa6J+zLSZXf/qKO6IPqGAHPTpn0yXtEN7A1bz8kEIuVJd1y3ZTGWmq8v3dqn0i1Ebshms0WrIBzNdQdob+YgaM/vn8G/ijg1TsBI0J2jegkRmQ1Esw5pQQIaXT58taYQBK2DRVK7eaEU+ujrT1f7SDGa6Ko0jFb6DzHT5bG8Fk02224WKnPPrzx+7MKh73Hf8LDm9uVLBSdC8xrVI0DyYRLo4gugTZkDG5Z7j1jkolmYEG7AIIbcvH4SQI5QPZrpKPzGVma4qgwnb7cKarMxc75+Cv8uK/B0ybVS6GCRoXqOvJmhe+/WnaktzUcyATCggzvJd19wBi6UZ4QYslmaEk00Fae9ax00IuX3ZrPLROjPTJWa6Qv64AE3yqf/7j3f8MeQb2PXHT5fs+HRmPeqOuwTNOxE0739H9OfEcAFnE8tRtktU8sHSjEKfiRByk+3NTFfx/nRAQ8gpLKsciJmuJmQTGsXpLk2ffmLw91m/92ZZvjVB84rHQNB8gnZsIGje/++fYde/YVaUAuJksyvLJUszAslHlYGVEHI42QzWaDXkg5muIO3NTFcJ2Wy+LzcP1x7ykZh/5PbuX//bW/8S8j3M5GQ6oX7BStCcoHlgibQiErnG405uxbOjE5ADz/zpppK28FkssjTDh3wQQq7ypWGmy2d7K5hsdiuE3N2ZrnZlM/BMl7fRAYLKh/SzX33+2O8Ef6Pbjn2tpB2rXrcEzT2LQS35qCuRNY/BIsztRBBEX0dAsvFpO/ocsLq4NIMQclPy0YWlGcx0VRGJOOSjogCbv84gtpmudpdVKnB7Ix8JsCzruXeEfhOzOUNy7l/7FpxR/1o+Vb1cd2ZmkvfwvuRqqo/k8RgGUyJ3aftiXieEnrl8hwlljaUZfo6bpRnty2aVZxBCDiyb9Y4izZmuSme9AdmU3/b20pez3S5IztxHr/ri0X8K/ka3bf5GuYnuhUbQnKB50T6s7aB538d3jE5AcrMdJMeAFWTAYmlG6/JBCDlC+RjUma6yf9CFma76hsx2uwMqH9Jlv9rqjrNCv49dedSI5P65/LUX+7asnrYArtU3h856lHgPJHKHtq/pbIJfGHaMa8BiaUaJs96afHR6aQYzXeXHsRhks8ozmOlqXzYb78sxkAR4UNn4mzQ6mgd/p61G/l5O2014rRI0n+JCImgeWdC832d4gv3+VZtFJSC2+rQjSzNaKlAIIccjm8x01RWWVuSj0WWVDcuHhTiOhGe6qh4p8pEOZu/41WffeXPwt7n7uA3k7CPFL26C5gTNG5JI39sYS9K04VaXYa0hIPuMzpshadt45IMQcuknEkL2LJuq3N7h5IOZrmhkM5WZLu8biDTfl0exgQg0j9O3fv35Y7/VyHuN6cOStiFoPsV7EDTvjkTm1uoyrDUyIDPW7z1TpqGqlQFLM3zIByHkKkdBCNmnbMpve3uRj0G9t0s78lGr8IlUPrxcBNCse5h+m/XcUU28l9117HYa17vJCBTppAiaFyt6Le52dIpHQDLZDibHgOXruAkhN9bePpqMEHL49vZhyEkvq4xqpsuzbLLdLvhlSZa7uVd98ehHGnm3cZ0l2Yy45YOgean3QCL79JsRzYCYuR1YmuFpwCKE3L5sVnkGM13ty2bn5KPSWU9PNqs8nx2vYGJyM/vbq754zLVNvJnd+o79pPzw9grWmu8RxaxHE/IRetajZYn00o6lJDKeDIhMz6x08RJC9jNQszTDn3ww0+WnDCaEHFw2fbRdkssqk5jpgpb4yG8+f+z3GpGP64+fLmf/TkagzrVW8hhMBM2DtWOp3cq2tVvmrBeFgJj0tLYGrGrjctwh5HSXZjDTVda+CSGnIZvJzXTV/00mXtlEPmDiVvvarz93zEmNvd36Yx+V2Q7lC9Ii1wZB82KzHgTNW5LITGPjz2zrSl9DQNykAsKAFa5AKV0mBC5G+9baHmySEHKlV2Omy2MDMtPVal/OdrswAU66bOnw2NGNqc4t79xZuftAtWKvwK/lvsXAe8Fa594eFY4hyKxHnd3KChxD9BJp9SQyd63lQB4XkEe34N2qUwMWIWSWZkTT3oSQ5ecr5KG9Y5zpak82memCKOTD9NuVK4df+cfPvGtFI/Jho5lc/gVJI96L4lA3o1ORgrXiMXif9ZhqyZXHY6i15KpfO6Ygkf06wH6i3F4O5PEQ+rRpK7eVhlynBqwqzyCE3L5sdk4+al4shJA9t7f8H0f0shnjTFc42axt4NA0f8pyd+DiL//9/Y294213niC5PZsTj5rvQdC8YF9J0LzcZ8y3b11AhrLhp635gVma4ane8C8fLM3wU9p3RjaNe7tE097MdMUjm8hHGrjb86HsZb/+3NvvaOod7fbjdlRu/9qcfNTNksQgH3XFw+N7sFuZP4l02batC4iUbyu5yAesMPJBCJmlGdHKR5dDyLWWVTLT1Vp7V3k+2+3CxO11Z5bby67+3NtvbOw9rz9+uvLx/5Y008uv5dHfjG6S50R1b48Sx5DsPVpilUh7WlvX/+MZEOfc0xiw5P84ahWjVd6OpRlh2k4DOtMVmWxW+WjMdAWWzXpfGna8GmT50H6/+sIx1zT6xuuNnSTpOQTNCx4jQXMlHzSf+vGt7PbDZrYqIH/dgpcQcpgChaUZ8bQ3IeTi8pHmssraxWiUshmjfHRhpgta4M9DrvfipuXDbjv6ZZJ7N0HzAHJD0DygRPbr9Godg9OKaU9pVUAkbUsIOZR8VPx9KLh8MNPl7Tiil01muuKRTU/LKr1e2+VerjszXdAC17ls/CX/9x/v+GOj8nHnMU+Qua9J5qoXa9bQr+U15KX2rEeFY6g061HwGCrNerQskUndo8WkXq+VZVirCYhtF4V8EEIWSzNSlk2rctYbkE35a29mumrKpgK39+DMdAn5SI0r3PC0F//qs++8uVH5sDlDGtc3JW0dtmDljubc0dyjGDQlkU7btiYgh5+yYENJm5YbsJqXD0LIleq6luRjwEPIXb63S5XnM9PVUHsP1kyX1TVwaA6n760345F9f/WZv7un8fe+bbNTJL2s+heWO5pzR/MiEhlo6Vx4iWxPQMZ7y7celAGr1kBNCLl92azy0ZjpCiyb9b40zHT5bG8Fk02224XqnbE7a/t7Np1z+VnvWdb4W99+7CslvadysUbQXATNi0pkALlpQiJbEpBhScqdbeN8DFgszahRjFapC1iaEaYYFSHkBtvbh1cz0xW+vdluFypcHsslHfebzx/9X79u4/1vO/ZZ6tnX5Ca6x0Db27IGuOlf6f42tHiUeI9ot9dtSiLrdHQVjmHN2/61kgFZdR8Q57ZaYzKbpRl+jpulGfVrntoNSAi59JgXg2xWeUZnZrrETFfIHxegKfu4VbLX/Obzx/6ilbe/9R2byXrnymmW34K1ZkHIHc0L1jzc0bwxiXS2bRvXaCZJWZZvyYDlq0AhhByPbDLTVVw+BjSEnMKySma6kI/07OM8NzLtua3Jx+I506TxcyRt779gJWhO0NzXOYhltzK3hV17+IatCIjktkpvwCKE3FqBUuX5zHQ11N6EkOORTWa6ih96A8sqoQnG5Oxjv97yrkNbCZuv+u47zdrsq5Lbt1ynRNA8fNC8X9bD0zEQNFfpe7QMWeP3Alm1BCt3W1nln9DbGrBilA9CyFW+NMx0+WxvBZPNboWQuzvT1a5sBp7p8jY6QAD+kGfuiKs/e8z/tfopbjvm43I6wm/BWve6Sjwj4FtugtxUUAWD4DG3Y1MSOdGfuW0kLW7yUs1W+Ydt1bUBixByU/JBCLn0E5MNIVc5H5HOdJm/ziC2ma52l1UqcHsjHxGSS/rimOvtfvVnj25VPuyWY/9e0oebkw/uaF7qM3BH8z59YYu7lblsq6av1+FHzWfriT8YIeR45IOlGfHIx6CGkOtde2nOdFU66w3Ipvy2d5Xns+MVSIvzzL3t6s8efUXbH8RuOfrVcvY5P+JRs+AkaF6wLyRo7v08V21Hs8YF5NEMiG1ZZ8BiaYZYmuFTPgghpykfnZzpKvsH6c90Vbv9EDteDRiPOOlflg6v3D0K+bj9uAPk3H9LGiZoXuEYCJoHbMdYguZ9/t6p+RmQOWefPbTkBm1RZ8DqVAiZpRkBitESDxNCZqYrEflgpgv5GFB+JLPjf/X5Y2+K4cPYbcfspdy+K2l6/Xtv8Gt5+FkPT++R4j1aSktkyHZc+znNz4AM33/9ppuPDNlQvQGr3rBLCNmXfFS5npjpCiebCtzehJA9NV9rsunjuJOY6ap6pMhHRLirc8tPuPrzx14cyyeyW499oczOk/L1wxasTcgHQXOC5m1KpGt+CdaMYds0ygGLEDIh5MLtrcrtHU4+mOmKRjZTmenyfm+X5vvyKDYQAd/cJLmjt793k+dGJR+3H/timf1Msg3DygdB81KfgaB5n06txaD51I83PwOSSxtFOWBVeQZLM4LJByHkmOSjyo9D3NslnGy2Ix/1Bto45cPLRQCecDdL+sTGW97x1fmjo+O/juiT2a3H7au890M5bVBdPGoWnATNC453BM29n+cw7di8gJg9JiAszWhEPggh12oyQshNtXeM8tHQssqoZro8yybb7UI/7TD9VplOz8b17au+ePRYbJ/Pbj32EKn3P5JmtFKwRiMfdQtWj+/RWtYDifTYjpvY9QdNd9uft6I5AZE2cizNiEo+CCGnIR/MdHVJPmpeLKnIZpXns93uIGBmutiZzvzVF44+T3JRtoLddvQRsvxrkkYqmHkkBeskzyFo3rBEDmLQfMo6x2loeEtJf25MQDJpo6I9TRdDyKWfz9IMf/LBTJeX4yaEnIJsJjrTlYRsQg0ekHSOZdmnf/PZox69C/IxcRrSLUf/g0xn6vHbB/guWJuQD4LmBM0jlshetnWjAqKpMiADEEJOd2kGIeTizU0IOSXZTE4+6v8m0y3ZRD5iZ4XkfmaWf2v8vs2+v/icuStj/rBmc4Z066afktM7ilz33gvWwh1txaB5NAVrifeIdtYDiazVjm6iewKGFBCzWXIeB6zG5YMQspcCpdKvFInIZpXnM9PVinzUPm5mutpv7ypHinyEZlzSxSZ9x02f/r1f/9tb/5LCh7Yb3zJDt834upzNqVaw1izWyAgUrGkImschkSWOYaKn5tqkUQExZxtrbQMhhFyjoiGEnK5sEkKWn6+Qh/aOcaarPdlkpgsqNP49kpvvnH5k06b/MBXpePzT3/r3T5KGvyvZ8xsvWKORD4LmSGSDEukK7orrS0Bkbs0ZEELINQoUQsjpykfN6o4Qsuf2lv/jiF42Y5zpCiebtQ0c1sLd7mSXSVqoXJf+6gvHXB1rmLzvN+K2Y/aS7H9kk2wNStBcBM2LdFYEzctJZN6sgJhzf90Fi6UZ/uSDELKf0p4QcuD2rlfwJj3TVe6sNyCb8tveXuQjxg1EQHI3O9nVJvutmX6TO7vyt5877oY1n3NMkkdmtx59lMw+I2ma/4K1CfkgaE7QPFGJdFmzAuIeC6GzNKNx+WBpRkfkgxByQvJRpX5Pf1kl2+0mxb2S7pPsPid3n0l/duZuzDO7UbndOJxnN1z1xaMf7NpB241vmaGR6Z+T9JZ+17r3grXwYErQnKB5YhJZqh2t4SVYLp8hc9VOIEszKr4dSzPCtJ2Y6YpBNv9KT9Ktkm4x6V5ndo8y3e2U3Zvnute5/BE5e8hJysf1sBuyarvxuDX+qxhjfV9uyn+Z+qVdyQMo9WFKnZN6H8OVfElX8qNFd4+7RhmXlpo0Nq03NL5yqLdEkn675d0PanQ0H7RzYbcftYNy9x1Ju5YvWGsWa2QECv7QQtA8DomsGTSf+vu6caMC4sxNM0LINeRjUEPIES7NIITclnzc7aRfS3a15dkNzumGPNMNS9efdvPi0bi3+ASAluXj1qPfrFz/IWn9RgvWaOSDoDkSGYtENjwDYmYjq/8mRQi54nETQvbc3vJ/HNHLZhIzXXebtFBmV1qW/XrYZb9eeOoRt1NGAUCpnutPR22k6fq8pNeXHOQiKVgneQ5B84YlkqC5R4lseAmW3LR6BQoh5KKvTwg5lvYmhFxCNm+WdKmTLsuzfMHPT33z7ymdAKDW+H7L0S+X0xclPdl/wdqEfBA0J2jeRYl0TQvIqp0mCCGLELIv2SSEnHIIuSfp5046t2e68Ioz3ngV5RIAeBGPPx21kaa7UyW9XROGhgiaEzRHIltrR7PGBWSEELISDyFXuQa6cCdkZroq9XnrPn+pc/qBOf1gZTZy/lWnzO3cDjsA0LJ83HrUIZL7vKQnlS9YaxZrZATWfZygecQSGTBoPtXjruEQuknTCCFX/ApEE0IOnQOI9E7IUcpmjPIx4d+skHSBpHOmbzDy3fmjc5dSIgGAd/G47bgny3pnSnpt4wVrNPJB0ByJTEIiZ9iVu4+4513VyBaFwzIb6bt7IiHkgg0fRj7qXbB15aPEw43OdCVybxev8lGl31vnxX5hcl8aHrL/XXDyGx6gPAKAIOJx5VEj2tIdJ+t9XNKG1To7MgIEzUXQvEmJHNlsmhraI31YbqK7jRY/AELIvuSjyrU3qHdC7u5MVyDZXC7TOebyf/v5aW/6P0ojAAgqH7e9fX+ZPi1pxzAFawzyQdAcieygRLqRaZIebkZApJHin5kQMndC9t3eqtze4eSjvZkuz/d2uU6yz+TL9Y0rPvPGhyiLACCoeNx+7O7q5SfKdED1PpygOUFzJLK5dlzrmhmy6U31F1MLCCFksd1uSPlgpstLe6/zzPwKmU65fIM//mAQ76oMAA2Lx23HPkvW+7Dy/A1yyqoVrDWLKTICBccwguZxSGRLQfN+7Th9fKRJAfErH4SQI5SP0NvtxiqbZT9n2jNdTm5hbnbKz09/47mURAAQXDxuP+opsuyjsvwtkhtupWCNRj4ImiORHZBIG5rWVP8xLGlcWisHQghZHQ4h+5PNKs/ozExXPPd2cdKFcu4fF556xJWURAAQXDz+fNTTNZS9S7kdJdmMImN1ugVrE/JB0JygeSQSaVmLAkIIuaIfdWHHqzAzXeUGiwrXY0uy2b58uJ/L7MMLTz/yYkoiAAguHrcds5tMJ0g6UmZDYQvWGOSDoDkSOWASmeeNLsEaa08+KnWBhJCDyEeJh6u2NzNd5fr0yV9usSn/0OWnvfFHlEQAEFQ6Fs+Zpo03e7WkY2V6ibdCp9bgRNC8yHhH0DwxiWwqaD7Vazg1GEI39Sa+DwghZLbb9dneQQI0HmRTgdvb63H/RbKTH1x/5KzFo3NXUhoBQDDxuOWYJ0rujXL2Ttljdy8nI9CMfBA0J2jekkTmQw3OgDiNl2+0arUVIeQptMfbdrtVzkfcM12l3q2bM10m2Td7w+79V5z4hrsojQAgiHTcftRMmXuFzL1J0oGSZVEUrNHIB0FzJLLrEtlrOANCCFkph5DX/J/1NgBIc6ar0llvQDa9yMdVTu6YhaceScAcAPxLh80Z0h2b7KncvUm5O0Lr3LWcjEAaBWsT8kHQvPNL54ZdgwJij86AlC3LG93xqmH5SCaEXEE+OjnTVfYPkpjpWi7ZKSv+svSTV33x6DHKJADwJh13vm999ZbtL/UO1W16haQt2ilYY5APguZIJBL5OL08a0xAnDRuZT9mkzkAQsiNyQczXQVfI7x8XJ4re9vPT3397ymVAMCPdLzzaerlB0l2mMYf3qfv9rkEzcWv5Uik9+9KDEHzqR7PVp+UCCwgJhuXnAghi+12PbR3reNOYabLu2yu8cAyyX1o0czr/p07mANALeG4+djtNOT2lmwvSftrvLddMwVrzfcgI7Du4wTNI5bIBIPmUz3ussZWXAxL2biUB5aPSt1nB0LIVUS1A9vtdnmmq8JFXvB0/NY5HbHwlCMWUzoBQKnu8853Pk25PUdmu0r5c2TuBZK2XrdPij0jEIN8EDRHIgdYInsNzoBI+cPh5WNQQ8iecx9Vnp/KjldVnt+ZmS77xoqZs465avSwRyilAGDC3uKWt22qofW2k+VPl3NPl9l2kraXtIt6vY3/+kQXoGAVGYEoCtYUJJKgeRwSWfEYMtekgOgh3/UhIeQA8uFl9VCH7u3SjZmuezOnv1twyhvOHahCyuYM6a6nbiazzeVslly2waOnZH1ZPk0A3ujF9fprP91plpyGZJou2cxHr5DNJbe5pFX/bfkT5PQESRvI8gk6FjICBM2RSCTS0+v3xhsVkCXFv76EkOORD7bbTVw2f5Vn7tWLTj7ipk4Kxh1PfKaGhp4l2XaS207SdjK3rWRb6C5tLtmq6JncmifKOWpm8FjouMCFjivXcbsiY5db7XGb4i34tXzSxwmaI5Glvyce3yPlpXPNZkBWCQghZF/HkfB2u1WPtDOy2ZB8mL5p48NH/fysucvSl43RTHc/tLOkF8nccyTtprv0bGVab9WpccG/hzAg4kGh061Ch4yACJqnIpEdC5pP1ZZDWbNLsAYjhFylNm00hNyYfPho7+Tko35cxod8jEv2kUWnveGUpIXjziW7S9pXTi/WXUv2ltzGFM4QVD4odLpX6KQkkQTNkchBkchx1+g2vEsmnOPtXAg59FKcGLfbLfEwM11ejnsK2bw3c3rVglPesCC5svD20ZnKlu4n2aG6a8khcnoixTKkJR9kBMgIpFKwpiCRBM3T+DGgwjXpxptbgmVyS5xX+SCEXOw6bUI+Iry3y2DOdN3gNH7wglPedF0y5eD1x0/XhtMPkNkcuSWvlrQ+RTI0Kh4hCx0yAu0XOkgkEolExieRww1uw5s5PTTRhhqEkOtXuWy36+m4E57pMqcrXG/s8IWnv/nuJMrBu9+7t3L9naRXS7aRyIRDG/JBodP9QgeJRCK9SyT5q9rtuGK4wRkQc0uqlv+EkAPIh9U7gubko6GZrnJnvQHZLDPGuu+vXG/9N8R+fw+75wMbKu8dIdNxyrUrhTG0Jh4UOoNT6DTSjilIJEHzNH4MSEEiPfSt4+NLmhMQlz/kHrtxUWMhZA1qCLnC9RNox6tUZrrSvbfLFxfNvPZYjY7m0ZaBt7/3qcrsPer13ippQwpjaFU+KHQGq9AhaI5EIpGxSeS4djm/sR9Mh5XrITk1HEIOnQOIMoTcinx4vZM8M13F2tvZpxadcsQJkoty31m7833PltkH5PR6yY1QFEM35IOMABmBVArWFCSSoHkaPwZ4vSYfcq65/fKHpaH7Hr+7KiHkgn9XRT5Ch85j3G5Xke54FVA+pFMWnXLkh6Qj4yv/7jhhtlz2CcleIUe6AyIQj5CFDhmBmAsdJBKJRCLjk8iHmhwZhjWsu1dl3gkh15GPehd7Xfko8TAzXWVj5OXk49QjPhRd+Xfbe56sIfcRSW+TNERBDFHIB4XOIBc6SCQSGeh74vE9Bm/p3IONCsjYspG7p40szyVl5eSDEHKx/rds+d2R7XbV3ZmuiXEfWXTq6z8ZVel33/GztHLaP8vpnZKmUwxDFOJBoUOh47UdU5BIguZp/BiQgkSG7FtdYwF0Scrmj+47LumBuOSjSg2Y4Ha7Vewnle12rUIjJzLTtXZ7m9NZMcmHmZzd8Z45Gpv2Ozm9F/mAaOTDHruArM/fV5SDkGvLrcxnLHEMrRY6NY4hGokscQwWWCIrL7nqcwwWu3xYH/kwpTETaX0kMmL58NG3Wt7sDMij1nO3ZJvFIx9st1tloGe7XZ/tXVA+pH+//JQj3hNN6XfX+3bRXfl/yLm9KIQhOvkgIyAyAkUHd5bOETT30Y4lJTLKdmzomsyazoBIMmd3OdOO/T87IeRw8hF6u92ST2emq4h8fO3ymdf9QxRln40O686l75XZv0puGoUwRCMeIQsdMgJpFjpIJBKJRMYnkaYWZkBMd/f/2ISQS7d5g/Jhtb+AXZzpCnlvF/f9J92YvU3ntH+fD7vzhJ1195L/ktPuFMIQlXxQ6FDoIJFIpPfvicf3IH+1Os3PgDjprqm/S4SQ/Q3GDcpHlSBHp2a6zMuXaIKv/5Ub5CvfeM45b+61WvbZaKa7ln5Qso/JxP08IB7xoNCh0PHajilIJEHzNH4MSEEi2+pbrXkBkdPdk7Y5IeQiBWlD8lHi4aq5D2a6+rX1Tb1hO/T8E9/8cKul353ve4LuXPo1OXs5hTBEJR8UOhQ6bUokdzRHIpHIan2rubsaFxAnu8tWuy9ZazmAaOSjb61dsdHryke82+2GlU0Fbu/Cx/CgcnfYFSce0ehFus6nveO9B0n2VTk9gUIYuicfZATICKRSsKYgkQTN0/gxIIJr0uV3NjmSrLr3R57d3Z58lP2DLmy3W+V7GPd2u+ahrSOf6Rp3yl616PTX/661ss/k7I73fVBOP5KQD2hDPKxPoRNoSZTXQmeqbVk9HkOtbVn79bsBtjFuXCI9H0MrElnzGKyJbVlrXNNTba8bjXyUOIaoJTKCvtXs9iZHlFUzIEN2u+WEkJuQD1PFcxtcPpjpmqq9nekDC0973bzWSr+7j9tAd6/3X3L2WgphaEc+2ixYYyl06hSssRQ6JTo+n4VONO1YUiKjbMdYJDLk98Tje7B0rmA7jtzRuICM5SN/HtJYvaothRBy1TKY7XaDy2Y78lG4vb+98LQjzmqt9LvzfU9Tbj+QtDOFMEQjHhQ6FDpe2zEFiSRonsaPASlIZHR9a667VtzT5OiSSdJF/7Tf3SY9UvwXkIkrtuhDyBW+LGy3G14+Yp7pctLVG+Rjb2+t/LvrfbtIdhnyAVHJB3c0j6zQ4Y7m3NHc1zngjubJ39G8Wt96t9t3/njjAiLnTNKfCSF7HJyblA+r2Rb+mq812fRx3BN8/R8wc68+//R2dryyu963v8wuk/REimGISj5aL3RiyQjUKXRiyQjU+YyxZAQ8HUOyEhkoI9CoRMaSv6ojkbHkryr1rY0uv/qrgKz6TDdXGqSSDyH3uaZbkY8SDze549WgzXQ5d9yi017/p1bKvzve8xaZ/UTSLIphaFY8CJoTNPdVsBI0J2juqx0JmgftW801ugOW9Nh9QFaVcTe7oPJR5bQmuONVleensuNVlecnOtNl0pcvP+X132mlBLzrvUfJ9Lk1fiAAaEQ+2ixYYyl06hSssRQ6fQri2v09QXOC5j6+Jx7fg/xVvaIvyxvdAWsNAXEqMwPScAi54PPj3PEqRvkInftIfqbrj5lmntCSfBwj03+suiQBWhYPCh0KHd+FDkFzETT3fAwEzev3rbk1vgTrrzMgzm5y5oo1eIQ5gC5ut1vQJiKTj5oFUPszXWNZrjcuOP0VS1qQj/fKdDoFMUQhHxQ6FDptSiR3NEcikcgG+9YWl2BlZjdZkR9d2W7Xn3zU3vEqRvkIveNV2JkuJ/uXBacfeUXjZeAd7z0O+YBuyQd3NOeO5qkUrClIJHc0T+PHgET7VlclB+5JQMZlNw8V7CjZbrdF+SjxK0Vy8tH+TNdvlv9lSeMSYHe9540yfYaCGFoXj5CFDhkBCh0kEolEIuPsW7OhPzY9Ej0ecn3J+FV3SFpRryOpU4xWebsubLdb4mG22/Vy3JP0AeO5ub+76otHjzVaCt75nsNl7r9E4Bzalo/QO+pEVeiwo076u5WVvEdLlLuVxXKPFs/H0Mo9WmoeQ8q7lZW9HtYlVzZ0Y9Oj0Rprrl72iZ9cL+kZU3WWaYeQPS698iYfoUPnMW6320R7l27rTy469ciPNFoK3vX+vWT5hZJmUBhDa+LRaKEToCAOVei0Ih4eCh0yAiIjUPSaIX9F/kqS7Ga348XbNj0qZWvaiPtjffmoOTiy3a5H+QhQqCQsH1M8/dppM1d8otFy8I53byvLv4t8QKvywR3NIyt0uKM5dzT3dQ64o/mA3tG8/DE4Nb78ah0Bkeza+vKRdgi5uNFWP4Lm5KOh7XbLnfUGZFPl2jvLj54/+tbljZWD9x0/S27oXElPoDiGVuWDO5p7KHS4o7m/gpU7mnNH8xgkMuk7mlf40cXaF5Dc9IdSPwj5lo8ub7drJQ80evmoIgRRznR9Z9Epb7i0sXLQRoc1Nu1/JD2b4hjCigd3NOeO5r4KVu5ozh3NfbUj+asI+9Y/tTFKDa/+P4ay/NrcsjUqtsHabrfKtcd2u5Xau0rr+ZePZerZhxq94u5ecqKkl1EgQ1j5aLNgjaXQqftjSOo76pARSKMdm5LIAAVxiGuS/FWNdqx6TbpWZkDWEJB8bNp1Gh5vKIRcXj7Cb7cbOnQeZrvdchdAhes+BtkMMdNl7sRFZxzZ2N7Xq3a80vsokKFx8aDQodCJotBpUiIJmiORSGShdsxcKzMgayzBumD0gNsle8hn9ZpECLkR+SjxcNWlV4pxxytP93bxKh+SpJtsfOiMxkrDu094huS+LhW52yeA5/6LoHlEhQ5Bc4Lmvs4BQfP081ct9a2r/68VQ+0LyKMf5Q9VSt945KNvrV1LWDq13a66O9PV7z2c7COXnzV3WSOl4fXHT1ee/Y+kjSiUoXH5IGguguZ92pGgeYMSSdC8UYn0LQbd61vvdLue/3AUAmKy6wYshFxLJOKQj4pFi1Vo5ERmuvq09+8Wzrz+241dZRtM+6SkXSmUwb94EDQnaO6rYCVoTtDcVzsSNE+ob72mrRFseN2PnF3nPKzZSySEXO86rHAUaW63W+msNyCbqtbezj6i0dG8kRLx9ve/WC5/N8Uy+JePNgvWWAqdOgVrLIVOpc6sRCdJRoCMQI2COMQ1Sf6qZg3o8Zo0/aatUWydGZDM5dcGl49YQsil3z70drslnx7JjlftyEfF9jb75aJTjvxhIyXi/R/cSFn+DUlDFMzgTzxS/7XcmpOPKWc9ah5DFL+WV/iukBFoTj7IX0UmkeSv1vkH156ArDMDkruh65zlrctHAyHkxuXDKh5HzPKR2kyXuewfJWeNXF0rx8+U9FSKZvAnHyEHR4lfy1suWKMqdOq0o2eJbKUdPcgHu5Wpkd3KzCJvx4j71jyiGZBH1ltyvaTcTzFapTbtwo5XgbfbrXrcg7rd7l+5/PJTj7iokVLxjhP+RtJbKZohDfkgaE7Q3GehQ9A8jowAQXOC5lN+xjG5zX8fjYBc/p65y2T6ox/5iDaEHFA+Sjzc5I5Xg7vd7l9xdkojpeL1x0+Xyz4vttwFL+JB0JygeY3HCZq3IJEB5Ca6mUiC5h3oW3/vZp+zMhoBWVWouVJTMmy3O/k/xLTdbunnd2um67pF611/biNX1YbTPyppB4pnqC8fFDoUOrFkBOoUOiUzAlFKJPkrfz8GdCF/VadvjSV/ZVe3OcJNIiBrf6gOhZCD1bdNyEfFIsYqvFvHZrqc7LQmdr6yu07YTjLudg41xYNCh0KnhtwQNA8gkf3akaA5QfOifavHY6hzo88Wd8CSJgihr7IS95v88QMY1O1262Uy2G7Xp2yqbnvfNTJz5beaqR2zMyRNp4gGn1eZv8FRImjecsEaVaFTpx09S2Qr7ehBPgiai6B5on2rs/gEJB/v/UZDmVoJIVctg1PYbrfqkbLdbq32dqb/mD/61uXBS8c73rePZK+kiIY45SN0wZpCoVOkb4+90OEeLXFIZAAxaFwiPR5DtO1I3zrp473h+JZgXTh62J8le6AJ+fCxFCeZ7XZL/KLBdrveZHM8Hx/+cvDS0UYzyc6kiIZqHRFBc4LmvgqdRILmwZbOiTuae2tHguYd7lvvdDtfdFd0ArIKdzXb7bYjH7WPO4Xtdis+v+xMl8n98PKz5t4W/Eq6a8nr5LQbxTR47aMGJwxZo9CJJSNA0DyOX8sJmpO/om/t+xlMv2x79JtUQJzlvylT5oWVjz79eivyUeLhTm23255sVjkdmezzwUtImzMkuY9STEM58ehYGLK1QqfmMRA0F0Hzou1I0JygeQt9qwW4JjO7vO1RcHiyB3JzVzsXi3x4zn1UeX4qO15VeX4iO15V+Js/LZz5h/A3Hrz7KUdKtiNFNdS+TgmaR1bo1HicoHkk7ehBPgiai6B5V/rWxx7PFrU9Ek46A5INFbkXSPmCN84dr2KUj9C5jxjlo0q/NPkLOunLobfeNRsdlonZD4hEPrijOXc091nocEdz7mi+Vr3AHc0T71slSWN6+KF4l2AtnfnwYknjkx9W+Uq+i9vtFrSJyOSjZuGUxkyXDeXj3wl+Bd219LWStqewhloDMEFzj4VOv76SoDlB86ISGUBuuNFnBYmkb/V8Tf7aPe+qR6IVkMvfM3eZpOt9yUdXt9v1en+Nzux4FcFMV67LLz39zTc2UFi+m+Ia4i50CJrHUegQNI9DIgmaxyGRBM3b61td68uvphSQRz/tr1IPIbciH13ebjeVmS6n4LMfdvt7XyJpDwpsiLvQ8TwAEzSvWOhUOAaC5gEksl87EjQnaN5C32pqrm91eesB9L4Cksv9csoDHpjtdks8zHa7Xo67pmz2eiM6u4Gr570U2UChQ6FDodMBiRQS2YhEGhLZev6qpyhmQIanenBI2S9z5Q3Kx9Tf2fbkI3TonO12i8tH//Z20rwrTjwy6A127I53byvpUAptaKfQqVuwljwG7mjeQjs2VeiEbMemJLJmQVznmp6qYI2mHUtKZJTtSN/qqW+91e186S3RC8iMvPerRzI3vup5bLcbRj48Fzje5CPdmS6Tfhj8ynFDb1PfJYyAeFDoUOh0vNAJ1o5IJBJJ3xrgmlwYy4g5ZQF17uhhj0haPDDb7aoN+Whou91yZ70B2ZTf9l7za/2ToGWmjQ5LeisFNxQudAhDiqB5n0KHoPla7UjQnKA5fav3vtXZz5MQkEc/+C9rF5apbLdrFQ40le12rcITU5npWvMjX7PotNf/KehVc9dDB0t6IkU3EDT3WejUPAaC5iJoXrQdyV+Rv2qhb40hf5XbvGQExK0eRK9akHotRqv0v2y3W+zMW93T3bpsOulH4S8bx+wHUOhQ6FDopCaRBM1F0LzFvtVnv1TtHi13a/aCq2MZQYf7P6X3SylLKoTcmHxUCXJUkg+lseNVHMvswi6/uu/4WRrTyym+kY/4C9a61y9BczICRdqxKYmsWRDXuaanKlijaceSEhllO9K3Bu5bL3Qu4P2qfQvIeD7rt0Nu6TJJ6zUhH/W+mHXlo8TDVZdeKcYdr6rJR4QzXcseWn8k7P7WK6e9Sk4zKMARDwodCp2BKXQImiORSGQH+la7IKbRtO8SrPmj+45L+rVf+ajyHStbfndku111d7vdALJ5+eLRuSuDXjFOcyjCkY8JHyIMqeSD5kkt7yBoTtC8ZMFK0Hyw+9bcXZSUgDzKL/zKR9ilOJ3abtdKPr+0fLS33a7ve7s4p8uClp8PvHtjSS+jEB9E8SBoTkagxjGQEQggkf0KVvJX5K9a6FvjzV/9Ppb7fzzGcMHn/dJf7c92u2Xlw2sAvlH5kF/50OTy8einCyogWpEdKGkaBfmgyUfIwVGKf1lAiWNIdnlHLIVO3cEu9iVX5mEaPvaCNRaJDPk9EUvnomjHMq/holp+VVxALPulXO6h+u/Cdrslnx7JjlftyEfoma41GHs4z8Pub+3cQfHEtyB9+SBoTqHTxUKnLYkkI5DGjwH0ra30rXkenYAUWoJ10b8cfL2k+/sWpF6L0Spt38R2uyWewXa7Tcrmr68+/c0PBytFTU6mAyjKB0U86tyMrkahE01GoGShE+rXeAuwjKbxQsfzMSSXEVAHMgKxSKT3bVlbkEj61hb61nHNGLs0SQGRcyanRVPKR3I7XgXebrfqcaew3a532fQx02X/F/RKuec9z5G0NcX5IMhHm4UOQfPghQ5B8xIDDkFzguartSNB80T7VrvcbX/FQ2kKiCQnLfQtH75DyHW+V1HseJXKdrve7+2i2u1trt9ObTXpZftTnHddPAiaEzSvcQwEzQNIZL+ClaA5QfMW+tbUbvRp8eU/pOIhdJncQilnu91Q8lF1lmEwt9tdhyEFFhBnL6ZI77J8hBwcJYLmLResURU6ddrRc6HTSjvGIpF1x3yC5uSvmmhHD+/heufGOPIWngGZtnH2C5NW+KhyA4WQI5GPigWQVXi3qLbb9Syb5Wa68pGZ034XrDw1Ocm9kEId+ag2MNT5tTyWjECdX8tjyQgEWAoU+tdyr+c5loxAnV/LY8kI1Pm1nPwV+asyElm7b71ZOy36TdICct67Dl7hpF/FIh9lFys1Jx/tbrdb3bDryofn9i73/D/MH527NNjpu+O9z5JsC4r1rokHYUgKnQErdAia93lbguYEzTvWtzp937k49+/MyjzZTAvqFItJbLdbtSxOYcerRLfbLfCxrw17ldiLKNi7Jh9tFjoEzYMXOgTNC48ZBM19nGeC5vStsfat2Q9jHYlLCYiTW9j/2BPfbrfE7Afb7cYhmyb3p6BXiXPPpWjvingQNCdoXuMYCJoHkMh+BStBc4LmLfStqQXNJ+5b79fdWXTb7z7GcJkn96QF2aofyF21k19lIIlTPmofN9vtemtvp/zGwIXrLpN+5SEh+Qg5OEoEzVsuWKMqdOq0o+dCJ8p2bEoiQ7ZjUxIZ8nsiguZRtGOwa/JHbt/547GOyqVmQOaPHnavpD+WHvrZbnfCExJOPqp4RRrb7U54zeW6IVjZanIytzMFPPIx9eMEzQma+yp0uhA0V/VjICOw7rhP/irxvrWfRAbqW81+EPPInFX4m4V+CtIAswyp7HhV5flR7XgV10zX0JAFExDd+e6nStqYIj5V8aDQodAZsEKHoHmftyVojkQORN+6XCOK8v4fNQTELQwuH15WD3Vhxyu22y3wdzZr2WY3BbxEdqKQT1U+2ix0CEMGL3QImhceKwia+zjPBM3pW1PqW/ML3Q4Ll8Q8Sg+X/YNsyC3Me9awfATKZLDdbmrb7U70lAfO+8zBKwIKyHaKcwc7qNy/JJYRCF3oBCtYFeY8R9OOTRU6dfp8T8cQ9YYBRa4Z8lfkr4q0Y4f6VnPfj320Lj0DcuFHDrlW0n1RyUfV0HmVsqYzO14lud3uOjjp3sDXyFMp6jsgH+yoE1mhw4466e9WFsvSOfJX5K98SWRHbvTp1FNuUd79vJaAyDlz0ny2241YPurHZVqSj/LtbbJ7Al8jT6Ow74B8UOhQ6FDoeC50asgNGQGPEtmvHclfdTpoPuFnsPlu10V3d09AJJmzi/wXCHWL0RIPs92ul+OOQjadCysgWY6ARC8eFDoUOgNW6BA0LzY+BJVIT8eARNK3+u9b/18Ko/dwlT8ayrILe728REHahHyEDp2z3W5x+Wju3i7Bl2CZ24YiP2b5aLtgld/3ICMQoB0lMgItt2M01yT5qziuSfrWgNfkmIbGv5vCCF5pBuSCjx52vWQ315aPqs9nu92CF0AY+ajXcfmQzdW/d/ZAsPLW5CRtSqEfo3iQEeCO5jWOgTuaNyuR5K8ikkjyV53uW00XuB1/cV9nBWTVMboLa8uHhxByp7bbLfVoYtvtypd8rP0Pbnmwq+OBD86SNI2CPzb56GCh47NIoNCh0PFW6BA0j0MiyV/F0bdGFDSfDOeSWH5VS0Cccxf5l4/6ofP05KNK/Z7gdrtV7KfATJeZVga7OsbyzSn4E5IPCh0KHQodz4VOjUKIjIBHiezXjuSvBi5oPjErtHxZ1Hc/X53hyn9o4xeNacgkubp1BNvtKuB2u9Y97vgAAEa9SURBVOrEdruTzXQ5l4e7B0ieb1rh2w1NisfUX8z6hU6IwauqkCcx6xGDRPbt2P0eQ3IZARUMgsfcjjFck3UL1lgkkr61G32rJOmn7nlXPZjKyF55BuT80VffLenqap1Tg/JRJchRST6Uxo5XiW63O/nTsoA3IcxnUvxHLB/cdXfdx7mj+RR/xh3NuaP5JI9zR3P61mT71jWe+u2URves1l+bLmpePko8XHXplWLc8aqafFjJBq38I0hLsukUcAYkG56OALQpHmQECJrXOAaC5gEksl/BStCc/BV9a3N96xo8omzkxwMjIM7+GkQve7I6td2uurvdbr3CIqx8PNpcvXA1cI8Aemvy0cFCx2eR0IlCJ1BGoNFCJ5aMAEFz8lcxSCT5q2b61gkr8h+62fOXDoyA5NmG8+S0pNAJDxRC9isfFYslK/n80vLR3na77d7bpb4i1cI5BCQ2+aDQ6VChE0BuGi90PB0DQfPA7UjQnKB5ycfjDZpPUq/k30lttK8lIPNH910u6adst+s5AN+ofMivfMiXfJiPQ6jZIAhIs+JBoUOhM2CFDnc07/O2SCQSSd9agHulB88bKAF59JR9t/z1H3q73ZJPj2THq3bkI/R2u1XaraxshjMQxKAp+Wiz0CEMGbzQIWheYhwgaE7QfLV2JGhO39qf77jZi8PdkiAQw/VfYsWPpGnLJc1oSj6s3AskIR/d3W7Xah1Fe/IBrYpHo4VOyMHRc6ETrGBVmPMcTTs2VegUfLzS96QpiQzZjlIasx6K/Jqsu70ufWs6fWsBXP6NFCuA2jMg80fnLjWnC1qXj8pBjo5ut1vx+UncWBK6LR8EzSMrdAZ9Rx2C5uSvJvgMBM0T7ltTDZpP+DrXa6fLfzmQAiJJWa7v+S9GSzzc5I5XqWy3W6EDi3m7XT+yCUnIB4UOhU5UhY4nuSEjELgdyQiQvyr5eGpB84lf6mvOpVkMDft4ETeW/9CmZeMTvV4Xt9st/Xy220U+oFinXfsa5K673NG84jFwR/MW2jEWiaxTsMYikfStHbqjefFBNR/+71QrAi8zIBed9Or7JM33V9/Gvd1uqXeLarvdKv1TujeWhETkgzDkuo8TNJ/izwiaEzSf5HGC5vStyfatlbjE7XrpjQMtIJLkzL7bTgg5ve12q//KUlc+POc+qjy/IdmEmMSDu+5yR/Max8AdzQNIZL+ClTuak7+ib22ub606vLokw+feBWRsPP++9Ne7UscUQu7ejlcW6Y5XNaQL+eiofHSw0PFZJCQRhuSO5mkUOgTN45BI8lf0rWW+z5VZrvHh7yIgki478TV3yFbthhVTDiA5+ag/idCSfNRrb+RjwOSDQkdphCG5ozlB8xrHQNB8Yon0/aOL976131hM39rarMdfX/5/3W7z/4KAPIpz7ivx5gDYbjdW+YCuiQeFDoXOgBU63NG8Zp+PRCKRg9S3emDIvph6teBVQDbLVvxAsnvK18QR7ngVfLvdKl7BdrsQu3y0WegQhgxe6BA0L9znEzT3cZ4JmtO3dqlv9YTTddpx0WUIyGqcMzp3paT/jks+PBdS3uQjdOg8xu12SzyMfCQmHoQhCZrXOAaC5gEksl/BStCcoDl9a3N9q9cx94up3vsjmICsekX7z6oFb5o7XrHdbtuyCW3LRwcLHZ9FAkHzSAodgubkr3xJJEFz+tYy32evrNSKoaR3vwomIPNHX/07Sb/s384FG4ztdtluF9KUDwodETSPqdDxdAxkBAK3IxkB8ldd6VuD8D/uuZfdow6QBXlVs6+UlQ8fzch2uwHkI+LtdlGUNsWDQodCZ8AKHYLmKjuuI5FIZPClc10Omk/41u5LXakkggjI8Mrxb5v0SG35GPDtdstX3AnveIV8JCQfbRY6hCGDFzoEzQv38wTNfZxngub0rRWu+a4HzSfmD3r2gksQkCm48JS5Dzqn71aocSsXpLW+HJFut2sejjuZHa+qfDQspGHxIAxJ0LzGMVDoBJDIfgUrQXOC5vStzfWtwYfhL3UhfB5UQCQpc+5zbLdb9fvbxHa7oUPngbfbtQg6g4GSjw4WOj6LBILmkRQ6BM3JX/mSSILm9K1lvs/BWa6x7GtdqiyCCcjFo69cJOmK5uTDc2HlTT7YbjdIeyMfccgHhY4ImsdU6Hg6BjICgduR/BX5q670rQ3h9K2uhM+DC8iq8+U+3Zx8NLTdbqlHE9tuV77kI8KZLqggHhQ6FDoDVugQNO/ztkgkEknf2gp59umuVRlBBeShu+46R7JbPdT3LctHlc+Z4Ha7VewniRtLgrcvOUHzgoUOQfM4Ch2C5nFIJEFz+tYu9a0N43SB2/myqxGQElz1xaPHzNx/lGvWDu54VaXkY7tdT+0N5dqPMCRB8xrHQNA8gET2K1gJmhM0p29trm9thbO6WHFkod9g5vD0z0r6i8+CtFYxGumOV/HJR+jtdks+HfloQD5CFjqEIeModAiax1HoEDSPQyIJmtO3lvk+t8IftNPCnyEgFThv9OCHnLPPRRFCDr7jFdvtFj/00DNd4E0+yAiIoHlMhY6nYyAjELgdyQjQt3alb211eD7LOeUISEVWZO7ftPqNCevKh1Xf+amL2+3W6wAblI8m7+0CBc8rhQ6FzoAVOgTNS/fpSGTTEjmA+SuC5hPxgPL1v9HVCqQRAVk0+uq75dyX/chHxULLSj6/tHy0t91upaVXqWy3y45XAeWjzUKHMGTwQoegeeE+naC5j/NM0Nxf31rhmid/5blvjWKY/rzb9fyHEZCa5OP5SZKW1ZePBne8ikY+5Fc+5Es+2PEqTfEgDEnQnEInLonsV7ASNCdoTt/aXN8aBSvUyz/b5WqkMQG57MTX3CGnz8e/3W7ZP+jCdrtVzIsdr9KUj5CFDmHIOAodguZxFDoEzeOQSILm9K1lvs/RjNdfds+5/DYExBMuGzlR0pKiBSnb7YaXD1PFc4t8dEs+yAiIoHlMhY6nYyBoHrgdyV/Rt3alb42KMWU6tetVSaMCMn/0sHsl+/dGQsgpbLdb8flJbLdb9UiRjwBnlkKHQmfACh2C5jX7cSSSoLnna56geXGc+0+306KbERDP9MannybpvuIFaYe3263Q+SWz3W6J2Y968pELYi10CJoHL3QImhfuxwma+zjPBM399a0VrnnyV5771igZUzbe+dmPVgRkwcmHPiBz/1q8IPVYdHmRjypvx3a7YdpOUg/NiLfQ8Sg3BM0DtiOFDkHziu1I0Jy+Ndm+NVKcvux2/PlNCEio8zuyyX/IuWv6X2Ohcx8xbrc7xSux3W7REzLg8hGy0CEMGUehQ9A8jkKHoHkcEknQnL61zPc5WsaU9U4ZlGqlFQGZP7rvuJn9Y7vyUeUSSHDHqyrPT2K7XeSjnUKnX0MShiRo7qsdCZqTv/LVjuSvyF8lMYR/ZVBmP1oTEEm69BOv+aHkzm9PPmpst1vw+XHueBWjfFRvbxIgFDoUOhQ6SOREb4tEEjT30bd2IX+VBCs1ZCcNUuWStfnmbnj8HZKWJ7fdbv1JhJbkI1AmI+EbS3ZDPtosdAiaBy90CJonVOgQNI9DIgmaN/djAEFzP0O5fWYQdr6KRkDmj879o6TTan2R2G7Xn3xUDZ1XOVLkw8OZJAxJ0JxCJy6J7FewEjQnaE7f2lzfmgz3K7MTB62Kydr+ACsf7p0k0w1xbrdb5bvOdrth5EPIR2OFDmHIOAodguZxFDoEzeOQSILm9K1lvs8pDen2ETf78vsRkIa5/Ky5y5y5Y8p/m5rYbjd06DzG7XZLPNzkdrtmlc/YQMkHGQERNI+p0PF0DATNA7cj+Sv61q70ranhfq97p31pEKuZLIYPccmJr77AyX25VBFWZbvdUo8O6na7oUPnyEd18aDQodAZsEKHoHmNdkxBIiPPXxXqW7mjeTx9a4r0TnD7zh9HQFpk+ciy90q6xb98VBECttsNIx9VC+9Bh0KHoPmAFjq+xcBLodPBjEBrElnzGAiai/xV0mP7j9yzL//ZoFY20QjIFaNvfMiZHe1fPmqGzlOQD/Nxqca93e5gaghhyIEpdAiai6B5kxKpDkhkgB9d6FsT7FuTZVzOfUgDTBbTh7nkxDnnSfp85T7Nt3x4jmg0Jx/1Q+fIRwzyEbLQIQwZR6FD0DyOQoegeRwSSdCcvrXM9zlhnH3WzV64GAGJ6QONLDlB0tWTVeixbbdb7vJIfMerKh8N+fAvH2QERNA8pkLH0zEQNA/cjuSv6Ft9tSNB85rcrmUr/kUDTnQCMn/0rct7mY6UtKw5+ajy3W9iu93QofMw2+2W69BLN1/HxYNCh0KHQgeJDCTrrUgkQfM4+lbuaB4Nzo5zz7vqQQQkQhZ+/LWLnXMfrFaGst1u1Y/hPffBdrv+2puguQiaU+g0V+hwR/PmfgwgaE7+aoBGfaez3exFPxDEKSCSdMknXvMZOfs62+0WOeKObLerijNdyYsHYUiC5hQ6cUlkv4KVoDlBc/rW5vrWznCv8vF3oR6RC4gkzVi+7DjJfsd2u3UKAqWz3a4FaeTI5SNkoUMYMo5Ch6B5HIUOQfM4JJKgOX1rme9zh3DuOLfzFXehHgkIyPmnv/lhZdmrJf2lcDEXbLtdsd1uYfkgdF5bPsgIiKB5TIWOp2MgaB64Hclf0bf6akeC5p75upu94By0IxEBkaRLP/Ha6yV7o6ReMPkoOPsRn3yE3m635NMbk4+UbYVCh0InlkInloxAzWPgjuYif+WjbyV/FU/f2jlu0djIP6AciQmIJF124twfm3PvaVM+BnO73RLPQD7qmR2FTjcKHTICDRc6Aa6XxiXS8zGQv6rYt1Y4BvJXnvvWTjIu5450u83/C8qRoIBI0oJPvvbTkj5TTz6qXAtd2PEq8Ha7VY97YOSDMOTAFDoEzUXQHIlEIulbkY/HcB9xsxcsQDcSFhBJ2up6O8HJzq0uH+1tt1tp6VUq2+1aE9vtpiwfIQsdwpBxFDoEzeModAiaxyGRBM3pW8t8nzvLeZq94DRUowMCcs45c3tjy/Q6meaXv1zYbjeMfHguygdJPghDiqB5TIWOp2MgaB64Hclf0bf6akeC5sFwulFDY29yTjmq0QEBkaTLz5q7bOX0Fa9w0pWDtd1ulXq3CztepSgfFDoUOrEUOgTNW5dI39dLaxJJ/iqOvpWgeQIsVS9/hdvxF/ehGR0SEEm6YvSND2Urxg+SdE3/y6Yr2+3Wy2R0cbvdOLs3Ch0KnZgKHXWg0AlwvTQukZ6PgfxVoHYkf0XQ3EMRYHqb2+Xy36IYHRQQSZp/xpH39saG95X028LyUWW73YrPT2K73apHyo5Xg1HoEDSn0EleIvv9GIBEIpH0rc31rYOgH/ZRt/PCszkRHRYQSVp0+qvvlrSfpN8E2263wsWWzHa7JWY/YpOPuLo5wpAEzVMpdAiaEzT3JZEEzelby3yfB0E+9AW386JPciIGQEAk6bKT5t6zQsP7Sfq/elLOdru1j6GaS3RbPghDiqB5TIWOp2MgaB64Hclf0bf6akeC5g3xQ/1+m3dwGgZIQCTpFye9+r7h6fobST8tVvDUlY8+41sr8lHi4YS3242nq6PQodCJpdAhaN66RPq+XlqTSPJXcfStBM2TwnSh1h95nZt7To+TMWACIknzR+cufWC6XuFk3wovH55zH1WeP4Db7U78z21c7xQ6FDoxFTrqQKET4HppXCI9HwP5q0DtSP6KoLlXFigbeZV72vzlnIpyDHfpYBaPzl0p2Zv2/sezb5P0gSTkw3xc1t3fbteqnNsmxSOqQqfuF85jodNKwRpLoVP3Gkxh6ZwCt2Xb7ag+BWsT16THY4h66Rx9axo/BsBqLJQbOcjNnr+UU1GerHuH5GzBSa/7oExHSnqk1KWUyna7VXa8Sni73Tg6QsKQBM2bLHQImhM093wMBM3pW5EPj6WmLpAbeTnygYCsw4KTX/ftTPnekt3s52JKQz683l8j2h2vIpMPwpAiaB5ToePpGAiaB25H8lf0rb7akaB5w3xXM0cORz4QkEm59OQjfjWW5XvING/ti4ntdkPIhwZMPih00ih0YskIEDQnaB6DRJK/iqNvJWieJM59WrMXziHzgYD05YoTj7xrwSlz95O5d0sa68Z2uyUebnS73dA7XnkJzPhxEgqdhAqdfu1I0JygeVGJ9HwMBM0DtSNBc5ZceWdcch9ysxf8g3PKOR0ISFFltQWnzP2Uy93eJt3g4xprd7vd0KHzBLbbbVM+uOsuhQ6FDhKJRCKRnexbmfWYgPvlspe7Zy84hVOBgFTislPn/mJ8xvhuJn1RE06FFLvQ2W7X03FX3fGqjb6RMGTBgjWFQoegeTqFDkFzgub0rc32rbAGTlcpd893sy+7iJOBgNTiitE3PrTo5NcfrZ79jUnXNyYfbLdb6DNFKx+EIUXQPKZCx9MxEDQP3I4EzQma+2pHguaNj/zOfVrTZu3ldllwA6cDAfHGwtOOuGzaetlzzXSGpLHm5WPAt9u1Ck9sRT4odNIodAiax1HoEDSPQyIJmsfRtxI0T5Q75dzBbvaCf3Dbn7eC04GAeGf+6Nyli059/fuG8t5sJ/fjavJRZRxiu91i3WjbnWKvwPFQ6JARkMgIFG1HgubkrwKIQbR9a8FjIGgeE+doaOzZbvaCn3IqwjLMKZAuPe0N10s6dK8PfPtw53SySTsWl4/QofMw2+2WGwwq1DK+5SO6fpK77nJH86JfzAG4o7lZ5O0ocUfzln8MiEoiB71vRTwm4AZl7mi304ILORXNkHEK/srCU4/44YL1rnu2c27u1PmQpuSjxMNVl16x3W4F8SAMSdC86N8PSNC88t83JZEEzQma07ciHxOyVOY+pvVHZiMfCEi7jI7mC05+/TkrHnhotklHmemPdS/iTm23qwHZbjdYwUrQnKC5r3YkaE7+ylc7EjQnaD5wjMm5z2lltp3becEoNxZsHpZgTcJVXzx6TNKXNDr65b2XPfMQM/dBk/YqdBFbhYs+le12reTzS8tHy6Hzyp02yztY3lGjIA5V6LTSjh4kkqVzamTpnGLPetC3NtOOA8VKOft/kv2rm335HzkdCEi8jI7mC6RzJZ37wvf/v70y9Y6R02slzajUl1UoeNPcbrdKd1pWPqxvTDy8fFDoUOhQ6Ay0RJK/QiKT7lsHBOcelPKvarx3utv1ils5IQhIUvz8tNctlLRwn3f/1/Fj06a90eTeJuk5U/dlobfbLfn0SHa88iEf7XerFDoUOhQ6SCQSiUSm2I4Dw7Uy93m54S+72fOXcjoQkKSZ/29v/Yukf5f073t/6Fvb9Xo6LFM2x2R7+ZYPK/cCSciHj+122+1arVJbplWwplDoBBCDxgsdj8cQdaGTwva6ivya9HAM0e9WRt+KfHjhTjl3tpx92+208OdUrQhIJ1lw8htukPQpSZ968Xu/uVM+lL0iNx0g2YskTQsiH5WDHF3ZbrfNzpVCh0KHQid6iYyqHZHIgZPIYO3oo2/tLDfL9FMNuf/R77ae5+ae0xMgIIPCZWe88RpJ10g6aZ/RszdYvnR8X2W2vzO9SNKukkYKj8ue5KPWjldRbrfb5tIrlnewvMNHQZxCocPSuTR+DGj5mmTpXGIS2SGce1Bml8t0kbLsJ272ZddQhSIgoFV3Wdej4XVJ2n30CzNnPDxz99wNvdBye66TdpK0g6Rp0e54VeX5QbfbnUA+8pbEg0KHQodCZ3AkkvwVEpl035o8j8jp9zL9Vk4/Vy9fpJ0vX+xcMxUAICBJc9Xo0Y9IuuzR/0iS9hmdNzz2yK1P7/Wy2ZKe6jI9NZee6syeIulJkjZ9vI2i3vGqie12rdrKh9blg0KHQiehQoc7miORAyORg7J0LglySfdKuk3Sn+XczVJ+s6Q/Kdfv9OxFNyIbCAh4ZP7ovuOSrnv0PxOyx/HfnOWGhjbVyPimsnzTVZdqNtPJpq96RrZh7mzydnSP/5+C9NaYVSjzlxM9Oe/35EKrNPNJP4vlbkGjjUZGoOFCh6B5M4WO/lWy2/pf8G7qvqPCQ8VfP6/5GhWXhLtAnzH3+Bknen1X5zO6KU6hx8+oAJ9xsvPofH7GvOBHrXi9FP7cTtGTa1yZlqz6uG5MslU7UY3rAVl2v/LsAbfb/L9QEQ4ejlMAMEnJdue7j5DZf/svWGOQD4LmSORqj+dDu7inf+u3XPUAANAEzIAAlHIFlnewvGOSxzsZNAcAAEBAAFqSDzICweWDjADyAQAACAjAQNPTo4sUCZoTNO+QRBrmAQAACAhAxJARIGjuox1TkUgAAAAEBKBFHp8CqVDsNSgfUd91l6B5GhK5kssdAAAQEIB4ISNA0DwViTRfdwEFAABAQAAGUz4ImheTA4Lm3D0ZAAAQEICBFg+PRTFB8yn+maD5qod9CBIAAAACApCofBA0J2gei0QiHgAAgIAAIB+15IOgeRzy0QWJBAAAQEAA0hETguYtyQdBc4LmAACAgAAgH/6KYoLmU/wTQfPgEgkAAICAAMQsHh6LYoLmU/wzQfNVDwdcOgcAAICAAMQuHwTNgwXNo5r1SEEifRwDAAAAAgLQffngjuaRy8cASCQAAAACAhCRfJARaEk+CJoHXzoHAACAgADE6yHei2KC5lP8E0HzZiQSAAAAAQGIVDw8FsUEzaf4Z4Lmqx5ue+kcAAAAAgIQm414LFibkA+C5gTNkQ8AAEBAAAZHPgiaRy4fSCQAAAACApC0eDQhHwTNCZr7kkgAAAAEBKBFepKcn2KQoPkU/0TQPA6JBAAAQEAAIoZfywmaezqGOJbOLbA/vbZXXSL7kUfejgG/774ezwPlr0pfkyXaObb8ldnH3bMvO4vxCwABAeimeLQqHwTNCZqXlshZYQrWCscQnUSSv0rjx4ACr+G0HmMYAAIC0E35IGhOoYNEIpHNS2TFazIhiQzZtwIAAgKQlnikUOgQNE+jYE1BIlk6F/yaJH+FfAAgIADIB4UOhQ4S2UQ7IpFIZJN9KwAgIACpygmFDoVOGkHzGu2YgkSydC4OiUxh6RwAICAAqYoHhU7kBWsMhQ4ZgTQkkvzV4EgkACAgAKnKB0FzCh0kEolEIv1/V0L2rbkAAAEBQD6aLVhTKHQImqdRsKYgkeSv0vgxoMlr0jGMASAgAImJB4UOhQ4SKYLmSGS3JBIAEBCAWOWDQidgwZpCocPSuTQK1hQkkqB5PH0rACAgAJE7CIVOjAVrCoUOGQEkEomMSyIBAAEBSE4+KHQodJBIJBKJjK8di14zAICAAKRvJBEVrCkUOgTN0yhYU5BI8ldp/BgQi0QiJwAICECnxINCh0JngCWSoDkSmbREAgACApCcfLC8g4xAKgVrChLJ0rk4JHJQls4BAAICgHzEUeiQEUAikUgkstMSCQAICECU9DT5jasodCh0kEgkEolsvh199K0AgIAAJAcZAYLmqUgkGYHg1yT5q8QkEgAQEADkg0Knk4UOQXMkEomMSyIBAAEBQDwSLHTICKRRsKYgkSydi0MiCZoDAAICMKDyQUagO4UOEolEIpHIBwAgIAAh5YNCh0IHiUQio5JI8lcAgIAAdFdMyAhQ6CRRsKYgkQTN0/gxIBWJBAAEBAD5oNDpZKFD0ByJRCLjkkgAQEAAEI8ECx0yAmkUrClIJEvn4pBIguYAgIAADKh8kBHoTqGDRCKRSCTyAQAICEBQ96DQodBBIpHIAZVIguYAgIAAxCQfBM0Hp9AhI0DQvMYxkL8KIJEAgIAAdJGeJEehM9iFDkFzJBKJjEsiAQABARg4WN4RR6FDRiCNgjUFiSRonsaPAQCAgAAgH/EUOmQEAhQ6SCQSiUQiHwCAgACkKh8UOgkVOkgkEhmLRJK/AgAEBADxqFSwUuikU+iQESBoXuMYyF8FkEgAQEAABo4pU+gUOp0pdAiaI5FIZFwSCQAICAAkWOiQEUijYE1BIlk6F4dEEjQHAAQEAPFostAhIxCg0EEikUgkEvkAAAQEIFX5oNBJqNBBIpHIWCSS/BUAICAAUKlgpdBJp9AhI0DQvMYxkL8KIJEAgIAAAIVOJwsdguZIJBIZl0QCAAICABW8hIwAGYEi7ZiCRLJ0Lg6JJGgOAAgIADRZ6JARCFDoEDRHIpFI5AMAEBCAZMWDQiedQoegORIZi0SSvwIAQEAAopUPCh0yArFIJEHzNH4MSEUiAQAQEICGxYNCp/WCNVWJJGiORCYtkQAACAhAVQOJuGBNodAhI5BGwZqCRBI0T+PHAAAABAQgHjkhIxCg0CFojkQikcgHACAgAIgHhQ5BcyRyYCTSa/7qYUl/kOxGyT0gaamcPaxcTpk2UK71JW0qp+1keqakGc20I/IBAAgIQKLyQdCcjEAsEknQPA6JzK+RuYvldJFs+P+004W3OFes0jdTpute8lT13PMk7SfppZK2b0ciAQAQEICGxSOFQoegeZQSSdB8ECXyOjl9TeO9b7qdL72laq/knHLp0hsl3SjpHEmy37706crG3yTpTZK2Qz4AAAEB6KR8kBEgIxCLRLJ0Lg6JnPQi+qEyneZ2mLcwVG/ldr74T5JGzfQxLf6bfeTsg5IORDwAAAEB6LJ8kBEIUOgQNEcik5VIk3P/K+c+7na46Oqmeq5Vy7gumSdpnv3ub56vLP9nmQ5FPgAAAQGImp4kl1Kh47lgjUE+CJqzdC4WiayUv/qjlB3ndrzogjZ7MvfsS34p6TBb/JKXSvl/yPQs5AMA2iTjFACUpUihY33+vuTjIYPm5ukzrlOwBg4oF/o1vsIxFG7HWCRyKvnwdAzB27HOd20KOQi55Mqm/IdxORuVbT7b7dSufKwhIrMvvVjLlj1Xzk6TlJc/zwAAfmAGBKCufPBreXMF6+MPEzQnaO6jHQNck053y+wNbsf5F8bYg7nnXfWIpA/Y4pf8VJb/t6QtEQ8AaBpmQAAKi0edX8sr/Iob3a/lBY7BYv+1fIp2bDSg7OkYWpXIGsdgAWaXKklkiWPoP+shSfO1cmRnt1Oc8rGGiMy+9GJZ9nzJfkn/DgAICECU8hG6YC1d6FQr1qZcclW3YA2wjGaNh5ooWFOQSHVAIgPITeMSuXZFrx9qw+UHu13PvzuVns3tfOkt6q2/r+R+Rj8PAAgIQOzyEaKgrFywpvBreY1jSCYjUEciSxxDtBLZrx1TkMjK+auvaIfNX+2efPmy1Ho4t+v5D8s9cLgevY8IAAACAhCtjxA0jydoXkFuCJoHkMh+7di5oPljJfx3tOPfvN25c3qpdmtu9uKVumabI2T2fTp5AEBAAGISj9YLnQrFWrIZgQDneUL58HgM1pZE1jyG0BKpDkuk2TyNTH+Lc6N56l2cm3tOT0vsSMktosMHAAQEIAb58C0GZQudKsUaQfNmJdLreSZoHodETvn312ho7BVu+/NWdKWrcy+6fJlGhl8h6c90/ACAgABEIR+exKB8oVPuMxA074BEqgMSGUBu2g6a/5XlynWk22Hhkq51ee5Z8++Vy+dIGmMAAAAEBKB9C2mj0BFB8xpyQ9Dcs0QOdNB8tSo9f5d79rzfdLXHc7Mv/4Wc/oW+HwAQEIDo5IOgee1jIGheUCIJmgf7MaC0ROY/cTte8qXOd307LTxF0hWMAQCAgAAkISa+Ch2C5gTNPR0DQXNfErlCbviEQejhnFOuLDtOTj0BACAgAG2LB0FzguY+zjNB8zgkspTsn+x2vOgPg9LbuZ0u+z9JXxIAAAIC0KZ8lCiECJpP8hBBc4LmMUlk4WO4T9LpA9ftjdu/SHqE/h8AEBCAKOXDW6Ez9eNRZwQImhM0j0Eig+Sv/s3Nnr900Ho+t+uiuyV9hTEAABAQgEbFI4Wgec1jIGguguZF23EQgubrPL5E4+OfHdxucOhUSSsZDwAAAQEITr+bGxM0J2g+QBKpAZZI09fcLgseGNSe0O186S2SfsCYAAAICECrEDQnaF7ycYLmNduxoaD5xEPlNwa+y3P6Jv0+ACAgAOElI2++0JEImk/xeIpB82D3aFHaQXPf57lWO055DNe52Rf/YuC7w2XLz5N0b9oS5dhSGAABAYj+8ljRcKEj7mgudS5oHqwdCZo3IpGm/0dfKLnnXTUm2XfTPgpbQUsCICAAcZM/FrrkjuZ9HydoXlAiCZp7vV6akEhnF9EZPnZK3MVpf34EBCAWhjkFAJPgbEX4glVKY9aj38MxBM3riIdniWylHT3IR+vtGItEPv7/LtO09a+gM3yU3OZpyJkkl+YBZAgIQCxXI6cAYNJCZEX4QoegOUFzXxJJ0DzATOTlbvvzKFof5dF7glyTbsXDDAgAAgIQ/dWRPdhgoROgYCVoTtC8qEQGkJu0guYTS6TTb+gI1zlXVyf82ZfSfgBxwBIsgMkYW3G3spEwBauqikdR+QhUsEoesh5KpGAteAwsnesjkZ5fP6RErvtdv46OcO1zkv1BztL87D3dTQMCxAEzIACT8bTxe7XG3Qi5GR1B87U+I0HzKf4soaD5ZE/LMwRkbZzSPSdDdg8NCICAAMQ9zrpzepIe4I7m4o7mXZJIIZGFJXIkv5mecO2qwW5M9rOvnH4vDQiAgAAkgN3ZSKFTR24ImougeRGJJGheWiJt5CH6wLVPT5bqOVmp58x/kAYEQEAAEhhsdUMjhU7lgpWgOUHzohIZQG66EDSf6j3yO5fQCa5zjlINct/qnIz2A4gDQugAU+H0x1qFVIpBcy/iIRE0b7kdG5VIz6/fZNB88gfG3OzFK+kE16KnJUn+dOn0JxoPAAEBSAS7Yc17bnEzugG8GR0SOZgSmejN9gIz1HOyBA3E7HoaDyAeWIIFMOWg5a7/a5FC0JyguadjIGiuBHYrG7Yb95lBJ7i2lrkN0/zczIAAxAQzIABTMTT2W+X9LpO6v5YX+BXXAolBY+IR4D0an/VoSiJrPG4BZpeia8eSElnn78d7G0paTke4BmkKiGXMgABEBDMgAFPgnvKd2yXdUajQIWg+yT8TNH9cDgiae2jHBncrW96bRS+4FvnQRml25tzVHgABAUiL/ytf6MRyM7o627LGcjO6OtuyxrJ0LsA2xklJpKUpkUMj29H9rXOenp7gh77XzV7wZ9oOAAEBSGi8dVeVL3RqiAF3NJ/4ce5oPkk7ckfzYBKZ2zPpANc5Kdsn+KGvpN0A4oIMCEA/XP7zv26Iw7asjW/LGmppW6vt6EE+2K1MwfNXTgjIOufEPTO5u2mYfkXDASAgAGmxfPoCzVgxJmkkXEEsguZRFKwpSCRB8+Yk0najA1zn+7dbcjsUZ/o5DQcQ22UJAFPidvjKEkm/JGg+1T8TNH9cDgiae2jHBoPmU0vkHnbl7jPpBR89K9futY3k0lqC5dTTypFLaT0ABAQgRS72LgZrFjo1CinrU7ASNCdo3oREJho0n6gd//qUaVpv5p50f48yZi9Nz5p0pdtt/l9oPAAEBCA9LL/QmxhMXOj4LYq5Gd26n5GgeWCJVAckcqJ/tv3pAB/Fuf0SFJCLaTgABAQgTbYdXyC5e4IWOr6KNe5ovm7B2spuZbEsnasjkbEsnasjkTWXzjm9ziy10EOAOn7VXeFfmV6VYxcygAEgIABJ4tw5Pbn8B2lkBAIsBQr9a7nXgrLRjIBfMVj9exJCIqNaOteURPZrx76S+TRds/deA98JPrLyUEkbJ/ap79Pd08h/ACAgAElryHeDFjoEzUXQXATNY5RIy9808N1frjck+KnPdfvOH2fsAkBAANLl4ZUXSXogaKFTtlgjaD6xfAQrWAmadzBoXuAzujfYdftsPqhdn12993Zy7tD0PvlUPxoBAAICkMJQNvuclTL9d9hCp8TjBM3X/YwEzQNLpDogkZVkf32NjR0/uJ2ffUDp3TdsidYfvoCRCwABAUifIf1X4EKn2OMEzdctWAmaV5RIgubFPqPeadfuteGgdXl2zYu3ltPfpidNOts9bf5yBi0ABAQgedxT//sqyX4dttAhaE7QvMYxEDSfWCJrCZgkaVP19KGB6/Ss9wlJMxIUkP9kxAJAQAA6ZCH2n+EKHYLmBM1rSqTv81yrHVOXyHWe/l77/d7PHBj3WLz3HjL3lgQ/+mK308KfM1gBICAA3eHh3te0ThidoDlB8wKPEzRvSCJ95K8mZLp6+vRAyIcpk9m/J1onfJmBCgABAegUbvY5SyV93l+hQ9CcoHlMEqkOSKRqfsYp//5A++1ex3S+o1u814clPS/BT75EYyP/xUgFgIAAdA/TpyRbTtCcoHkaEknQvNhnLPorhM6y3+29a2e7t8V77yHpo2l+evclt9v8vzBIASAgAJ3Dbfftu2T2Te9i8HidRdCcoPkUjxM0n1giawlYKWZI+nYXd8Wy/3vxFjI7W9JIgh9/XFk+EEvkABAQgIFl6BOSVpYvdAiaEzSvKZG+z3OtduxY0Lx4qb6jevpfWzx7Wmfk48rdZ2pafq6kpyR6BOe4nRbdzNgEgIAAdBa33X/fLOlLXoo1guYTy0ewgpWgOUFzH/WuXibb5Gtm6Y+ldvacIa0345uS9kizQ1ZPbugTjEwACAhA9xnWiZKWETT3fAwEzQNLpDogkar5Gb2V7q/X7/b6j5QlxK7cfUQ73f51mV6VbF+cu6+72Zddw6AEgIAAdB73lO/cLumMyoUQQfN1C1aC5hUlkqB5sc8YoiPQ0bpmr/9OcTmWXbn7TE2f8X1JRybcFa/QUP4xRiQABARgcJg5crKkW0oXrATNRdB8iscJmk8skbUELGQlr9fJNj7XFu+5aTLysXifrTRjvQvkdHDivfDnyH4AICAAA4Xb6hsPy+kDpeSDoLkImveRSN/nuVY7DmrQvDQHyLJf2zV7vTB6+bjmRS+Rjf2fZC9KvAu+W7n7V0YigMRqJ04BgKcB/YbXzZNsn7DioUQK1oLHEPWsR7+HY1g6V+d74lkiW2nHqORjdVbK2T9q8RM/5eae04uqn7py9xHNmPEhSf8saTj9jte9ze284CuMQAAICMBgCshNc56m3P1W0vpxFqwxyIf1eaqnY4j6zvRIZDPtGAW/lnPHuNkLroiij1q8994y+7yk2R3pdn+p2Qtf6JxyRiAABARgcCXkhrnvlXR6fPJRt2D1+B5RF6wpbBigmm3ZtkQWOAbzcR6iGWV7MvcVDY2f6Hb8+U2t9Eu/3/uZyu2jMr2hQ+P+mJy9wM1e9GtGHgAEBGCwBcTmDOlGLZTcHs0UrE3IR+iCNQb5KJAlqSMvkz0eVTt2RSKjLpi/oSw7xe244A+N9EfXvOjZ6rkPKdPrZRrqVmfrPuZ2XjDKqAOAgACAJLvxNTsoH7pSsvXDykdCv5YHK1jl4dfytmc9kMgBkI+1D2ShpK9p+vjZbvsrHvL64ov33FQ29HpJfyvZCzrazf5Ky5fv4Z531RgjDgACAgCPFQF/eu1bJfcVb2KQXMHahHwQNCdonjwrJC2S2UUachdpZNav3PbnrSjV1yzacz1tlD1PudtPzvbTqjuZj3S4e12hPH++2+Xy3zLSACAgALCOhMz5lta5uRdBc4LmSKS/duzciNyT6SaZrlNm18u0RMqWyukByZzMbSxns5RrQzn3TMmeJempAzWWm/2D23nRpxlhABAQAJhonLz+DbOUrbxS0vbNyAcZAYLmsUjkgAXNoSm+q9kLX+scXw6A1OFGhACh7H77bz2kLD9csgfTuKO5yn/GiR7njuaB25E7msNA8me5/O3IBwACAgD9JORp/3utzN6iYknkCf6ZO5o/Lgfc0RyJhEHlEeXu1W725fdzKgAQEAAoIiHP+N/vS/pYoWIrql/LS8hN0IK1zmfsN+sRQAy8S6R1QCLNg0TCgGJy7i1ulwVXcSoAEBAAKMN2//Ovkn11ymKtcMFaoeAMUrBOJR+ejiH4rIfn2aUgEqkOSKRqfkYYWJxG3ewF53AiABAQACg7hjqZlmdHS7pg6hrO81KgaDMCdX4tr3kM3mY96khkLEvn6khkE0vnYLCxb2unhR/nPAAgIABQVUJmn7NSYytfI6dfTVzDkREgaJ6SRPZrR4LmUIuLNX2jtxI6B+hoTcQpAGgWu+HwLWUjl8j0LD/Fni/5KFiwBhEPcUfzJtsxaokE0C/lRl7qZs9fyqkAQEAAwJeEXDfniRrK50v2jLgL1ibkgzuac0dzgMe5ViMjL3bPmn8vpwIAAQEA3xLyx1c8WW7oEpmeFqd8cEfzYnLAHc2Z9QBPFcl1GtJL3Q4Lb+dkACAgABBKQm585bbqZRdKenpzBWuJ9+CO5lP8M3c0X/UU7mgOXsqR38sNv9TNnn8n5wIAAQGA0BJy7eHbaHjoAsntREbAw+ubRwGb9J/anvXoikQCSJKukRvZD/kAQEAAoEkJufmQTTQ+/TyZ7dG6fBA0j1w+CJpDp7hSK7OD3XMvu4dTATA4sA0vQAy/BDz1xw8oX3aAZBdOXMxxR3PuaF5SIrmjOcTP+XIj+yIfAAgIALQlIduf95D+8oSDJffVSYs57mg+wcfjjubNSaRqfkaAx3u878j95TC22gUY0B6AUwAQH/anV3xQ5k56/BolaD7JQwTNCZpDat2bZKdq9qJ/ck45pwMAAQGAmEbpP77idXLuy8q1frMFawzyQdC8OxIJ8DgrZO7tbucF3+BUACAgABCrhPzhlc9Rpu/JtK3XopigeeTyQdAcOldt3Ca517jZC67gZAAAAgIQu4Rcd9jmyob+n2QvrVcMckdz7mjuox2RDyjNPPXs9W7XRXdzKgBAIoQOEP+vBM869149Y+QAyX1MUq9awUnQnKC5r3ZEPqAwJuc+reXLD0Q+AGCN2oZTAJDQaP6nV+6n3L4paatSBSdB8yn+maD5qqcQNAev1cU9yt3fuZ0X/IiTAQAICEDqEnLjwVtpfPirkg6sXrDGIB8EzbsjkQBrVBYXyGV/63a67A5OBgAgIABdkRCT0x9fcZxkp0qa2WzBKoLmXuSDoDl0jhUyfUTPXniGc3x5AAABAeimiPzhkO3khr4uaa9m5IOgOUFzgAn5jZy9xc1e9GtOBQD0gxA6QMq/IDzzxzfo1of2kendki2ZvG4kaB5EPgiaA4xJdoqWL38+8gEAhesXTgFAN7AbDn6qxoc+K+mQ5gtWVX8PgubrPk7QHJKoIOwSyb3DzV64mJMBAAgIwCCLyPWHHiZzn5X0ZILmAeSGoDnAHZL7kGYv+AZZDwBAQABgVTn5mwPW13rTPyrZ+yQNVSo4CZqLoDnAGozLuf/QtLGPuu2veIjTAQAICACsW1ped+gL5PR5Sbs1V7ASNC/1OEFzSIOL5bLj3ezLruFUAAACAgBTl5g2mukPV75RTh+X7CmtyYcX8SgiB7HPesQgH4gHFOYWmd7ndl54NqcCABAQACgnIovnTNPII2+R9AlJW/gvWAmaEzSHDnGf5E7TQ71PuxddvozTAQAICABUF5GbD9lEK/RBSf8gaQZBcx/iUeI9mPWAuFkq2We1fMVJ7nlXPcjpAAAEBAD8icj1Bz1JuT4qubdpwqB6zaKYoPm6jyMfEC+PyLn/1Hj+Sbfrors5HQCAgABAOBG59uW7yGX/JOm1fxURguZe34OgOcTLCpm+qGzkRDd7/p2cDgBAQACgORG55tDtNZR/QLI3S5pWqaAlaB6RfCAeMNXo7x6U7IsaH/+02/WKWzkhAICAAEB7InLD4VtqbPxYyU6QNKtZ+SBoTtAcAnOnzH1Bpk+5XRY8wOkAAAQEAOIRkesO21zqvVOy4yXbtF5BXLHwJmi+7uPMekA1rpbcGVq+7NvueVeNcToAAAEBgHhF5NrDN1S28q0yHStph3XrXYLm9Wc9kA8Ic/lK7nyZneF2XngBpwMAEBAASK+aue7le8vpXTK9UqYRguarPU7QHOLhAcnOkXOfdrMXLuZ0AAACAgDpi8g1B26tTG+W9A5JT65WEBM0Z9YDPI/oV0nui3qw9w1uHggACAgAdFNEFs+ZpuElr1Zux8rpxav6FILmBM2hQe6W3FeVZf/pdrr0ek4HACAgADBAMnLgM5TZG5XpDTI9o3DRTNB83ceZ9YCpWS6n82T2LbkHz3WzF6/klAAAAgIAgy0jvz9gdzm9WdIRkrYgaI58QG1ySZfL3DmaNvwt96z593JKAAABAQBYu1xePGeasgcPlLM5kl4jaea6tTRBc4LmMAXXSO7rytzX3U6X3cHpAAAEBACgqIxcfcgmmr7iMJleJXMHSlqPoHkR+UA8BoxcTlfI3A9k+f+4nRf9iVMCAAgIAEBdGbllz/W0dMP9pfxQSa+U9ITKYhBMPgiaQ2Msl2mB5H6kETvH7bDwdk4JACAgAAChZMTmDOkPD+yp3M2R7DWSPTGseJSQB2Y9IBwPSLpQcj/S9LHvu+2veIhTAgAICABA4zIymunaS3aTsgMlHSjpRZKG/ckHQXNobbTtSfqFcne+nLtA9wxd4fadP86JAQAEBAAgJiH5zQHrayTfU84Ok+xwSdsGlw+C5uCPGyS7UC67UD1d6HZZ8ACnBAAAAQGAlITkD/tvp15vf8ntL9OBkmYRNIeIeFimy+Xchcp1odtlwVWcEgAABAQAuiIjN+4zQ8v1QuXZPnK2j6Q9JM2oLA4EzaH8CLpMsl9ImqfcLtC903/BsioAAAQEAAZFSObtM6yt3K4yWzVDIttL0np9C39mPaA4S2S6QnILNaQFWm94gXva/OWcFgAABAQAQHb9QdM1tmIPOdtHue0jpxdIWp+gOZTgFpkulbRAmS7TTguvcY7GAwBAQAAAiijDvH2G9QQ9W9ILJdtD0gsk7SApKyUWtcQD+YiYlXL6reR+IdlCyV3mZi/4M6cFAAABAQDwJyXX7rWheiO7yuW7y7SXpJdI2jKMfCAeETEu6Q9ydpXy7Cplukozh69kORUAAAICANC8lFy993YaGtpdZrvIaRfJdtHq2/9O+EcEzSNmpaSrZbpKzq5SNnSVHnnkt+55V41xagAAEBAAgDil5Ff7bKzp+S6PS4npOZJmSzaTWY9oGJPcHyUtlvJrV/139nstX3YNsgEAgIAAAKQvJTZnSFff/gxlbic5t72Uby/ntpfpmZK2Rj6CsVzStZJ7VDLy38vya7Ri7I+IBgAAAgIAMJhysnifDaQV2yvPtpdslZg4PVOmbSVtRd87JeOSbpPpZjndJOkmmbtZWX6TetlNunbrm93cc3qcJgAABAQAAArJyexpchttrXzoSVLvyXLaRtJTZNkTJW0jZ0+VaUtJwx08/Eck3SPpTsnukdPdkv4sczcpz27SyNjNunPGrdzMDwAAAQEAgCYl5ew5Q5p9zxZSb1PJVvuPNpWyR//7sf+tTWXaRKvuAr+enGbIproBY20ekrRM0sOSHpT0iEzL5PTAo4Jxv5zukexOWXavMrtHrnenVs66x+16/sO0LgAAICAAAF2UmOsPmq5lS2ZqaHi6euMzpd40aWh9DfWG1Bvqv4RpOHtI4/mq51m+VNPdMrfDwiWcWQAAAAAAAAAAAAAAAAAAAAAAAAAAAAAAAAAAAAAAAAAAAAAAAAAAAAAAAAAAAAAAAAAAAAAAAAAAAAAAAAAAAAAAAAAAAAAAAAAAAAAAAAAAAAAAAAAAAAAAAAAAAAAAAAAAAAAAAAAAAAAAAAAAAAAAAAAAAAAAAAAAAAAAAAAAAAAAAAAAAAAAAAAAAAAAAAAAAAAAAAAAAAAAAAAAAAAAAAAAAAAAAAAAAAAAAAAAAAAAAAAAAAAAAAAAAAAAAAAAAAAAAAAAAAAAAAAAAAAAAAAAAAAAAAAAAAAAAAAAAAAAAAAAAAAAAAAAAAAAAAAAAAAAAAAAAAAAAAAAAAAAAAAAAAAAAAAAAAAAAAAAAAAAAAAAAAAAAAAAAAAAAAAAAAAAAAAAAAAAAAAAAAAAAAAAAAAAAAAAAAAAAAAAAAAAAAAAAAAAAAAAAAAAAAAAAAAAAAAAAAAAAAAAAAAAAAAAAAAAAACALuM4BQAAg9cnm1nxD+UaHSqMrwEAAIMdAABU7D8nKvQ/9rGPNdr3Ll682Ov7zZ49u3FJ+Jd/+RerIUVIDQAAAgIAEH8fuLo8VJWGKsX/nDlzpnz8mmuuSa7v3mmnnaaUgHPOOacRCVpdZApIDOICAICAAABU69OqyEQReVhbFtqUg9tvv32N9959992Dv+dVV131+P+/zTbbtFqwry05/aSmjMQ8Ji59pAVhAQBAQACgy31VWamYTChCScTtt9/ufEnAHXfc0Zn+euutt65dqF911VVehWd1eZlKXIpISwFZQVQAgEEdACC2vugxuegnFkWkoqpQlBWIOpKw00476c477xzoPnmrrbayR9sruNjUFZgiwjKVrCApAMCgDwAQoWBMJBePiUUVqSgqFEVFoo403H///fS/Bdh0000rF+JbbbWVFZWZIvJyxx13lP4s/USlhqQgKACAgAAA/Uldwag6a7H11lu7ukKx6aabFn6/EPLw4IMPOkl68pOfPLBfoFtuuUWStNFGG3kvrouKTBFp6ScrZWdXHpOUKoKCnAAAAgIASMYUgrG6ZBQVjKlmLfqJRRGpqCsTDz74oCsrDQ899FDtvnfrrbcO8rp1mTVrlk3QTt5fs4jM1BGZIsLST1amEpUykjKZoFSQE8QEABAQAEhfNOpKRlXB6CcXVcSiqEwULfQfkwQfYvDwww93or9ef/31axfBjwlJGbEpIjFVpWUqWakqKUWXe5WVE2ZNAAABAYBkRaOMZEy2RGoyweiXrSgjF0Wkop8gbL311qUlYiph2GKLLbw03tKlS6PuwzfYYAMvRe0999zjTWqKystUwlJFVKaSlPvvv998y4knMUFKAAABAQC/slFk6VRd0agiGUUFo59cTCUNRaViMpEoIxFFRWHzzTcvJTIpM5E03HvvvUHkZiKBKSots2bNsqlkZTJRKSMpbchJETGZIgSPmAAAAgIA1WRjolkNn6LhQzJmzZrlyshFkWVPExX1RYRiKpFYXR6qSsMjjzwy0H3yzJkzKxW2q8tEP4kpIi5rC0s/WZlKUkIKykRyUlVMJpoxKSElCAkAICAAyIYf2WhCNKaaxZhIIvrNXKxd/PcTi8mkoopQlBWI5cuXP/78jTbaiG/yX78Tj///M2bMKFXcFpWYx6RiKmGZSlbKSEpZQSkqJ3XFpF8QHikBAAQEACoLh0/ZmCz8XVU0ykpGGcGYSC4eE4siUlFEKB6TiLoCsbqMhJCSiV6/KmWloKhs+Hrtx16zyGv1E5Z+ojKZpJQRlIcfftiKyslDDz1USUwmC8OvLSY+pQQhAQAEBKAD12lR2ZCmzmzUkQ2forH++uvXkoyqgtFPLJYvX+6qFP9lZjSqCsGsWbOCiYVvVheAhx56KJjs1JkxKSorU4nKVJJSRFAmk5PJZk6qiEkdKSmyfKuCkCAlABQ2ADBIwuFLNibKZ1QVjaKSUVcwyshFEaEoIgCPSUNIWdhwww1bk5K1i/clS5YEfZ8iMjOVUJSZIVn9b6Z6/mSCUlZOqopJlaVcRaVkouVbU0lJkZA7QgJAoQMAEV2HE0lHGeGY6L4aawvHRJkNH7Ix2dKpqqIxmWT4EIx+S6emKuJnzZpVq8jfcMMNa0vCihUrkum/p0+fXquwnDFjhlWVmiLSMpFYlJWUqQSlrJxUFZOJlnKtLSZVpKRIpqSMkLBkCwAQEICWr70mhKPs7MZEy6h8yYYP0SgiGVMJxmTFfxWxKCMTVaRh9b/ZYIMNkv/iL126tJaUFP27stIyY8YMm0xS6gpKWTnxKSZFpGSq5VttCAmhdgAEBAACXGtFpKPOkqqywrH27EbRZVRlZGOqpVNVRaOsZJQRjCJiUUQoHntOUXkoIynrr79+9F/8hx9+2KtYPCYxRZ/f73lFRWWqmZTJBKWfnEz2nKlmTMpIyURCUmT5VtlZkjpCUiTUzuwIAAICABWur35Zjn6zHP2Eo+ySqn7C0W92w7dsVBWNOpLRTzCmEoEiUjHV3xcVh5UrVxbuo2fOnBnFl/6RRx4p/Nxp06YVLiQnE5l+glFEVqZ6vIygFJET32JSRErKzpKUEZIiMyS+Z0eQEQAEBABKSEeZpVVlZzl8C8dUsxtFl1FVlQ1fojEyMlJaMFasWOHKikU/oZhMJCaShjLSMdX7NSkkjzzySCmZKCMkkwlNv/ebSFgmE41+kjLZY0XkpIiYFFnOVVRKJlq+VXaWxKeQ9Au1T7XtLzICgIAAQIFryWzV+DeZeDQlHf0yHHWEY7LZjVCy0U80pprJKCsZZeRiIlFYu+gvKhPDw8OV+mIfshKaqmIyPj5uZV9/IlmZ6v3XlpQqgjLRv1cVk7KzJStWrKg0S+JbSCbLkPicHUFGABAQAFjr+plqtqOOdJRZWtVvlmOqDEeVGY6ywuFDNiab0ZhIHIpKRlHBWF0u+hX+RYSiqjxMNbMRg5BMVvCXWZpVVmKKzMBMJSoT/W0ROfEtJv2kpN9MyUTCUkVIplqytXaGpE6gHRkBoIACAI/S8Zh4xCYdZWY5fAuHD9mYbEajyHMnEo3VC/aigjGVXBQVgP/f3t3kpg4EQQAmSmTCAXP/YxAMUd4KadTqv2r3GHipWgYzyQIkf6pup9qUjNefTqeX+dL8/PzAN4BRs1GBiteq3N+L4gSBSQUl67r+WiCx0DELJBFGJEiQUS0PI9kxLUKEYQgQhvmT8PDQIR+XWx2v8tDhjVZ1jFXNAoc1RiURkWk1stCwbvq9/YkICkhLgiDier2qZz07Qs7ns4XL9I1gBi8IViykWDixzkZhgqDker26S/FjS4KAJDOy9WiMyJ0RtiIMQ4AwDOExwKOj7ajudGSbjo6W43g8ph6Ri4Aj225o4PCwgUDDajI8OERnZmAhMWFd+wr7HR2xQCDxEqHFg0oWKNYSvPZzrTHpQAnakngg8Ua2Mu1IF0aqOyOVVkQ+1pcQYRgChGFe7rtRHbOa0XZUx6tQdFRbDrTh0MAhYdKBDavRiJ5M5TUkFhpGXGjXVFBxOp3aMHK73Taf8/Hx0fK0K6sdQcEynuMhxQKKNXoVwURrTDIo6WhJrIYks0PyihjpaEUIEYYhQBjmT8Iju9vhtR2VEast6ND+/0YWHR4mZoFDw0YVGu/v728eMiQwECRYZ1tYOB6PuyJjNk4ulwv0HgQsKFDO53O64ZiNkmpDYoHE2x95BEa8p2l1tCKV8SxChGEIEIZ5WXggS+WV3Y5ZI1aV8SoLHZmWQ45UIeDQbvC1MSrv8bjaawg0MsiIGos7ECxUWIDQrrd2Q54lViMxAiQDkfv13jXorsiIE+3v1M5DUaKNb0Ug8RoSDRrVdmQPjFRaEWtXpBsibEQYhgBhmKf4DlR2PJDGYw94bG07ZqAj23JkGg4JDq/dyGKjAg0PGbfb7S2Li/G6CBOfn5/uB/lZMBLtanx/f0Pvl1jREBIBJcLJCIBOlFRAkh3ZyrQjnc2IXGCvQERihBBhGN58MQzh8UB4VJbKO9qOvdFhtRxbR6pQcCDY0M6wWowKMDRYZDEx/r5lWZ7ii7WuawiGLFwsrIzXRuNcl8ulBJMqShCQyJGtajtSxciMVqQyntUNkcyOCLisToQwDAHCMD2f++rjdMdxq8py+dbGA4FHZ9sR7XRkx6sidGRaDuu9Egtou2Fhw4NGhAwJDA8X93M9TCAjWlXYoFCQN/xWLAjc0RJhRf5uDSj3azyYeI1JBiUWSLR9kmVZfmdiJIKGfN16opbVivwvEPGemsX9EIYhQBhml897d+uRgYe3XN49alWBx7IspWXy8fXseFUVHVpDIpfBsw2HNkalNRsaNiJoWDf6HjC89iSDB2RRfXY8hGg37pkxq3VdTaBEMNEaEw0l3SDJtiMoRjJL7FErYkEEbUW2QKSyI5JZVp88lkWEMAwBwjB9+Pj6+jocDodwydxrPdBxK/lUq44dD3TUSoNHNGZltR3IiJUcr8qiY0vLId/rtRtbsGFBA2lO0CX1SmuyJV5bIcewvOstrGTHrLz2ZDzDQol1NgqSPTHS3Yog41kzGpHMU7P2bkOIEIYhQBim5XNeGbl6dOvhjVtllsu7G48KPNC2IzNeJdGBthxaw2GBI4ONDDQyyJBQ8M5FsNG9H4IAI7puPMtbMEdgYqGkGySdGInGtJBWxNoVeQREvGX1rWNZM9oQjmQxzD75B3iLg7YDznKyAAAAJXRFWHRkYXRlOmNyZWF0ZQAyMDIyLTExLTA3VDE2OjUxOjU1KzAwOjAw1Bc0DQAAACV0RVh0ZGF0ZTptb2RpZnkAMjAyMi0xMS0wN1QxNjo1MTo1NSswMDowMKVKjLEAAAAASUVORK5CYII=;" parent="14" vertex="1">
                    <mxGeometry x="30" y="50" width="45.61" height="50" as="geometry"/>
                </mxCell>
                <mxCell id="17" style="edgeStyle=none;html=1;shape=arrow;fillColor=default;" parent="1" edge="1">
                    <mxGeometry relative="1" as="geometry">
                        <mxPoint x="290" y="340" as="sourcePoint"/>
                        <mxPoint x="360" y="340" as="targetPoint"/>
                    </mxGeometry>
                </mxCell>
                <mxCell id="18" style="edgeStyle=none;html=1;shape=arrow;fillColor=default;" parent="1" edge="1">
                    <mxGeometry relative="1" as="geometry">
                        <mxPoint x="583" y="339" as="sourcePoint"/>
                        <mxPoint x="511.46000000000004" y="339.5082048731974" as="targetPoint"/>
                    </mxGeometry>
                </mxCell>
                <mxCell id="22" style="edgeStyle=none;html=1;shape=arrow;fontColor=#000000;labelBorderColor=#000000;strokeColor=#000000;fillColor=default;" parent="1" edge="1">
                    <mxGeometry relative="1" as="geometry">
                        <mxPoint x="781.54" y="338.75" as="sourcePoint"/>
                        <mxPoint x="710" y="339.2582048731974" as="targetPoint"/>
                    </mxGeometry>
                </mxCell>
                <mxCell id="23" value="Documentation&lt;br&gt;Repo" style="text;strokeColor=none;fillColor=none;align=center;verticalAlign=middle;spacingLeft=4;spacingRight=4;overflow=hidden;points=[[0,0.5],[1,0.5]];portConstraint=eastwest;rotatable=0;whiteSpace=wrap;html=1;fontSize=14;fontColor=#000000;fontStyle=1" parent="1" vertex="1">
                    <mxGeometry y="400" width="120" height="40" as="geometry"/>
                </mxCell>
                <mxCell id="24" value="DevOps&lt;br&gt;Pipeline" style="text;strokeColor=none;fillColor=none;align=center;verticalAlign=middle;spacingLeft=4;spacingRight=4;overflow=hidden;points=[[0,0.5],[1,0.5]];portConstraint=eastwest;rotatable=0;whiteSpace=wrap;html=1;fontSize=14;fontColor=#000000;fontStyle=1" parent="1" vertex="1">
                    <mxGeometry x="190" y="400" width="80" height="40" as="geometry"/>
                </mxCell>
                <mxCell id="25" value="Azure AI Search" style="text;strokeColor=none;fillColor=none;align=center;verticalAlign=middle;spacingLeft=4;spacingRight=4;overflow=hidden;points=[[0,0.5],[1,0.5]];portConstraint=eastwest;rotatable=0;whiteSpace=wrap;html=1;fontSize=14;fontColor=#000000;fontStyle=1" parent="1" vertex="1">
                    <mxGeometry x="399.23" y="400" width="80" height="40" as="geometry"/>
                </mxCell>
                <mxCell id="26" value="Web App" style="text;strokeColor=none;fillColor=none;align=center;verticalAlign=middle;spacingLeft=4;spacingRight=4;overflow=hidden;points=[[0,0.5],[1,0.5]];portConstraint=eastwest;rotatable=0;whiteSpace=wrap;html=1;fontSize=14;fontColor=#000000;fontStyle=1" parent="1" vertex="1">
                    <mxGeometry x="610" y="400" width="80" height="40" as="geometry"/>
                </mxCell>
                <mxCell id="27" value="End User" style="text;strokeColor=none;fillColor=none;align=center;verticalAlign=middle;spacingLeft=4;spacingRight=4;overflow=hidden;points=[[0,0.5],[1,0.5]];portConstraint=eastwest;rotatable=0;whiteSpace=wrap;html=1;fontSize=14;fontColor=#000000;fontStyle=1" parent="1" vertex="1">
                    <mxGeometry x="810" y="400" width="80" height="40" as="geometry"/>
                </mxCell>
                <mxCell id="28" value="" style="sketch=0;pointerEvents=1;shadow=0;dashed=0;html=1;strokeColor=none;labelPosition=center;verticalLabelPosition=bottom;verticalAlign=top;align=center;fillColor=#505050;shape=mxgraph.mscae.intune.user_group" parent="1" vertex="1">
                    <mxGeometry x="790" y="290" width="120" height="100" as="geometry"/>
                </mxCell>
            </root>
        </mxGraphModel>
    </diagram>
</mxfile>